<mxfile host="app.diagrams.net" agent="Mozilla/5.0 (Windows NT 10.0; Win64; x64) AppleWebKit/537.36 (KHTML, like Gecko) Chrome/140.0.0.0 Safari/537.36" version="28.2.3">
  <diagram name="Page-1" id="I0xRtlZwKHL8j-o3GWPY">
    <mxGraphModel dx="827" dy="475" grid="1" gridSize="10" guides="1" tooltips="1" connect="1" arrows="1" fold="1" page="1" pageScale="1" pageWidth="850" pageHeight="1100" math="0" shadow="0">
      <root>
        <mxCell id="0" />
        <mxCell id="1" parent="0" />
        <mxCell id="GyAlcbeer8-HQcUifqdN-5" value="" style="edgeStyle=orthogonalEdgeStyle;rounded=0;orthogonalLoop=1;jettySize=auto;html=1;strokeWidth=2;" edge="1" parent="1">
          <mxGeometry relative="1" as="geometry">
            <mxPoint x="314" y="308.3" as="sourcePoint" />
            <mxPoint x="454" y="308.41" as="targetPoint" />
          </mxGeometry>
        </mxCell>
        <mxCell id="GyAlcbeer8-HQcUifqdN-3" value="" style="shape=image;verticalLabelPosition=bottom;labelBackgroundColor=default;verticalAlign=top;aspect=fixed;imageAspect=0;image=data:image/png,iVBORw0KGgoAAAANSUhEUgAABDIAAAJ8CAYAAAAMK4EGAAAAAXNSR0IArs4c6QAAAARnQU1BAACxjwv8YQUAAAAJcEhZcwAAFiUAABYlAUlSJPAAAItOSURBVHhe7d0HeBTV18fxExKCgjTpLfQeamgqiAUEFcVeUAFFEKwodkVf9S82BLFgAQWxgF1BURDsSJHeey8GEGlSQsi+e87eSTYhgRTADH4/z7Ps7p3Z2TYbdn5777kRgSABAAAAAADwgTzuHAAAAAAAINcjyAAAAAAAAL5BkAEAAAAAAHyDIAMAAAAAAPgGQQYAAAAAAPANggwAAAAAAOAbBBkAAAAAAMA3CDIAAAAAAIBvEGQAAAAAAADfIMgAAABHdPDgQUlMTLTzIzncur1795aWLVvKp59+6loAAACyhiADAAAc0eWXXy558+aVSy+91LVk7MILL7R1r732WteSYv78+TJp0iTZuHGja8m+qVOnyogRI+wcAAD8dxBkAACA4yYqKspOefLk/CuIhhhdunSRd99917UAAID/AoIMAABw3Hz33Xdy4MABuf32210LAABA1hBkAAAAAAAA3yDIAAAAx02/fv2sdob2zEhrw4YN8sADD0jjxo2lUKFCUqBAASlbtqycffbZ8tBDDyXX1Vi/fr1tY9y4cXZ9/Pjxdj38pMVGw23btk0GDBggsbGxUrhwYSlSpIg0a9ZM3nnnHdmzZ49b61CBQEAmTJgg5557rt3m1FNPlRYtWlixUl12//332/1NnjzZ3SJk9uzZ1n7XXXfZ9bFjx9rzKFGihBQsWFBGjRpl7do7ZfTo0dKzZ0+Ji4uz7Z9yyilSoUIFa5syZYqtl57nnnvO7kO3rc/hsccekypVqtj2K1asaPe9fft2t7bITz/9JBdffLEUL17cXl99ThMnTnRLAQDwkeB/wgAAAIfVsWPHgH5tuOiii1xLxtq1a2frXnnlla4lRfDg2ZYNGjTItYQsWrQoEDyIt2URERGBsmXLBqpWrRooVqyYtenp888/t3UXLFiQ3JbRKSEhwdZV06dPDxQpUiR5WenSpQPBg/nk65UrVw6sXr3arZ0iKSkpcPvttyevlz9/fntMBQoUsOu9e/cOxMbG2uVRo0a5W4V888031l6pUqXAY489lryNqKgoOx8yZIitN3Xq1FTLypUrZyevTU8DBw60ddPyXmfdfu3ate2yPkbv8ekpLi4usH//ftuGXtfXtmjRonburfPVV1+5LQIA4A/0yAAAAP+6//3vf9Zr4qyzzpJVq1ZZ74zly5fL1q1bZe3atTJo0CApVaqUrVurVi3Zu3ev9OjRw653797droeftKCo0tt36NDBeibUr1/fZkzZtGmTbN68Wb799luJiYmx+7vkkkskISHBbuP58MMP5dVXX7XLTz75pPz555/2mPT86aeflpdeekmWLVtmyzOi9/XUU09Jt27dbF3tgbFjxw45//zzbbnO7nLjjTdaz4hdu3ZZbxM96e0effRRW+fuu++WOXPm2OX0vPjii7Zd7eWi29i5c6d88sknEh0dLTNmzJBevXpJnz597KS9WvR11vvQ2WWU1isJfie0ywAA+EIozwAAAMiY1yNDf/GvWbPmYU8nn3yyrZuVHhnaS0LbJ0+e7FqO7NZbb7XbBA/UXcuhXnrpJVunUKFCgQ0bNrjWFHPmzAlERkbaOmPGjHGtIY0aNbL22267zbWkduedd9pyPWXUI0NPXbp0sd4d2dG5c2fbxsMPP+xaUng9MvLlyxdYuXKla00R3pukZ8+erjVFfHx88vL58+e7VgAAcj96ZAAAgEzTWgxLliw57El7RGSV9h5QS5cutfOj5YsvvrBzrSWh9TbS0l4abdq0scufffaZnSvtETJr1iy7fMstt9h5WtoTJDO0VkVERIS7ljVXX321nX/zzTd2np527dpJ5cqV3bUU55xzjrskVm8jrZIlS1rNEJW2xgcAALkZQQYAAMg0HfqxePHiw57OOOMMt3bmaRFK1bVrV+ncubN89NFHNrwiJ3S4xS+//GKX27Zta+fp8ZZpUU+PDkFRRYsWTT7YT6tu3bpWOPNwtLBow4YN3bX0HTx40Ia53HvvvdK6dWtp0qSJFTzVk1csND4+3s7To8VH0+MNxdGQSAOb9Hjr/PPPP3YOAIAfEGQAAIBM0xkxatasediTzrqRVVpz4oILLrBaDe+9955cc8011oOiatWq8vjjjx/2QD4ju3fvTq79UL58eTtPj84QosJn+NBaE0qDiox6U2h7ZoKMw/XG0FodrVq1sueutS40eFmzZo1s2bLF6ntoPQ2loUxG8uXL5y6llidP6GueLs/oMXjreK8TAAB+QJABAAD+dTodqA6f0OEcjzzyiPVM0APwlStXWqHNGjVqyNSpU93amZPZ4RzeQbx3UK+0CKdKO41rWkdaHr7N9Oj0rTqso3bt2jadrIYpGmKsW7fOipxqzxQAAJAaQQYAAMg1dBiGzmDy008/WW+E0aNHW48JnYnjwQcfdGtljvYM8WpvaCCSkRUrVth5eO8Kr5eG9o7Q+06P9trQGU+yS0MLnRlFvfvuu3LeeedZD45wOkMKAABIjSADAADkStoj46KLLpI33njDrmu4ET4EwuvtkNGwC52C1at/8f3339t5esaPH2/n3nSkSut86DCapKSkVLUzwumUqVrfIru0Boj32OPi4uw8LQ1yAABAagQZAADgX6VhgVeTIj26XJ188smphouULl3azg9XP+PSSy+185EjR8qyZcvscjgNR37++We7fPnll9u50p4cHTp0sMsPPPCA/P3333bZo71FtD0nwntfzJkzx11KMXv2bPn888/dNQAA4CHIAAAA/yrt1VCxYkW55557rPeDDuXQnhc61av2lujdu7etd9NNN9m5x5s2dcyYMdK3b18ZNWqUHfjryQs/dNpVnXVk37591jtDh3LodjWIeO211+Syyy6z9c4//3wruhnu+eefl2LFisny5culVq1aNuRFa1b069fPiprqTB8xMTFu7azTYqbejCM33HCD/Pbbb/ZaaKjz5ptv2lCTIkWK2HIAAJCCIAMAAPzrtMfDwIEDLWzQngo6bKRAgQLSrl07q2HRsmVLeeKJJ9zaIc2aNbMAQGnIoKGF9qrQkzfkI3/+/Da1qRbT1HoX1113nW1XA4Lbb7/d7vfss8+2gCJtYU6d6USDlEaNGtnsIhqW6GwqWoxUp2X9+uuvbfsqo5lDjuSll16yISwLFiywIEWHw2jh0549e9p9vPzyy25NAADgiQgw3xYAADiCTz75RJYuXSrVq1eXq666yrWmT3tGaPig4YHX48GjPSK0QKb2NmjatKm16VeRxYsXW2igQyy0MKf2mtBwQIt/6rpavyKjGUD0vn744QebrtTriaGFQSMjI+2y0nbd/rBhw2xGEN1WtWrVLDBo3rz5YWc40cf3448/ysyZM22b+hpoDw5tL1GihBXt/PXXXy1s8WgvDg1HNDC57bbbXGv6NGDRYp9acyMhIcF6gVx88cXSpUsXGzaj09FqYHL33Xe7W4R4r7P2TNHnkNaGDRtk+PDh9jree++9rjU1HXKjr7cGSBoMAQDgBwQZAAAA2aD1NbQ3h/ag0BDFm7IVAAAcWwwtAQAAyMDatWvdpdR0SEqfPn3scvv27QkxAAA4juiRAQAAkIEGDRpYTQ0NK3Qoin5tmjp1qg3r2LJli9W3mD59utSoUcPdAgAAHGsEGQAAABnQ+hzff/+9u5bamWeeacU6tRgoAAA4fggyAAAAMqBfk7Rw59y5c2XTpk2SmJhoNTG0wGZOpl4FAADZR5ABAAAAAAB8g2KfAAAAAADANwgyAAAAAACAbzC0xGciIiLcJQAAAAAA/C07kQRBhs9okMFbBgAAAADwu+we3zK0BAAAAAAA+AZBBgAAAAAA8A2CDAAAAAAA4BsEGQAAAAAAwDcIMgAAAAAAgG8QZAAAAAAAAN8gyAAAAAAAAL5BkAEAAAAAAHyDIAMAAAAAAPgGQQYAAAAAAPANggwAAAAAAOAbBBkAAAAAAMA3CDIAAAAAAIBvEGQAAAAAAADfIMgAAAAAAAC+QZABAAAAAAB8gyADAAAAAAD4BkEGAAAAAADwDYIMAAAAAADgGwQZAAAAAADANwgyAAAAAACAbxBkAAAAAAAA3yDIAAAAAAAAvkGQAQAAAAAAfCMiEOQuwwciIiKEtwwAAAAAjo8JXbu6S/7RZvhwdyl3y+7xLT0yAAAAAACAbxBkAAAAAAAA3yDIAAAAAAAAvkGQAQAAAAAAfIMgAwAAAAAA+AZBBgAAAAAA8A2CDAAAAAAA4BsEGQAAAAAAwDcIMgAAAAAAgG8QZAAAAAAAAN8gyAAAAAAAAL5BkAEAAAAAAHyDIAMAAAAAAPgGQQYAAAAAAPANggwAAAAAAOAbBBkAAAAAAMA3CDIAAAAAAIBvEGQAAAAAAADfIMgAAAAAAAC+QZABAAAAAAB8gyADAAAAAAD4BkEGAAAAAADwDYIMAAAAAADgGwQZAAAAAADANwgyAAAAAACAbxBkAAAAAAAA3yDIAAAAAAAAvkGQAQAAAAAAfIMgAwAAAAAA+IYvgozdu3fLk08+KZdccok0a9ZMWrVqJQ8//LBs3LjRrREyYcIE6d69+yGnyZMnuzVCAoGAjB07Vtq1ayctWrSQ++67T7Zu3eqWpti2bZs8+OCDtk7btm1lzJgxdtu0fvrpJ+nQoYM0b95cbr/99kMel9q1a5c89dRTctppp8nZZ58to0aNkqSkJLcUAAAAAABkhi+CDA0ZvvzySylfvrxcfvnlcsYZZ8jQoUOlcePG8vfff7u1RObPny8jRoyQf/75J9UpMTHRrRHy8ssvy4UXXihVq1aVzp07y1dffWUByc6dO90aofBEg4mPPvpIrr/+eqlbt64FKS+++KJbI+SDDz6wYKJ48eJy4403ym+//SaNGjWSP//8060hcuDAATnrrLNk8ODBcvXVV1swoverIQkAAAAAAMi8iEB6XQx8YMmSJVKrVi159dVX5bbbbrO2l156Sfr16yebN2+26+nRYKNkyZLSs2fP5FAiPj5eYmJi5LHHHpNHHnnE2vr37y8PPfSQrFixwpYp7QUycOBA2bRpkxQpUkQOHjwoZcuWtZ4dGqAoDUMqVapkQYU+HvXuu+9K165dZe7cuVKvXj1r02X33HOPrF69Onn7mREREZFurxAAAAAAwNE3IXgs5zdthg93l3K37B7f+rZGhnfwn7a3xZFMmzZN9uzZI9ddd51rESlVqpQNDdGhKR69rENYwkOGm2++Wfbt25c8VGXhwoUWmoRvq1ChQnLllVcesi0NMLwQQ91www32pv3888+uBQAAAAAAHImvggytWbFmzRqZM2eOdOnSRcqVKyfXXnutWxqyfft2Cww0gLjgggts2Ei4P/74w861N0e4mjVrytSpU9210Hp16tRx10IqV64skZGRMmXKFLvubSvterrtBQsW2PAUpeFJ2nWKFSsmJUqUSN4WAAAAAAA4Ml8NLbnjjjtsKInSIEDrU+iwDs+HH35ooUHDhg2t58THH38sP/74o7zyyitWhFPp8JABAwbY8nDPPPOMLUtISJC8efNKVFSUXdcio+F0SIkOE9GhITrMRIeHaGBRoEABt4bIkCFDpEePHlb0s0yZMlK6dGm57LLLrEZGuGrVqlkdDn0e6dEeG+mZMjUl/IipEGP3sXzFcvnrr79cq0j+/PmlXmw9C3aWLF3iWkPq16svJ598ssyYOSNVj5ayZcpKhQoVLCz6Mz6lxkd0dLQ0atjIhuXMXzDftYbUrl1bChUsJHPmzkn1mmpIU6VyFdmwYYOs37DetYrkicgjTZs2lf3798vsObNda0j1atXl1FNPlQULU0IgVbRoUalRvYb1flm1epVrDWkS18TOp8+YbueeypUq2xCipcuWpqqjcsopp0jdOnUtFFu2fJlrDWnYoKHky5fPAqqkQEoh1vLlyltotnLVStmyZYtrFTnppJOkQf0GsnPXTlm0aJFrDYmtG2v7xKzZs2yf8pQuVVoqVqwo69atk42bUorC6v4W1zhO9u7dK3PnzXWtITVr1LT9bt78edabyKOfgWpVq9lQp7Xr1rrWkObNmlttlpmzZrqWkKpVqlo9l8WLF8uOnTtcq0jhQoUtgNN6NCtWrnCtIY0bNbbPxNRpKUGfYt9j32PfY98Lx77Hvse+x77nYd9j3zvR9r3v3h5q556oFSslMj5eDtSqKUnBbXoidu6S6PnzrU2XhYueMVMigo9rf4vmwQea0p8gcu06iVq/XhKrVpWDpUq61uC2gvtJ9KzZklSooByIjXWtIdFz5kpE8PXaHxcnki/atQa3tXGTRK1eLYkxMVK0w4WuNXfvey2at8jW0JIIPwUZO3bssB1cP0Raw0Jn/tChGVo8Mz361C666CILN9YHdw79kDz66KPywgsv2M4d7n//+5/07dvXPmza60LXvf/++609XMGCBW0mFA1DBg0aJL1797a6GNrueeONN6RXr15W8FOHrWgdjYsvvtjaw2kPDx2+4tXXyAxqZAAAAADA8UONjGPnP1Ejo3DhwhYK6NCRYcOG2SwmaWcRCacvis44oqnqypUrrU0TRU1MNaENp2GEpkcaYijtRaHpUzh9gTW9020oXUelXU+nWtVEU5Mtld62lK7nbQMAAAAAAByZb4t95smTx7oUhU+Zmh6vC5R2b1Je7w2tsxFOa1Wcfvrp7lpovdmzU3dH0p4dSqd/Vd620q6nxUC1S5N2W1OnnXaa3V940rR8eah7lrctAAAAAABwZL4IMvSgP3y8jho/frwV52zfvr1rEZk/f36qsEDHTOkQkLi4OBunpho0aGCFQLUnhzdmS0OMX3/9VS655BK7rvTyzJkzrcaG0qlWdTiL9gjR7SndTv369W2IiTdURcfOff3114dsS8eCffrpp3ZdH6NuS2c4ad26tbUBAAAAAIAj80WNjOeff14ee+wxadSokR3861CRWbNmSdu2beWLL76wIjtK61FozwudgUQLmWjPCC3oMnbs2OTwQU2cONFqVlSpUsWKjujMJjrDyWeffZY8tCQpKUmuuuoq+fLLL6Vjx442NGXJkiV2f+EFRmfMmCHnnnuuFRrSxzdmzBhp1qyZjBs3LrlHhr7EWjPjzTfftPvVQjJ6O62Ncc0119g6mUWNDAAAAAA4fqiRcexk9/jWF0GGhhI//fSTzJ071wp+amXZs88+Wxo3bmxDTDwabmjvCu2Joe26XMMOL+gIp2HIu+++a9vTgpu6nr6I4fSl0dBDC4pqfY7OnTtbYJGWVuvVbWkVVh1SogVG025LTZo0yQIODVu0dodW7c0qggwAAAAAOH4IMo6dEzrIQAqCDAAAAAA4fggyjp3sHt/6ttgnAAAAAAD47yHIAAAAAAAAvkGQAQAAAAAAfIMgAwAAAAAA+AZBBgAAAAAA8A2CDAAAAAAA4BsEGQAAAAAAwDcIMgAAAAAAgG8QZAAAAAAAAN8gyAAAAAAAAL5BkAEAAAAAAHyDIAMAAAAAAPgGQQYAAAAAAPANggwAAAAAAOAbBBkAAAAAAMA3CDIAAAAAAIBvEGQAAAAAAADfIMgAAAAAAAC+QZABAAAAAAB8gyADAAAAAAD4BkEGAAAAAADwDYIMAAAAAADgGwQZAAAAAADANwgyAAAAAACAbxBkAAAAAAAA3yDIAAAAAAAAvkGQAQAAAAAAfIMgAwAAAAAA+AZBBgAAAAAA8A2CDAAAAAAA4BsEGQAAAAAAwDcIMgAAAAAAgG8QZAAAAAAAAN8gyAAAAAAAAL5BkAEAAAAAAHyDIAMAAAAAAPgGQQYAAAAAAPANggwAAAAAAOAbBBkAAAAAAMA3CDIAAAAAAIBvEGQAAAAAAADfIMgAAAAAAAC+QZABAAAAAAB8gyADAAAAAAD4BkEGAAAAAADwDYIMAAAAAADgGwQZAAAAAADANwgyAAAAAACAbxBkAAAAAAAA3yDIAAAAAAAAvkGQAQAAAAAAfIMgAwAAAAAA+AZBBgAAAAAA8A2CDAAAAAAA4BsEGQAAAAAAwDd8EWT8/fffct1110nt2rWlcOHCUqpUKbniiitk5syZbo0Us2bNkvbt20vRokWlWrVq8vrrr0tSUpJbGnLgwAEZOHCgVK5cWU499VTp2LGjLFy40C1NsXjxYrnssstsnYoVK0r//v0lISHBLQ3Rbb/11ltSo0YNu8+2bdvKjBkz3NIUq1evtudQrFgxKVeunDz55JOyZ88etxQAAAAAAGRGRCDIXc61NmzYIPfee6+cccYZUr58edm+fbu8+OKLsnz5clm2bJm1qZUrV0r9+vWlZcuWcv/998vs2bPloYcekr59+8qjjz5q66j77rtPXnvtNXn22Welbt268vTTT9u6CxYskDJlytg6mzdvtmU1a9aUxx9/XFasWGG3u+mmm2TQoEG2jnrhhRfk4YcflqeeekqaN28uL730knz//fe2PQ031O7duyU2NlaKFCkizzzzjG27T58+ct5558mHH35o62RWRESE+OAtMxO6dnWX/KPN8OHuEgAAAABwXHMsZff41hdBRnri4+OldOnSFmjcc8891tarVy/58ssvLdA4+eSTre3BBx+04GHbtm3Wpr07SpQoYcGDhhxKg4ayZctKz5495fnnn7c2DT+018a6deusp4UaMGCABSqbNm2yXiHas0OX9ejRw5Yp7bFRpUoVCyneeecda3vllVfk7rvvllWrVkmFChWsbcSIEdKlSxdZtGiR1KpVy9oygyDj2CLIAAAAABCO45pjJ7vHt76tkZEvXz47L1CggJ2rX375xYZ2eCGGuv7662Xfvn0yffp0uz5lyhQ5ePCgXHzxxXZdnXLKKXLJJZfY7T2//vqrtGrVKjnEUDo0RF/kSZMm2XXtdfHPP/+k2lZ0dLRcddVV8vPPP7sWscuNGjVKDjHU5ZdfbuuG3ycAAAAAADg8XwUZS5YssWEbH3/8sbRr187CAQ0q1P79+63OhdbRCBcTE2PnXt0KraGhqlevbuceXU/X8dIgXS9tTwnthZE3b97kUMTbVtr1tJ6G9grZsWOHXU9vWxrAaL0Mb1sAAAAAAODIfDW0RId1aPFOLZKpIYBevvLKK22Z1s3Q3hM6jOP222+3NqW9L6KiomwoidbJ0OEkOmREe2mE03oZukwDEe0pobfR2hdalDOc3kfnzp1tuIpuR4e16NCU8J4hQ4cOle7du1ttDx2yokNgtGjo4MGD3RohGqY0bdo0wzoZ2s0mPVOmTnGXRGIqxFhdj+Urlstff/3lWkXy588v9WLr2euyZOkS1xpSv15967UyY+YMSUxMdK0iZcuUtV4ja9askT/j/3StoV4mjRo2st4n8xfMd60hGhwVKlhI5sydk+o11eE7K594UhLLl5eDMSk9USQpSfJNmSqBfPkkIa6xawzJu3iJ5Nm2TRJiYyVQqKBrFWvTZQdLlZLEqlVca4huS+1v0dzOPVErVkpkfLwcqFVTkk491bUGX9OduyR6/nxr02XhomfMlLZvvil//PGHJAVSCsSWL1feCrSuXLVStmzZ4lpFTjrpJGlQv4Hs3LXThgiFi60ba/vErNmzUhWILV2qtAVdOmRp46aNrjX4eIP7W1zjONm7d6/MnTfXtYbUrFHT6qvMmz8vVYFY/QxUq1rNhjqtXbfWtYY0b9bchj7NnJW6IG7VKlWlePHiVsh2x85Q0KYKFypsYdvWrVtlxcoVrjWkcaPGFuBNnRZ6rT25ed+rUrmKff7Wb1jvWoP7UUQe+7zpZ3z2nNmuNaR6tepW1HfBwgX2efbo571G9RpW12bV6lWuNaRJXBM7nz4jdRhZuVJlKVmypCxdttSGsnm051fdOnVtmNuy5ctca0jDBg2tlxn7Hvueh32PfY99j30vHPse+x773r+773339lA792T3WCMi+LjsuCVPSn+CyLXrJGr9+uBxTtXg8U5J1xrcVnA/iZ41W5KCx0UHgsdH4aLnzJWI4Ou1Py4ueEAU7VqD29q4SaJWr5bEmBgp2uFC15q7970WzVv8d2pk6E6stTE0mPjqq69saMeuXbukUKFCVmzzrrvucmuKvVn6QdOg4oEHHrDaF3pZ/9iEBwUaWGhRTw0+8gR3LP0Dp8GJFgINp3+stJaG3v/LL79s96U9L/S+PRpY3HbbbVbHQ/+46h/FDh06yJvBg+Rw+gfurLPOknfffde1HBk1Mo6tNtTIAAAAABCG45pj5z9VI0OTUe0toTOBvP3229amyaumaTrNabidO3fauYYG3rkmgxoyhNMwQmc/0RBD6VATTQvD6e00papUqZJd94atpF1P71PDE038lN5n2nX0zdL1vMcFAAAAAACOzLfFPjW50dDB666k10877bRDak5MnDjRznXqVnX66afbeXrreesoXU/XCU+HfvzxRzvX6V2V3p9Ku60JEybYMu3Co3RbWicjvGuVFgrVrljetgAAAAAAwJH5IsiYNm2aFfr0QgUd/vHqq6/K3Llzk2tkqE6dOslvv/0mo0ePtus6jkunU9WAQsdjKR2bU79+fauZoUGCGjVqlMyZM8dmJfHotvQ+hw0bZte194TeRsdp6e2VFv8855xz7D68Hh5ajFRDEb2955prrrExVzpFqz4HHe6iw1h0yInOjAIAAAAAADLHF0GGTpmqAYQWDtFhHTqE5M4775Rbb701edYSpeFBr169bCrVBg0aSLVq1ayeRngNCu3F8f7771sRn6pVq1oooQHG/fffb3UsPDorig5f0aKdOoRF19WCPSNHjpTIyEi3ltjQFu0NUqNGDWnYsKHdTm/TNWwcVZMmTaymhtbn0CCkSpUqVmBIt6WFcAAAAAAAQOb4ptinTmeqPTC0loVWVdWeDF4NirS0orBOpaqVVs8777xUwYNHq6x+9913tj0dBqJBRXpWrFhhQYoW82zfvr1V801Le4hoTwytwtq4cWOpU6eOW5La+vXr5ZdffrEaH+eff362QgyKfR5bFPsEAAAAEI7jmmMnu8e3vpy15L+MIOPYIsgAAAAAEI7jmmMnu8e3vi32CQAAAAAA/nsIMgAAAAAAgG8QZAAAAAAAAN8gyAAAAAAAAL5BkAEAAAAAAHyDIAMAAAAAAPgGQQYAAAAAAPANggwAAAAAAOAbBBkAAAAAAMA3CDIAAAAAAIBvEGQAAAAAAADfIMgAAAAAAAC+QZABAAAAAAB8gyADAAAAAAD4BkEGAAAAAADwDYIMAAAAAADgGwQZAAAAAADANwgyAAAAAACAbxBkAAAAAAAA3yDIAAAAAAAAvkGQAQAAAAAAfIMgAwAAAAAA+AZBBgAAAAAA8A2CDAAAAAAA4BsEGQAAAAAAwDcIMgAAAAAAgG8QZAAAAAAAAN8gyAAAAAAAAL5BkAEAAAAAAHyDIAMAAAAAAPgGQQYAAAAAAPANggwAAAAAAOAbBBkAAAAAAMA3CDIAAAAAAIBvEGQAAAAAAADfIMgAAAAAAAC+QZABAAAAAAB8gyADAAAAAAD4BkEGAAAAAADwDYIMAAAAAADgGwQZAAAAAADANwgyAAAAAACAbxBkAAAAAAAA3yDIAAAAAAAAvkGQAQAAAAAAfIMgAwAAAAAA+AZBBgAAAAAA8A2CDAAAAAAA4BsEGQAAAAAAwDcIMgAAAAAAgG8QZAAAAAAAAN8gyAAAAAAAAL5BkAEAAAAAAHyDIAMAAAAAAPiGr4KMxMREiY+Pl3/++ce15MyePXtk69atkpSU5FoOpct0nSPd5969e2XLli1y8OBB13KoQCAgf/31l+zatcu1AAAAAACArPBFkDFjxgxp3769FCpUSEqXLm3n5557rixYsMCtEfLWW2/Z8rSnTz75xK0RsnPnTrnllltsOyVKlJDY2FgZP368W5pi4sSJUr9+fVtH1+3evbvs2LHDLQ3Zt2+f3HPPPVK0aFEpWbKkVK9eXT7//HO3NMWUKVOkefPmUrx4cdtWp06dLJQBAAAAAACZ54sgY/LkyVKwYEF5//33Zf78+TJ27FhZs2aNnH322darwqOX9TRo0KBUp6ZNm7o1Qnr16iVffPGFfPPNN7Ju3ToLGC666CJZvHixW0Nk+fLl0qFDBwsy9L4mTJhg62uYEe7BBx+UoUOHysiRI2XDhg3SsWNHueKKKyy48GhgoUGMBiIrVqyw5zNt2jS55pprrJcGAAAAAADInIjggXSuP5LWISVRUVHuWogGBaeddpp8+umncvnll1vbSy+9JP369ZPNmzfb9fRs2rRJypYtK2+88Yb1ylAHDhyQChUqyGWXXSaDBw+2trvvvtuCEw06TjrpJGt75513pFu3brJ69WqpWLGihSaFCxeWxx9/XB599FFbR1/O2rVrWwDy8ccfW9szzzwjTz31lAUd2nNDjR492kKPP/74Q5o0aWJtmREREeGb8GNC167ukn+0GT7cXQIAAAAAjmuOpewe3/qiR0baEEPp8AyVtiaFvgjag2LOnDnp1qLQ3hBKh6Z48ubNa6HCpEmTXIvI77//LmeccUZyiKG0p4X67bff7Hz69OkWsoRvS98IDVZ0He8N0cuNGzdODjHU+eefLyeffHKq+wQAAAAAAIfn21lLXn/9dcmfP7+0adPGtYRoYc5KlSpJw4YNrWaF9qAIL9SpQ1Py5MkjlStXdi0huu68efOSwwddT+tdhNPwJDo6WubOnWvXdR2Vdr1SpUpZz4+///7brqe3LQ1PNNjQwAUAAAAAAGSOL4aWpKX1KLRYpg71uPHGG11raLiJDvdo0KCB7N+/34Z23Hfffbbuu+++a+toTQutm6GzjIR79tln5aGHHrLbaVgRGRkpjzzyiDz55JNujRANHzp37mzbGDBggPTp00d2794tBQoUcGuI1czQWho6lESHsWiwob00vGErHg03tH7Hhx9+6FpS094d6ZkyNaX+RkyFGClTpowsX7HcZkTxaMhTL7aebN++XZYsXeJaQ+rXq2+9QWbMnGE9Sjxly5S1ITbao+XP+D9dq9jr0ahhIwuE5i8IhTceHUZTqGAhmTN3jhU+9Wg9kJVPPCmJ5cvLwZgKrjUoKUnyTZkqgXz5JCGusWsMybt4ieTZtk0SYmMlUKigaxVr02UHg69jYtUqrjVEt6X2t2hu556oFSslMj5eDtSqKUmnnupag6/pzl0SPX++temycNEzZkrbN9+04T5JgZSZbMqXKy/lypWTlatW2sw0Hu2t06B+A9m5a6csWrTItYbE1o21fWLW7FmSkJDgWkVKlyptw5J0yNLGTRtda6jXUVzjONsv584LBWWemjVqSpEiRWTe/HmpasIUK1ZMqlWtZqHZ2nVrXWtI82bNbcjUzFkzXUtI1SpVreCs1oPZsTOlcG3hQoWlVq1aFgSuWLnCtYY0btTYgrep00KvtSc373tVKlexz9/6Detda3A/ishjnzf9jM+eM9u1hlSvVl1ODe4TCxYusM+zRz/vNarXsOFqq1avcq0hTeJCQ8Kmz5hu557KlSpbMLp02dLkMFOdcsopUrdOXdkW3J+XLV/mWkMaNmgo+YKfCfY99j0P+x77Hvse+1449j32Pfa9f3ff++7toXbuye6xRkTwcdlxS56U/gSRa9dJ1Pr1weOcqsHjnZKuNbit4H4SPWu2JAWPiw4Ej4/CRc+ZKxHB12t/XFzwgCjatQa3tXGTRK1eLYkxMVK0w4WuNXfvey2at8jW0JIIvwUZWltCa1k88cQTFjQciQYZGjpowU3dSR977DGro6EvfHhQoHUuNLTQoSraY0M/fHfddZcFHOG0/bbbbpP+/fvLq6++KnfccYf9kdRte7x2/TDoh0w/sO3atbOAI5y267CU4VkYv0SNjGOrDTUyAAAAAIThuObYOaFrZHh01hDt2fDwww9nKsRQLVq0sNBCkyRVs2ZNCys0IQ2nYYT2kNAQQ+nllStX2mWPpoB60jRJecNF0q7nBRuaYqn0tpWUlGQJprctAAAAAABwZL4JMsaNGyeXXnqp3HPPPdYbI7Nmzpxp4YQO71Cnn366nYcX2dQESEMSLe7p0fV0qEp4MdGvv/7azlu2bGnnOm2rSluwc8yYMbYtLxTRy/o4tCuP55dffrEuTeH3CQAAAAAADs8XQYYe9F988cXSqlUrCzOmTZsmU6dOtZPX00JpzQot2Klj1Hbs2GE1NF588UWbbcTrHaGFQHU4R9++fWXp0qUWVOjUqKtWrZIePXrYOurmm2+W9evXW88PHduly3VYij4G7dWhdCzRNddcY9OratFODURee+01m83Em9pVdenSxcYb9e7d28Zr6WN+4IEHJDY21qaQBQAAAAAAmeOLIGPChAkWTvzwww924K/DRbzTqFGj3Foiw4YNk/r161sBHw0ZevXqZfU0hgwZ4tYIjcEZMWKEzVqigYQWA9IaGlq/IjxUaNKkiQUh2q7rVK1a1QrdfPDBB6lqa2gBz2bNmtksKVrsRwuGanjSoUMHt4ZItWrV7HFqTw2d+aR8+fK2jU8//dQKrwAAAAAAgMzxRbFPrXERPsQjnAYBXhigT2Xjxo120qBA609oCJGRJUuWyM6dO229ggVTZskIp8M/tEKxBhBeT4z0rFixIrnOhoYo6dGhJQsWLLCCoXXq1EkViGSW3sYHb5mhKA4AAAAAv+O45tjJ7vGt72Yt+a8jyDi2CDIAAAAAhOO45tjJ7vGtb4p9AgAAAAAAEGQAAAAAAADfyHGQoTOFjB8/XpKSklwLAAAAAADAsZHjIGPcuHHSrl07m5nj2Weflfj4eLcEAAAAAADg6MpxkNG6dWvJnz+/rFq1yqYeLVeunFxxxRU2ZSq9NAAAAAAAwNGU4yDj4Ycflk2bNsnrr78uDRo0sGlSP/vsM2nbtq3UqFFDnn/+edmyZYtbGwAAAAAAIPuOSrHPQoUKSc+ePWXWrFkybdo06datm/XSWLFihTzwwANStmxZufrqq+XHH3/0zdShAAAAAAAg9zkqQYZH54Bt2rSpDB06NFUvjcTERPn444/lnHPOkZo1a8qLL74oW7dudbcCAAAAAADInKMaZIQL76Xx66+/SoUKFax92bJlcu+991otje7du8uSJUusHQAAAAAA4EiOWZChFi5cKHfffbdcdNFFsm7dOms75ZRTrHZGQkKC9dyoV6+e9dYAAAAAAAA4kqMeZOzdu1fef/99admypdStW1cGDRok27dvtyEmb775pg05Wbx4sfzyyy9y/vnny4EDB+T6669nqAkAAAAAADiioxZkaO+Lu+66ywp73nDDDTJp0iSJjo62y5MnT7YhJj169LAeGVpLo1WrVvLNN99Ix44dLcz46aef3JYAAAAAAADSl+MgY8yYMcm9L15++WXrfVGlShXp37+/bNy4UUaMGCEtWrSw8CItbTvrrLPs8u7du+0cAAAAAAAgIzkOMl599VXrfaGhhPauGDdunBX07NOnjxQrVsytlbGSJUtK7dq1pUiRIq4FAAAAAAAgfTkOMnQoSd++fWXt2rXy5ZdfynnnnSd58mR+s506dbJhKZdccolrAQAAAAAASF+Og4x33nlHnnzySSlfvrxrAQAAAAAAODZyHGSkV/sCAAAAAADgWMhxkPH6669bmNG7d2/Xkr6kpCSpU6eOrbt69WrXCgAAAAAAkHk5DjK++OILO+/WrZudZ0TrZnjrjB492s4BAAAAAACyIkdBRiAQkD/++MNmJ4mNjXWtGTvnnHPsfNasWXYOAAAAAACQFTkKMhITE2X79u1W6DMztTLKlClj51u2bLFzAAAAAACArMhRkBEZGWnn+/bts/Mj2bt3r51TIBQAAAAAAGRHjoIMrXtRtmxZWbJkiaxYscK1Zuy7776zc69nBgAAAAAAQFbkuNhnp06d7Pzpp5+2mhkZ2b17t7z88st2+dprr7VzAAAAAACArMhxkHHjjTfa+bBhw6RLly7WOyPcwYMH5ddff5XWrVvL4sWLpXLlynYZAAAAAAAgqyICh+tGkUnPPfecPPjgg+6aSLVq1aRChQoWYixcuFC2bt1q7QUKFJAffvhBmjVrZteRdVpf5Ci8ZcfFhK5d3SX/aDN8uLsEAAAAILNO5O/+HNccO9k9vs1xjwz1wAMPyJAhQ6RcuXJ2ffny5fLjjz/KL7/8khxiNG3aVCZNmkSIAQAAAAAAsu2oBBnq5ptvlrVr18pPP/0k999/v/To0UNuvfVW6devnyxdulSmTZsmDRo0cGsDAAAAAABk3VEZWoLjh6ElxxZDSwAAAICsY2hJ7sLQEgAAAAAAgFziqAcZmqbs27fvsKfExES3NgAAAAAAQOYdlSBj+/bt8tRTT0nz5s0lMjJSTj755MOetDAoAAAAAABAVuU4yNiwYYPExcXJY489ZgU9KbkBAAAAAACOlRwHGc8++6ysXLlSChQoIP/3f/8nkydPtulXtS2j03XXXeduDQAAAAAAkHk5CjK098WIESPs8hdffCGPP/64tGjRQqpWrSqVK1fO8FSoUCG7DQAAAAAAQFbkKMjQop07d+6UMmXKSJs2bVwrAAAAAADAsZGjICNv3rySP39+iY6OtvlfAQAAAAAAjqUc18jo2LGjrFmzRpYuXepaAAAAAAAAjo0cBxlPP/209cro06ePJCQkuFYAAAAAAICjL8dBhtbJ6N+/v3z//ffSpEkTGTRokPz+++8yY8aMDE9btmxxtwYAAAAAAMi8iIBOPZID7dq1k/Hjx7trmTN48GDp1auXu4as0FokOXzLjpsJXbu6S/7RZvhwdwkAAABAZp3I3/05rjl2snt8m+MeGfny5ZOTTjopS6eoqCh3awAAAAAAgMzLcZAxevRo2bt3b5ZO3bt3d7cGAAAAAADIvBwHGQAAAAAAAMcLQQYAAAAAAPCNoxpk/PXXX/L222/LPffcY8U8p02b5paITc2qs5Vs377dtQAAAAAAAGTNUQkyduzYIZ06dZJSpUrJzTffLAMHDpQ33nhDli5d6tYQ2b17t1SpUkUqVaoke/bsca0AAAAAAACZl+Mg459//pFzzjlHRo4cKQcPHpRWrVpJmzZt3NIUp556qoUdGnr88MMPrhUAAAAAACDzchxkvPfeezJz5kypVauW9cD45ZdfbFhJes477zw7nzp1qp0DAAAAAABkRY6DjNdff93OP/jgA6levbpdzkj9+vXtPHzICQAAAAAAQGblKMhISkqSuXPnSrVq1aRx48auNWMFCxa08127dtk5AAAAAABAVuQ4yFD58+e38yPRehoqOjrazgEAAAAAALIiR0FGVFSUFC1aVJYsWWJFPI9k/Pjxdq4zlwAAAAAAAGRVjmtkXHvttbJ//34ZMmSIa0mfTrn62muv2eXrrrvOzgEAAAAAALIix0FGz5497fyBBx6Q55577pD6F4FAQKZPny7t27eXBQsWSM2aNaVJkyZuaebpdtasWWOzomhdDr2ekW3btslvv/0mixcvdi3pmz9/vkyaNOmwvUl27txp6xzpPrVXit7nX3/95VoOpWHO77//brO8HG5bAAAAAAAgfTkOMurVqyfPPPOM1ct48MEHpUyZMnLffffZshdeeEFq164tTZs2lV9//VVOOeUUGTlypERERNjyzJowYYJUrVrVhqS0bt1aGjRoIDExMclDVcINGDDAlrVr107q1KljAcrWrVvd0pANGzbI2WefbbOo6JSwFStWlLfeesstTfHOO+/YfbZt21YaNWpk97127Vq3NERDkwsvvNCmn9X70vvW553Wp59+KlWqVJFzzz1XmjVrZq/JkYIWAAAAAACQWo6DDKUBxvvvvy+VK1e2gp4rV660du3FoD0VVIsWLSzM0EAgqzR46NSpk/WgOHDggKxatcrCh0suucSCBI8GG3369JEnn3xSdu/eLQsXLpRFixZJ9+7d3Rqhnh2dO3eW9evX2zSw2oPk3nvvlVtuucV6S3i0F0m3bt2sx4n2ylixYoX1trj++utT9aa49dZbZdasWfZcdVv9+/eX+++/X8aMGePWEFm+fLk9/ksvvVS2b99u9631Ra644gpJTEx0awEAAAAAgCOJCB6UH7UxDropPaj/5ptvrBdEnjx5pFSpUnbArlO0Hk3z5s2zHhUffvih1elQej8aOOjQDa/Xx5tvvmlhxObNm6VEiRIWgmjPCO0Zcs0119g6+rj18Z155pkybNgwa9PbjB071taPjIy0ts8++8zuQ8MR7YGhoYQWO3355ZfljjvusHWU9rjQ5+2FGX379pVXXnlF/vzzTznppJOs7eeff5azzjrLhsq0atXK2jJDn9dRfMuOqQldu7pL/tFm+HB3CQAAAEBmncjf/TmuOXaye3x7VHpkePRBNG7c2A7cBw0aJAMHDrTeGkc7xFAJCQl27k39qk9ea1mcfvrpqYau6LAP5fW28M51PY+ur+vp7T26nvYi8UIM5W1La2GoqVOn2nn4ttRFF11k2/Kmp9XL+rp4IYbS8EKH2oTfJwAAAAAAOLyjGmQcLxpaPPvss9bDQutXKC2kqT0etJZGOO0xobwhLnqu4USFChXsukfXW7ZsWXL4oJe150Y4DSL05NW20HVU2vV0W3///Xdy4c/0tqW9VYoUKUKdDAAAAAAAsuCoDi05Xvr162e9Pr799lsr1qk0ODj11FNtCMftt99ubergwYNWj+Kpp56SRx991HqIaG+RvXv3ujVCNBh56KGHbCrZ6OhoCzseeeQRq7cRTkMKrbGh29DColqTQ+txFChQwK0hMnToUKvLobU9ypYta8NMLr/8chk8eLBbI6R69epW9FOHx6QnvGdJuClTp7hLIjEVYqzA6vIVy1PNmKI9VerF1rPhL0uWhkIcT/169eXkk0+WGTNnpKrRUbZMWQt4dHaYP+P/dK1ir0ejho2s/sn8BfNda4gWcy1UsJDMmTtH9u3b51rFQqaVTzwpieXLy8GYsNAoKUnyTZkqgXz5JCGusWsMybt4ieTZtk0SYmMlUKigaxVr02UHg69jYtXUgZBuS+1v0dzOPVErVkpkfLwcqFVTkoL7hSdi5y6Jnj/f2nRZuOgZM6Xtm2/KH3/8IUmBUKClypcrL+XKlZOVq1bKli1bXGso2GpQv4Hs3LXThhuFi60ba/vErNmzknsPqdKlSlt9l3Xr1snGTRtda/DxBvfRuMZxtl/OnTfXtYbUrFHTQq958+dZYOcpVqyYVKtaTTZt2iRr16UuQtu8WXOrJzNz1kzXElK1SlUpXry4BWg7dqbM1lO4UGEbLqVDwlasXOFaQxo3aix58+aVqdNCr7UnN+97VSpXsc/f+g3rXWtwP4rIY583/YzPnjPbtYZUr1bd/n4sWLjAPs8e/bzXqF7DhqatWr3KtYY0iQvNvjR9xnQ791SuVFlKliwpS5cttb9LHu2BVbdOXavrs2x5KAT1NGzQUPIFPxPse+x7HvY99j32Pfa9cOx77Ht+2Pe2zg6919GzZktE8DnuD+4DkjfK2lTk+g0StXatJFaqJAfLlnGtQfsTJN+MGRIIvpYJDeq7xpC8we/teYLf3xMaNZRAcH/2RMZvDn7fX5HjY43iDRtmat/77u2hdu7J7rFGRPAzYccteVL6E0SuXSdR69cHj3OqBo93SrrW4LaCr6G+lknBx3og+JjDRc+ZKxHBz+r+uLjgAVG0aw1ua+MmiVq9WhJjYqRoh9BoApWb970WzVtka2hJRE6DjKuvvlp+/PFHdy1znn/+eemazXFGGiDcfffddvDv1bhQ+qboB0q37c2aorQAZ6FChWwmES3qqcHEE088YX9swoeNaDDy9NNPW/ChAYL+UdJCnmlnINE/fL1797apZjWYuO222+yPnb5hHq2Zcdddd9mHXf9Q6x+yc845J7n+hkf/WOrsKjo7SmbpY/NL9sRYMgAAAOC/gRoZuYtfjmuye3yb46ElmsLpgXxWTho6ZMdrr71mIcLw4JsSHmIoTZx11hRvCIknPj7ezrUwqIqNjbXhI97MKh5dT6eS9XpB6Ho6q0m4HTt2WAASvi2Vdj0d4qLJpaZ7Kr1t6XY0JdapZAEAAAAAQObkOMjQHgs//fRTuiftqTF69Ggb6lG4cGGrE6HXO3bs6G6deTr7iG5nyJAhNrQjPWeccYbdr/aq8OhMIxpOaOFOddppp9n5xIkT7Vxpt5ivvvrKbu/RAp5aiDO8+9ynn35q5y1btrTzJk2aWDedH374wa4rDUn0PnUdLxTRyzqTSniXNx0Wo9sOv08AAAAAAHB4OR5aklnaA0IP6LXXhE45Gj6s40i++OILueyyy2y60ptuusm1hsTFxUmdOnXssoYFOvVpt27drB6GTgXbpUsX6dSpk/Xm8Fx//fUybtw4GTFihNStW9eGlXz00UcyZ84cqVkzNJZJp3HVnhQaumj9jOXLl8sNN9xgU7Tquh4d5qI1MbSXSPPmzS3Y0TodkydPtutKx1vpdjVE0WEn2vtDwxgdcqKBihd4ZEZ2u978G+iCBQAAAPw3MLQkd2FoyVGivTG0RoVOa/rxxx+71sxZtWqVFSXScEELcIafvOlUlU5xqqGH9sqIiYmRq666yoKP/v37uzVCXn/9dVt28cUXW5iggcc333yTHGIonf1k7NixVtRHw5fzzz9fLrnkEnnrrbfcGiEacvTs2dPCEX2M2tNCH4MXYigtQqTBifbI0AKfOvWqhjqjRo3KUogBAAAAAMB/3XHrkaEWLlxoPSCuvfbaDGfqOBp0eIdWQdYqw1qBOSNaSVlPBQsWzDBQ0JdHC4ZqkU89ZUSHp2jtD62SrFOrpke3pY9LKwLrY8sOemQcW/TIAAAAALKOHhm5Cz0yjiINGJQWCD2WNEjQmUoOF2IoDSZ0vcP1itBlus7hQgyl4YSul1GIoXRbGppkN8QAAAAAAOC/7rgGGSNHjrRznZMWAAAAAAAgq3IcZBxp+lWdilRn/9CimP369bPbaPFNAAAAAACArMpxkHH11VdbMcuMTmXKlLHCli+99JKt3759eznvvPPsMgAAAAAAQFYcl6ElWjdCZ+rQMGPMmDFZmnoVAAAAAADAk+MgQ6dSTW9IiXfatm2bzebxyy+/yF133SVRUVHulgAAAAAAAFmT4yCjcOHCUrx48QxPRYsWPeLsIQAAAAAAAJlxXIaWAAAAAAAAHA0EGQAAAAAAwDciAkHucrY8/vjjMnPmTHct+3r37i3nnnuuu4aMRERESA7fsuNmQteu7pJ/tBk+3F0CAAAAkFkn8nd/jmuOnewe3+Y4yGjXrp2MHz/eXcu+YcOGSVcf7iDHG0HGsUWQAQAAAGQdQUbuQpBxBDpryZQpU+SVV16RxMREqVOnjpx99tlSpkwZSUpKksWLF8vEiRMlPj7e2m699VbJmzevu3WKCy64QOrVq+euISMEGccWQQYAAACQdQQZuQtBxhHoFKsNGjSwB/DRRx9Jy5Yt3ZIUGmi89dZbcscdd0j79u1l9OjRtj6yjiDj2CLIAAAAALKOICN3OdGDjBwX++zbt69s2rRJPvzww3RDDJUnTx7p2bOn3HvvvfL111/L2LFj3RIAAAAAAIDMy3GQMXLkSKlVq5a0bt3atWTslltusXMdjgIAAAAAAJBVOQoytCbGzp07JX/+/K7l8AoUKGDnW7dutXMAAAAAAICsyFGQERkZKfny5ZN58+bJunXrXGvGvvvuOzs/5ZRT7BwAAAAAACArchRkaGGOa6+9Vg4cOCA9evSQXbt2uSWHWrp0qTzyyCN2WW8DAAAAAACQVTmetWT58uVSt25dSUhIkHLlysnVV19t06+WKlXKZitZtmyZTb+qtTT2798v9evXl1mzZlkBUGQds5YcW1QuBgAAALKO7/65C7OWHEG1atVk3LhxUqJECdmwYYMMGDBALrroImnWrJm0aNFCbrjhBhkefBE1xGjevLmtS4gBAAAAAACy46gkCmeddZYsXLhQBg0aJG3btpXo6Gi3ROTUU0+VTp06WY+M3377TUqXLu2WAAAAAAAAZM1R6xpRvHhxufPOO2X8+PGyb98+O2ntjL/++ks++OADueaaayQqKsqtDQAAAAAAkHXHZIyHjnPR2UwILgAAAAAAwNF0VIMMLdKxYMEC+eSTT2TEiBGycuVKtwQAAAAAACDnjkqQobOTvPzyy1KnTh2JjY2Vq666Srp06SK///67W0Pkzz//lBo1aljBz4MHD7pWAAAAAACAzMtxkKEhhoYWd911lyxevFgKFiwoMTExbmkKLfKpU69OmzZNJk2a5FoBAAAAAAAyL8dBxldffSXvv/++FCpUyIp6btmyRQYOHOiWptahQwc7D++pAQAAAAAAkFk5DjIGDx5s5xpm6DSrWuQzI02aNLFzraMBAAAAAACQVTkKMrS45w8//CBlypSRCy+80LVmrFixYna+bds2OwcAAAAAAMiKHAUZiYmJViOjZMmSkifPkTel66vIyEg7BwAAAAAAyIocBRl58+aVk046SdasWSMJCQmuNWOTJ0+28xIlStg5AAAAAABAVuS4RoYOKdm+fbsV/TwcHYYyZMgQu3zFFVfYOQAAAAAAQFbkOMjo1auXnffo0UN+/vlnu5zWP//8I3feeadMmDBBihcvLm3btnVLAAAAAAAAMi/HQcbZZ59tPSy0V8ZZZ50lzZs3T+558fnnn0uXLl2kdOnS8uqrr1qbznISFRVllwEAAAAAALIix0GGFvn88MMP5fbbb5eIiAiZNm2afPfdd7bsiy++kBEjRsju3bulQIEC8sEHH8iVV15pywAAAAAAALIqx0GG0qKfr7zyimzatMl6XFxwwQXSrFkzadGihXTs2NECjM2bN0unTp3cLQAAAAAAALIux0HG8OHDbSjJ1q1bpVSpUlYz45tvvpGpU6faLCVffvmlBRj58+d3twAAAAAAAMieHAUZBw4ckBtvvFHuuOMOKVy4sGsFAAAAAAA4NnIUZGjRTq2RUaRIERteAgAAAAAAcCzlKMjQ4p6xsbE2rCQ+Pt61AgAAAAAAHBs5rpFx//33y8GDB6V///6uBQAAAAAA4NjIcZChhTx79+5tQcatt94qc+bMkUAg4JYCAAAAAAAcPTkOMrp06SKff/651ch4/fXXpWHDhlK0aFGpUKGCVKxYMd3T+++/724NAAAAAACQeTkOMrQ2xtq1a20GE8+OHTtk/fr11p7eadeuXW5NAAAAAACAzIsI5HAcyB9//GHFPrOibt26EhMT464hK7TAql+G7kzo2tVd8o82w4e7S4d3Ij83AAAAIKv47p+7+OW7f3aPb3McZOD4Isg4tvhjBgAAAGQd3/1zlxM9yMjS0BLteaE1Lpo0aeJaUluzZo2sWrVKkpKSXAsAAAAAAMDRk6UgQwMKrXGxbt0615Ja/fr1pUqVKrJ7927XAgAAAAAAcPTkuNgnAAAAAADA8UKQAQAAAAAAfIMgAwAAAAAA+AZBBgAAAAAA8A2CDAAAAAAA4BvZCjIOHDggM2fOPOSUmJhoy2fPnp3ucu+0ZcsWWw8AAAAAACArshVk/P333xIXF3fIac+ePba8devW6S73Tp9++qmtBwAAAAAAkBW+GlqiPT4WLlwof/zxh+zbt8+1pvjzzz9tWdrT1q1b3RopEhIS5LPPPpN33nlHFi9e7FoPtXTpUlvnk08+kf3797vW1PRxjR49Wt5++22ZM2eOaz3UmjVrZNiwYTJy5Ej5559/XCsAAAAAAMisiECQu3xEOqREg4ScKleunBQvXtxdy5xzzjlHJk+enBxgaMBQvXp1u+x56aWX5O6773bXUrz77rvSuXNnd01k3rx50qFDBwsTypcvL3PnzpV77rlHXnjhBYmIiHBriTz00EPy/PPPS926dS0kOemkk+Srr76SRo0auTVEVq1aJe3bt5f4+HipUqWKDau58cYbZciQIZInT0pOpNt++OGH7THv2LHDwo+PP/7Yeq9khT6+LLxl/6oJXbu6S/7RZvhwd+nwTuTnBgAAAGQV3/1zF79898/u8W2WemTkzZtXGjRokONTVkMMpeHB4MGD5ZlnnnEt6dNta0ARfurUqZNbKpKUlCTXX3+9lClTRlasWGHBw6hRo+TFF1+UMWPGuLVExo0bJ88++6z1stCgQ9etXLmyXHfddXLw4EG3lki3bt0kMjJSli1bZvU/xo8fbz04hoftONOnT5f777/fHvuCBQtsWy1atLDH5Q3HAQAAAAAAR+aboSUaNGhPh7S9MNLSRCd//vypTlFRUW6p2DASDSb69u0rhQsXtrarrrrKApYPP/zQriu9XKtWLenSpYtdL1iwoDz66KOyaNEiu73SXhg//vijhRQlSpSwtjZt2si5556balsalJQqVcp6i+jj054d//d//ycbN26U3377za0FAAAAAACOxFc1MjJD61i88sor8r///U++/PLLQ+pa/P7773bepEkTO/do+DBp0iR3LbSerhM+1OTss8+2cy980KEuKu22NMzQZd4sLrot7VGiPTc8DRs2lCJFihBkAAAAAACQBSdckKHja7SY5ueffy6XXnqpVK1aNVVdDy24qT00SpYs6VpCtHfG+vXrbeiJWrt2rcTExNhlj95Oe3isXr3arus6Ku16hQoVsiEj27Zts+t6n2nX0YBE19NlAAAAAAAgc7JU7DM30JlGrrjiinSLfW7evFlOPfXU5KEkWrdCi4RqQU+v94QW8Bw4cOAhs55oPQxdpj04oqOjbRtanPPJJ590a4QULVrUCocOGjTItqNFQnfv3i0FChRwa4gMHTpUunfvLhs2bJCyZctK6dKl5bLLLrMaH+H08Tdt2jTVMJRw4b1Bwk2ZOsVdEompEGP1PpavWC5//fWXaxULXOrF1pPt27fLkqVLXGtI/Xr15eSTT5YZM2ck9xpRZcuUlQoVKli48mf8n65V7PVo1LCR1RuZv2C+aw2pXbu2FCpYSObMnZPqNdWhNiufeFISg6/9wZgKrjUoKUnyTZkqgXz5JCGusWsMybt4ieTZtk0SYmMlUKigaxVr02UHS5WSxKpVXGuIbkvtb9Hczj1RK1ZKZHy8HKhVU5KC+4QnYucuiZ4/39p0WbjoGTOl7Ztv2kw3SYFQoKXKlytvBWpXrlopW7Zssbats2dLxN69Ej1rtiQFH+uB4GMOFz1nrkQEX6/9cXHBBxntWkUiN26SqNWrJTEmRg6WL+dagw4kSr7g/QaC70tCo4auMSTvwkWSJ/g+JjSoL4Gw/SzPlq2SN7iPHyxbRhIrVXKtIfl+nyyB4D6c0KypaxEp3rChVK1S1erI6BCrHTt3uCUihQsVtqFUOsPPipUrXGtI40aNrT7O1Gmh19qTm/e9KpWr2Odv/Yb1rjX4ekXksc+bfsZnz5ntWkOqV6tufzsWLFxgn2ePft5rVK9hf1tWrV7lWkOaxIV6Yk2fMd3OPZUrVbagdOmypTZVteeUU06RunXqWsC5bPky1xrSsEFDyRf8TGRm31M6PK1B/Qayc9dOG+4WLrZurP09mjV7ls3O5CldqrRUrFhR1q1bJxs3bXStoYA2rnGc7A3uz3PnhYbNeWrWqGk9x+bNn5eqnk+xYsWkWtVqsmnTJlm7LhToepo3a26FoWfOmulaQtj32PfY99j3wrHvse+x7514+55+P1b6/Vi/J+8P7gOSN2WIf+T6DRK1dq19b9Xvr8n2J0i+GTPse65+3w2XN/i9PU/w+7t+P9bvyZ7I+M3B7/srcnysod+PM7Pvfff2UDv3ZPdYIyL4mbDjlrBJISLXrpOo9euDxzlVg8c7KT+25/RYo2iHC11r7t73WjRvka1inxEnUpCRHg0cevfubX9INNDo16+fPPLII8mBhUfrXzz33HP2R0gDBO2hcdNNN1lYEU5vc++999p23nrrLbnlllvszdWwwuPdp36wdTvaK+T000+X9957z60RoiGHzp6i28ksfWx+ecuoXJy7ZPa5AQAAAFnFd//cxS/f/bN7fHvCDS1JywsYdu3aZefe1KnaWyOcptJxcXHJvSB0PU2SwukUrJo8eTUxvG2lXU+HnuhUrF4x0fS2pWm3JlJp62sAAAAAAICMnVBBRtokR69/8skn1l1Ip05VOu2pFt386quv7LrSkEOvn3nmma5FpFWrVvLrr78m17lQH3zwgQUdZ5xxhl3Xgp3anSx8W9qj4+OPP5bWrVu7FrHLs2bNSq6poT799FMLRcLvEwAAAAAAHJ5vgox33nnHhoRomKAGDBhg17/55hu7rtq3b29DPnT4yfvvvy+XXHKJXX7wwQdtfJvSUEPrWjz11FPy0ksvyffffy8XXXSRjQnT6VE9d9xxh40r1KEf48aNk9dee00ef/xxueuuu2wqVaW30WlUdZYUvd+JEydaLQwdUqL1Njw6bawOa9H70cerz0Ufw3XXXWdjhQAAAAAAQOb4JsjQmUemTp0qO3futKlSdWiIXtchIZ7Y2FjrgXHrrbdaHQvt8TBq1Ci577773BohTz/9tDz//PNWfPP666+3giQ69aoWsvFo4SCdGlUDiC5duljdC+924TSQePPNNy1g6dSpk/UC0duF1+/QgkM///yzDTG5+eabLUTp06ePDBkyxK0BAAAAAAAyw3fFPv/rKPZ5bFHwBwAAAMg6vvvnLhT7BAAAAAAAyCUIMgAAAAAAgG8QZAAAAAAAAN8gyAAAAAAAAL5BkAEAAAAAAHyDIAMAAAAAAPgGQQYAAAAAAPANggwAAAAAAOAbBBkAAAAAAMA3CDIAAAAAAIBvEGQAAAAAAADfIMgAAAAAAAC+QZABAAAAAAB8gyADAAAAAAD4BkEGAAAAAADwDYIMAAAAAADgGwQZAAAAAADANwgyAAAAAACAbxBkAAAAAAAA3yDIAAAAAAAAvkGQAQAAAAAAfIMgAwAAAAAA+AZBBgAAAAAA8A2CDAAAAAAA4BsEGQAAAAAAwDcIMgAAAAAAgG8QZAAAAAAAAN8gyAAAAAAAAL5BkAEAAAAAAHyDIAMAAAAAAPgGQQYAAAAAAPANggwAAAAAAOAbBBkAAAAAAMA3CDIAAAAAAIBvEGQAAAAAAADfIMgAAAAAAAC+QZABAAAAAAB8gyADAAAAAAD4BkEGAAAAAADwDYIMAAAAAADgGwQZAAAAAADANwgyAAAAAACAbxBkAAAAAAAA3yDIAAAAAAAAvkGQAQAAAAAAfIMgAwAAAAAA+AZBBgAAAAAA8A2CDAAAAAAA4BsEGQAAAAAAwDcIMgAAAAAAgG8QZAAAAAAAAN8gyAAAAAAAAL5BkAEAAAAAAHyDIAMAAAAAAPgGQQYAAAAAAPAN3wQZgUBAVq9eLV988YV88MEHsnPnTrcktaSkJPn888/l/vvvl+eff17++usvtyS1+Ph4eeaZZ+SBBx6Qb775xraflrZ99913ts7TTz8tmzZtcktS+/vvv6V///52n59++qk9hvT88ssv8uCDD8oTTzxhzwUAAAAAAGSNb4KMmJgYqVy5slx22WVy/fXXWxCRVkJCgrRp00auu+46Wbt2rYwYMcJuM3nyZLdGyIQJE6x91KhRFijoNjt27CgHDx50a4QCkcsvv1wuuugiWblypYUjVapUsWAj3PTp06VSpUoydOhQWbdunXTp0kXOOuss2bdvn1sjFIh0797d2pcsWSLjx4+X6tWry8iRI90aAAAAAAAgM3wTZDz66KMyadIkeffdd13LoV5//XX5+eefZcqUKRZSzJo1S5o1ayY33XRTco+LxMREu37uuefKzJkz5aOPPpJff/1VxowZY8GHR0MG7f2hoccnn3wif/zxh4Uaetv9+/fbOrrNbt26Sb169WTu3Ll2mxkzZtj9v/LKK7aO+v777y3o0O3oNn/77Te5+eabpWfPnrJ9+3a3FgAAAAAAOBLfBBm33HKLnH766VKgQAHXcqivvvpKzjvvPGnQoIFdz5s3r9x9992yePFiWbZsmbXNmTPHek706dNHIiMjrU3DjlatWsmXX35p15VuKy4uTlq3bm3X8+TJY7fR4SUaVijt9aEBxl133SXR0dHWVqtWLenQocMh26pYsaL1/FARERG2LR0eo8ELAAAAAADInBOm2KcOC5k6dWpyiOFp0aKFnf/+++92rr0lVNr1TjvttOR1lK6Xdh0NPJT2DFEZbUsDF+3B4fXc0KEtuo4GGJ5q1apJ8eLFk7cFAAAAAACOLCLgjbnwic8++0yuuOIKWbp0qdWZ8GjvhsKFC8ugQYPkzjvvdK1iYcJJJ50k/fr1k4ceekgeeeQRK8zphQye//3vf9K3b18beqI9NbSHhRbv1PZwBQsWtHoXAwYMsPvq3bu33be2e9544w3p1auX/Pnnn1KqVCkpW7asXHzxxdYeTut0tGzZUt577z3Xklp48BFuytRQgKJiKsRImTJlZPmK5akKm+bPn1/qxdazoStLli5xrSH169WXk08+WWbMnGHP11O2TFmpUKGCrFmzRv6M/9O1ir0WjRo2kn/++UfmL5jvWkNq164thQoWkjlz56SqC1KiRAlZ+cSTkli+vByMqeBag5KSJN+UqRLIl08S4hq7xpC8i5dInm3bJCE2VgKFUl5PbdNlB4OvZWLVKq41RLel9rdobueeqBUrJTI+Xg7UqilJp57qWoOv6c5dEj1/vrXpsnDRM2ZK2zfftBAqKZBSsLV8ufJSrlw5WblqpWzZssXats6eLRF790r0rNmSFHysB4KPOVz0nLkSEXy99sfFBR9kqLeOity4SaJWr5bEmBg5WL6caw06kCj5gvcbCL4vCY0ausaQvAsXSZ7g+5jQoL4Ewnok5dmyVfIuWyYHy5aRxEqVXGtIvt8nSyAqShKaNXUtIsUbNpSqVapagKa9lHbs3OGWiBQuVNh6E23dulVWrFzhWkMaN2psvZumTgu91p7cvO9VqVxFNmzYIOs3rHetwdcrIo80bdrUPvuz58x2rSHVq1WXU4P7xIKFC2T37t2uVaRo0aJSo3oN2bx5s6xavcq1hjSJa2Ln02dMt3NP5UqVpWTJkrJ02VIrBOw55ZRTpG6durItuD8vWx7qIeZp2KCh5At+JjKz7yn9m9agfgPZuWunLFq0yLWGxNaNtZ5rs2bPsrpBntKlSlvPMO2RtnHTRtca/KwE95O4xnGyN7g/z50317WG1KxRU4oUKSLz5s+TPXv2uFaRYsWKSbWq1ayH2tp1a11rSPNmzeXAgQMyc9ZM1xLCvse+x77HvheOfY99j33vxNv39Pux0u/H+j15f3AfkLxR1qYi12+QqLVr7Xurfn9Ntj9B8s2YYd9z9ftuuLzB7+15gt/f9fuxfk/2RMZvDn7fX5HjYw39fpyZfe+7t4fauSe7xxoRwc+EHbfkSelPELl2nUStXx88zqkaPN4p6VqD2wq+hjk51ija4ULXmrv3vRbNW6Q78caRRJwoQYZ+iHQn1NoUt99+u2sNHh8GX2D9w6yBhIYYDz/8sIUQ4X+Elc5gosv0j5B+iPXN1utPPvmkWyNE3+SuXbvKSy+9JAMHDpR77rnH/giHD3kZMmSI9OjRQzZu3Ggf/NKlS9uwksGDB7s1QrRXRvPmzW0WlszScMMvb9mE4OvkN22GD3eXDu9Efm4AAABAVvHdP3fxy3f/7B7fnjBDSzRI0J4UmryG01RZaQDhnWs6HJ42qV27dllqrSGG0t4dabelL7CGFrpMeedp1/PSZa+XRnrbUrqe97gAAAAAAMCRnTBBhgYQDRs2lAULFriWEJ3uVGnPB6Xd3JR2dwmn63nrKF1v4cKF7lrIqlWrrBaHV3fD21ba9XTbdevWtW5tSmtrpF1Hu2ZptzVvWwAAAAAA4MhOmCBD6ZSq3377barxWzrtqY7D8wpyaqigY7rC61JoLYuvv/5a2rRp41rELuu0rDoziUeHjOg4OS0MqurUqWPj8t5//327rrRexscff3zItubNm2cnjzfVqzcrCgAAAAAAODLfBBlPPPGE1cZ44YUX7LrWwdDrw4YNs+vqvvvus+EcWkDztddek27dulmQoTUxvCEjOgRF62FojYuePXvKq6++auuXL19e7rjjDltHabFOLcZ55plnyssvv2zLnnvuOau14Q0H0aEsuh0NMjp37mw1MHRbWkBIC4t6OnXqJE2aNJG2bdvaY9Eiog888IDce++9EhMT49YCAAAAAABH4psgQwt56gwgcXFxcuutt1qhTL0ePluIVkidNWuWXHjhhfLRRx9ZXYqff/5ZunTp4tYI0VBi3LhxVmFZe09cffXVMn36dClUqJBbIxR46HSuN9xwgxUYXb16tYwdO9aKe4a79tprreeG1rsYNWqU9b6YM2eOPTaPhig//vijzXAyevRomTt3rowcOdICFQAAAAAAkHm+m7Xkv45ZS44tKhcDAAAAWcd3/9yFWUsAAAAAAAByCYIMAAAAAADgGwQZAAAAAADANwgyAAAAAACAb1Ds02co9nls/dcL/lDICAAAANnBd//chWKfAAAAAAAAuQRBBgAAAAAA8A2CDAAAAAAA4BsEGQAAAAAAwDcIMgAAAAAAgG8QZAAAAAAAAN8gyAAAAAAAAL5BkAEAAAAAAHyDIAMAAAAAAPgGQQYAAAAAAPANggwAAAAAAOAbBBkAAAAAAMA3CDIAAAAAAIBvEGQAAAAAAADfIMgAAAAAAAC+QZABAAAAAAB8gyADAAAAAAD4BkEGAAAAAADwDYIMAAAAAADgGwQZAAAAAADANwgyAAAAAACAbxBkAAAAAAAA3yDIAAAAAAAAvkGQAQAAAAAAfIMgAwAAAAAA+AZBBgAAAAAA8A2CDAAAAAAA4BsEGQAAAAAAwDcIMgAAAAAAgG8QZAAAAAAAAN8gyAAAAAAAAL5BkAEAAAAAAHyDIAMAAAAAAPgGQQYAAAAAAPANggwAAAAAAOAbBBkAAAAAAMA3CDIAAAAAAIBvEGQAAAAAAADfiAgEucvwgYiICPHLWzaha1d3yT/aDB/uLh3eifrcTuT3DAAA4N/G9+Pchef278vu8S09MgAAAAAAgG8QZAAAAAAAAN8gyAAAAAAAAL5BkAEAAAAAAHyDIAMAAAAAAPgGQQYAAAAAAPANggwAAAAAAOAbBBkAAAAAAMA3CDIAAAAAAIBvEGQAAAAAAADfIMgAAAAAAAC+cUIFGb///rv07dv3kNPs2bPdGimmT58uXbp0kUsuuUQGDBgge/fudUtS7Nu3TwYNGmTrdO7cWaZNm+aWpLZgwQK5+eabpWPHjvL000/Lrl273JIUBw4ckCFDhsill14qnTp1kp9//tktAQAAAAAAmXVCBRlTp06VZ599ViZNmpTqtGXLFrdGyIgRI6Rp06byzz//SP369eW5556TFi1apAoz9u/fL2eccYY89dRTEhsbKwkJCdK8eXN5++233RohX3/9tS3fsGGDNG7cWN566y1p0KCBbN++3a0hkpSUJO3bt5c+ffpIzZo1JV++fHLWWWfZ/QIAAAAAgMw74YaWFC1aVH744YdUp7Zt27qloV4WvXv3lu7du8unn34qTz75pAUg2qvi9ddfd2uJDB06VGbNmmVByP/+9z8ZNWqU3HHHHXL33XfL7t27bZ1AICC33Xab9dgYO3asPP7449bTY/PmzalCik8++cQex/jx4y1oGTZsmN2v9hb5888/3VoAAAAAAOBI/nM1MjRo+Pvvv6Vbt26uRaRSpUrSrl07+e6771yLyLhx46Rly5bWg8LTq1cvGzaiwYdaunSprF271rYVERFhbSVKlJArrrjCbu/Ry7Vq1bJeHx4dipKYmMgQEwAAAAAAsuCECzJ27txpPTB06MiNN94okydPdktCvBCibt26du6pV6+eTJkyxV0LradDRsJpGJEnT57k9bxtpV1Ph6toXY49e/bY9fS2VaZMGQs9tK4HAAAAAADInIiAjo84QWgxzYkTJ0rDhg2txsVnn30m8+bNk/fee0+uv/56W+fhhx+24p46xCScFul89NFHrShnVFSUnXRdHQISrnDhwnLTTTfJwIED5aWXXrKhJtpL45RTTnFriNXJuOWWW2Tjxo0WWOhJh5+ED11RVatWldNOO03ef/9915Ka18sjrSlTUwKXmAoxtv3lK5bLX3/95VpF8ufPL/Vi61mtjiVLl7jWkPr16svJJ58sM2bOsF4hnrJlykqFChVkzZo18md8ypCX6OhoadSwkdUUmb9gvmsNqV27thQqWEjmzJ2T6jXVkGblE09KYvnycjCmgmsNSkqSfFOmSiBfPkmIa+waQ/IuXiJ5tm2ThNhYCRQq6FrF2nTZwVKlJLFqFdcaottS+1s0t3NP1IqVEhkfLwdq1ZSkU091rcHXdOcuiZ4/39p0WbjoGTOl7Ztvyh9//CFJgSTXKlK+XHkpV66crFy1MrneytbZsyVi716JnjVbkoKP9UCaoCp6zlyJCL5e++Pigg8y2rWKRG7cJFGrV0tiTIwcLF/OtQYdSJR8wfsNBN+XhEYNXWNI3oWLJE/wfUxoUF8CBQq41uDrsmWr5F22TA6WLSOJlSq51pB8v0+WQHAfTmjW1LWIFA9+LqpWqSrFixeXxYsXy46dO9yS4H5dqLAFdePuu08Sq1dzrSHR0/6QiOB+sv/001xLiD4PfT4HqleXpBLFXWvwNQ4+b33+SUWKyIE6tV1riL5e+rrtbxp8XHmjXGvwdVm/QaLWrrXnoc8n2f4EyTdjhj1vff7h8gbfxzzB97PEPXcfsu9VqVzF6tas37DetQZfr4g8FnDq34bZc1IXAK5erbqcGtwnFixckDx0TOlQtRrVa9hwsVWrV7nWkCZxTex8+ozpdu6pXKmylCxZUpYuW2q9vzz6N6JunbqyLbg/L1u+zLWGNGzQ0GrnZGbfUyeddJI0qN9Adu7aKYsWLXKtIbF1Y6VA8PWaNXuW1fbxlC5VWipWrCjr1q2TjZs2utbg+xjcT+Iax1mNoLnz5rrWkJo1akqR4Ps4b/685GBWFStWTKpVrSabNm2StevWutaQ5s2a29/RmbNmupaQI+17W7dulRUrV7jWkMaNGkvevHll6rTQ59yTm//use+x77Hvse952PfY99Lb9/5++ZVj+n1PRS1bLpHB56Dfw/T7mEe3r/dzMPi+ZeX7Xrt+z2Rq39Pvx+pYfN/T10tfN09k/Obg9/0VOT7W0O/Hmdn3vnt7qJ17snusERH8TNhxS56U/gSRa9dJ1Pr1weOcqsHjnZKuNbit4GuYk2ONoh0udK25++9ei+YtrGRDVkWcSEFGWvpH+9xzz5WVK1fKaj3oiozMMMjQOhhas8ILMvQ/kYceeuiQIKNQoUI2LES3kVGQ8WbwYLhnz572ppcuXTrDIKNKlSpWUFSDlszScMMvb9mErl3dJf9oM3y4u3R4J+pzO5HfMwAAgH8b349zF57bvy+7x7cndI0MDSQ0dFi/fr0sX77c2jQ51nRYh6CE0zBCe1vobZQmSfHx8XbZoy+wJse6DaXrqLTr6To6BEW3p9LbltL1vG0AAAAAAIAjO+GLfXpTqnoBhQ7lUDrkJNzMmTOTlyktzJl2nblz51qY4a3nFe9Mu96MGTNsKlbtzqfS25Z2NdNua9ojAwAAAAAAZM4JFWToUI5wOmbr5ZdftnF9OoxDNWrUyHpUDB48OLkLi45309oaHTp0sOvqggsusEKhOgWr0nV1Wzqmr1mzZtamNS6qVatmQ0aSkkJj7DSg+OKLLw7ZlvYImTBhgmsRefXVVy3oaN26tWsBAAAAAABHckIFGXFxcdK8eXPp3LmzXHnllVK5cmUrZPTaa68lF87U4j5vvPGGjBo1yupn3H777Xab008/Xbp3727rqK5du1rI0KpVK7n11lttetbhw4dbaKHFbZRuUwt7/vjjj9az4s4777SeGNWrV5c+ffrYOkrrY+jpwgsvlB49ekjHjh3l+eeflxdffDF5mAoAAAAAADiyEyrIGDZsmLRv397CCq0++8wzz8iyZcvk7LPPdmuEXHbZZbJkyRLrnaH1MrR3xE8//WTVmj1a7FN7aWjooQVAdXpW7blx1VVXuTVCdNsrVqyw0EOHsejsJ9OnT09V/FMDj88//1xGjhxp1ytVqiRz5syRXr162XUAAAAAAJA5J/SsJSciZi05tv7rlYupyAwAAHDs8P04d+G5/fuYtQQAAAAAAJzwCDIAAAAAAIBvEGQAAAAAAADfIMgAAAAAAAC+QZABAAAAAAB8gyADAAAAAAD4BkEGAAAAAADwDYIMAAAAAADgGwQZAAAAAADANwgyAAAAAACAbxBkAAAAAAAA3yDIAAAAAAAAvkGQAQAAAAAAfIMgAwAAAAAA+AZBBgAAAAAA8A2CDAAAAAAA4BsEGQAAAAAAwDcIMgAAAAAAgG8QZAAAAAAAAN8gyAAAAAAAAL5BkAEAAAAAAHyDIAMAAAAAAPgGQQYAAAAAAPANggwAAAAAAOAbBBkAAAAAAMA3IgJB7jJ8ICIiQvzylk3o2tVd8o82w4e7S4d3oj433rPcJbPPDQAA+APftXIXntu/L7vHt/TIAAAAAAAAvkGQAQAAAAAAfIMgAwAAAAAA+AZBBgAAAAAA8A2CDAAAAAAA4BsEGQAAAAAAwDcIMgAAAAAAgG8QZAAAAAAAAN8gyAAAAAAAAL5BkAEAAAAAAHyDIAMAAAAAAPgGQQYAAAAAAPANggwAAAAAAOAbBBkAAAAAAMA3CDIAAAAAAIBvEGQAAAAAAADfIMgAAAAAAAC+QZABAAAAAAB8gyADAAAAAAD4BkEGAAAAAADwDYIMAAAAAADgGxGBIHcZPhARESF+ecsmdO3qLvlHm+HD3aXDO1GfG+9Z7pLZ5wYAwImE7yO5C8+N75HHUnaPb+mRAQAAAAAAfIMgAwAAAAAA+AZBBgAAAAAA8A2CDAAAAAAA4BsEGQAAAAAAwDcIMgAAAAAAgG8QZAAAAAAAAN8gyDhOtm7dKn369JE6depIXFycvPXWW5KYmOiWAgAAAACAzIgIBLnLOEb27dsnjRs3tvO+fftKfHy8PPXUU3LjjTfKq6++6tbKnIiICPHLWzaha1d3yT/aDB/uLh3eifrceM9yF54bAOC/iP+zcxeeG9+1jqXsHt/SI+M4ePfdd2Xx4sUybtw4Cy8efPBBeeGFF+S1116TVatWubUAAAAAAMCREGQcBz/++KM0bNhQqlev7lpEOnXqJJGRkfLzzz+7FgAAAAAAcCQMLTkOqlWrJs2bN5cPPvjAtYSUKlVKLr/8chk8eLBrOTKGlhxb//XuZbxnuQvPDQBwOH77+8//azy33Ibn9u/L7vEtQcZxoIHFFVdcYUNJwlWtWlVOP/10ee+991xLavqmAgAAAABwoiLIyKXKlCkjl1xyibz++uuuJaRixYpy1llnWQ0NZJ6feqUghPfMn3jf/In3zX94z/yJ981/eM/8iffNf47He0aNjOOgbNmysn79enctxa5du2wZAAAAAADIHIKM40CHj8yePTtVKrVgwQL5+++/pWXLlq4FAAAAAAAcCUHGcaAFPbVHhjeE5ODBg/Lss89KsWLF5Mwzz7Q2AAAAAABwZNTIOE7uu+8+6d+/v7Ru3Vq2bNkia9eulZEjR0qHDh3cGsgsxsn5D++ZP/G++RPvm//wnvkT75v/8J75E++b/xyP94wg4ziaO3euTJgwQU4++WS56qqrrEcGAAAAAADIPIIMAAAAAADgG9TIAAAAAAAAvkGQAQAAAAAAfIMgAwAAAAAA+AY1MuAbK1eulJdfflk2b94szZo1k1tuucUKpyJ32rlzp3z99dfy22+/ybZt26RixYpyzTXXSKNGjdwayO3++usvGTp0qBQpUsQ+b8jd9uzZI8OGDZPJkydLVFSUfdZuuukmKViwoFsDuY0WAdcZzFatWiVFixaVCy+80E5a7R3/vsTERFm0aJFMnz7dvnuce+650qRJE7c0hX6V/vbbb+Wjjz6y9+66666TNm3a8D7+S/7++2+ZOXOmfb4SEhLk/vvvP+S9WL58uYwZM0Zmz55t73Pz5s3l2muvlRIlSrg1cDwlJSXJihUr7LOmMzvq/1/nnXeeW5q+SZMm2XfM0047Tc4880zXiuPpn3/+sc/QrFmz7HK3bt2kePHibmlq+v/c66+/LuvWrbMJL/T9vfjii93SbNIgA8jtJkyYEIiMjAy0bNkycO+99wZKly4dqFWrVmDHjh1uDeQ2HTt2DOTPnz/QoUOHQPBgKtCgQQMNTQPBA2O3BnK74Jdxe8+qVKniWpBbLV682P4uBr9ABLp06RK44YYbAlWrVg0Ev1y4NZDbjB07NpAnT55AixYt7P+1q666yj5vd999t1sD/7Yrr7zS3pPo6Gg7HzRokFuSWq9evey9vPHGGwNdu3YNBA+aA/fcc49biuMpPj7e3qvw9y14kOyWhuzbt8/aY2Ji7P85/XtZtGjRQKlSpQLLly93a+F46tu3r70n+l1fPz/6mTqcrVu3BkqWLGm3eeihh1wrjjf93IR/1hYuXOiWpPb666/b38jGjRsHbr75ZjtGaNq0qVuafQQZyPX0PyD9Qt6+ffvk/4w2btxoB8mPPvqoXUfu8/333wd27drlrgUCiYmJFmoUK1bMvkQgdxszZowdGF922WUEGbmcfrbq1q0baNWqVWDPnj2uNfS3MyEhwV1DbqPvl36p0/fP88ADDwSioqIC27Ztcy34N/3222+BuXPnBrZv325f0tMLMqZPn27Lhg8f7loCgSFDhlib3hbH1z///BP4+uuvA5s2bQo8++yz9j6kDTIOHDgQ+Oabb1K1r1692g7KunXr5lpwPM2ePTswbdq0wN69ewPlypU7YpBx/fXXW3CoxwIEGf8e/a64atWqwBdffJFhkDFjxgwLMfr375/qM3c0vp9QIwO5nnY101PPnj2TuwaWKVNGggdY1pUTuZN2qz3llFPcNZHIyEjrQqbDFbZu3epakRvt2LHDhpIMHjzYhpUgd5syZYosWLBAnnvuuVTD7fTvZd68ed015Dba/b169er2t9FTt25d6+auw4Tw7zvjjDOkXr16NlQrI999950ED6ZsOIlHL+uQrnHjxrkWHC/6XujwrNKlS7uWQ+n7ecEFF6QabqLDX3U4gw4lwvHXoEEDadq0qZx00kmuJWNjx46V8ePHS/DA2LXg39KhQwepVKnSYYfR6ZDX8uXLyz333JNqvaPx/YQgA7ne1KlT7Tw2NtbOPfofjo7J4guff/zxxx9y6qmnSsmSJV0LcqN7773XxgtfeumlrgW52TfffCOFCxe2L4B6AHXWWWfJHXfcIUuWLHFrIDfSmkETJkyQhQsX2nUNEN9++21p2bKlhfXwBw0Sa9eunSrs0ECxVq1aNoYf/rB3716ZN2+e1KlTx7UgN9K/kz169JBXX33Vvk8i99PgSethfPDBB9K+fXtp27atDBw4UHbv3u3WyD6CDOR63q/3aQ9+9df+pKQk+6OG3O+XX36xL+mPPvoovxLnYnpg9cknn9iXBPiDFs5SZ599tn2x055P+nmLi4uzL+bInR5++GErxlq/fn0rMOgVGfzqq68kTx6+nvmFfkdJL5zX7yjaAxH+8MADD1ixQi0Mitzrvvvuk8aNG8sVV1zhWpDb6XcUDTMeeeQRad26tfW8+b//+z9p166d9UDMCf6nhG953ZMCTLyT62lFYz246tSpk/Tu3du1IrfRdPzmm2+W559/XsqWLetakdt5ge5TTz0lr7zyinXf1EruOiyIrre5l/46NWDAAOsBpbMDDRo0yIYI3XXXXfy/dgLQ7yi8j/6g/+e99tpr9pnU4V7InSZOnCijRo2yYa+HG8qA3EW/o+jshT///LM89NBD0q9fP/vB7Pfff5fvv//erZU9BBnI9XSKHrVlyxY79+zatcv+kDGGP3fTX4R1yjrtSqbj5PjPJ/fS6Y11qJaO7dZpBPWk0x7rZ00vL1u2zK2J3MT7G6ljVT36HuoQE+2ZgdxHp4TUOjQ6BOjZZ5+Vjh07Sq9evexA6v3335cff/zRrYncTj9/ab+fKP276X02kXtpgPjggw/a5+6SSy5xrciN7r77but5qEO2vO8oBw4csOF5enn//v1uTeQm+ndQywNoLQ2PHhPocDwNN3KCIAO5no7VV/Pnz7dzz5w5c6Rhw4ZW2Am5k/7ncs4550irVq3kww8/PGzBNPz7Dh48aMN+9Bdi/VVfTzr+W7tO62XGe+dOWpBQpf31V38FCS8kidxDf53S0LBmzZquJcS7vmbNGjtH7teiRQsrEKl/Pz379u2zGjWnn366a0FupL0wtJeo/shy7bXXulbkVtHR0TJ9+vTk7yd60iBDh8TqZR0ahNxH/w6m/X6i1/WU0+8oBBnI9apVq2Yp3pAhQ5I/CJs3b5bPPvvMisYgd9IvcZqc61g4Tcqpi5H79e3bVzZs2JDqpMOBKleubJe7du3q1kRuop8zLfSpXTU9eqCs3XD5G5k76S9UxYsXt54X4V/w9D1TFBz0Dy1ipwdQ2uXdo5d37txpY8CRO7355pty++23y1tvvSVdunRxrcjNNMRI+x1Ff8y888477TLFP3MnnUVo7ty5snjxYtciMnr0aAt/zz//fNeSPRHB/0AZwIdcT6dZ0p1du0prD40RI0ZYVXD9o6bV+pH7aE8M/ZKuvWbSTqel7x/jUP2hW7du8tNPP9kUyMi99JdF/TJ39dVX2zSCXjfbyZMnS0xMjFsLuYkW1NWhJTpVdbNmzWTjxo32t1GnhdQveQzD+/fpUB99n/QLt866pZ8tnVFGP1P6GfN0797dftXXGkP6tVoLW9966602XA/Hnw4RiY+Pt4NbLTSo3xv189SnTx8rEqnLdHpWPQjWYrvh9D0OD6VwfGhdJy3kqfS7vYYSVapUsev6/1hGChQoYHWFtO4Cjj997adNm2Y/nixdutQ+T/q50s+Zft6UFvTUoSTas/6GG26wemzvvfeeXHTRRfZ3NCf/1xFkwDd0fL5+KdAq4E2aNJGePXsyrCQX0/Gm69evd9dSu/HGG6VUqVLuGnIzrTS9du1a+7whd5s5c6b9uqiFP3XGEv2V0ZsJA7mTFjvT3oX6t7JQoUL2675Oe8wwvNxBp39Pr16JHmTpFJAe/Sr99ddfy8cff2wzzugwBe2NQRj179BikNojJi09mNK/jVq/RMPf9GhvKQ2mcHzpd3z9W5gerWGSkRdffNGOCXQ2DBx/GkSsWrXKXUuhM8vo/2ceDTM0IPz222+th7aGGFobKqf/1xFkAAAAAAAA36BGBgAAAAAA8A2CDAAAAAAA4BsEGQAAAAAAwDcIMgAAAAAAgG8QZAAAAAAAAN8gyAAAAAAAAL5BkAEAAAAAAHwjIhDkLgMAABwT27dvlwkTJsjmzZtFv3pUqlRJLrzwQrf037Ny5Ur59ttvpUiRInLddde51pybP3++/Pzzz1KmTBm57LLLXOu/KyIiws79+tVv9+7d8u6779rl7t27S3R0tF3OqXXr1sno0aOlQIEC0rVrV9cKAMjNCDIAAL6lB8W33XabJCUl2fV33nlHChcubJczSw+wu3Xr5q6JdOjQQW688UZ3LX2PP/64HaiqQoUKybBhw+xyOP3vdfz48fLpp5/KuHHjJD4+3tr0gLlGjRrSpEkTadeunbRt21aioqLcrUQ2bdokt99+u7uWWt68eaV8+fJ2mzPPPFNOPvlktyR3e/HFF+WBBx6QgwcPuhaxEOPrr7921/49X3zxhQUN+p4sWbLEtebcm2++KT179pSWLVvKr7/+6lr/XX4PMtavXy8VKlSwyzt37pSCBQva5Zz6/vvv5bzzzpOyZcvKhg0bXGvm6GuZkJBgl/XzmScPnZ0B4HggyAAA+NZVV10ln3zyibsmFhaULFnSXcscvU3p0qXdNZGKFSvar/QZHZBs2bLFfmX3DsqLFSsmW7dutcueAwcOWDjy3nvvuRaxX4/1QOeff/5xLSH6a7CGE57ly5dL9erV3bWM6W0+++wzadasmWvJnRYvXiy1a9e2y7169ZKGDRtacKMHpBrI/NsIMvwjtwYZ3t+KRYsWSa1atewyAODYIjYGAPjS559/biFGeAiQU9q1fM2aNfLLL7+4lkN9+OGHFmKccsopruVQAwYMSA4x7r77bpk3b57s3bvXusbrSYcc3HvvvVKiRAlbJyO6He3VoSft1aHBRe/eve1x6kGd9mrQ7eZm2mVfXXDBBTJ48GDp0aOH3HTTTbkixFDNmze3fenVV191LUeHHhjrdp9++mnXgpzS0FBfUz2ddNJJrhUA8F9EkAEA8J1t27bZr/s6TOOZZ55xrTmnPTxUekNFPDp8RXnrpqW9MV5++WW7rL/IaxgRGxub/KuthhA6LOSFF16QtWvXHrYHSdOmTe2AX096YKw9BwYOHChjx4615doTRIOV3EyDIRUTE2PnuY3+Cn/ppZce9WClcuXKtl19r3F06FAqfU31pL2bAAD/XQwtAQD4TufOna3Hg4YK2iNDD/JVToeWaK+Hiy++WCIjI609ba+LWbNmSePGjW0Ywn333WcFB9MOLdEDdy1kqX744Qc5++yz7XJmhQ8t0SEJOjQhPXofel/333+/PPfcc641hfbY0J4c06dPl3379tlBYJUqVezxn3HGGdkqlKg9UTRE0a74e/bssfogF110kZx11lnJwxY8M2bMsG762gtDX9fzzz/fgh1PmzZtJH/+/O7akWlPlpEjR8rs2bOtJoG+z9dff33ysJW09D35/fffJV++fFaLRIf0jBo1SubMmWOPXeug6OugNUn++OMPe6/POeccd+vU/v77bxk6dKgsW7bMthcXFyfXXHONXR4zZoyto+9z+FCH1atXy9y5c+XUU0895D3UHjk7duyw90L33wULFlggpTVfdBsakmlPkbSvqWfXrl3y22+/2WusQ5O0Rozuw5dffrk0aNAgw9tlZ2hJly5dZMSIEba/P//886415OOPP5arr77aLmswp72Mwr322mtW76V169by008/udYU+ji0XWul6Ouh+6juF9rTKLxujEd7H+m+p7SHT3rr7N+/Xz744AN7T5V+lvQ56OfUe90bNWqUPERFpR1aotv46KOPbBt6uW7duvY3p2jRou4WIfr+rlq1Si655BK7rs83vIeYDlPT98PjFbzV907fQw1j9HHUr1/fXiP9PAEAMkmDDAAA/OKbb77Ro7BA8MAxEDyACwQP1u26nuLj491amffnn38m337q1KmB4AGqXR42bJhbI8Udd9xhy5555plA8MDWLgcPkNzSkOCBTfL2PvnkE9eaecGD5eTb//rrr641NX3ewQNXW6dfv36uNUX//v0DkZGRydtJe+revbtbM/OCB5uB4EFXuturVatWYNq0aW7NkOABbrrreid9nTJDn+tzzz0XCB7gp7ud4IGvvYdp/fjjj7a8RIkSgcmTJweCB5ipbjdo0CBb7/PPP7frNWrUsOtpDR48OFCgQIFUt9VTtWrVAvPmzUu+vmjRIneLkDfeeMPaW7Zs6VpSNGzY0JaNGDEicNdddyVvI/x08cUXBxISEtwtUuj+ny9fvnRvo6cmTZoE1q9f79ZOzVsnK95++227TbNmzVxLil69eiVv88ILL3StKa644gpb9thjj7mWFN9++22gevXqybcPP5UrVy4wceJEt2aKdevWJa+zc+dO15pCb1O2bNlU29JTkSJFbP9t3LixXdfXPZz3N0RvO3fuXNsXwm+vp5NOOikwduxYd4uQnj17HrJe+Cn8czZmzJhAoUKF0l1PT/rYAACZx9ASAIBv6K+pWmNBfwl/6623MvzlOSe8GUvSDi/RXgD6S6/e5w033OBaD6W/sGoxUPXUU08lD604mrRnQfDg3S7rL9Ph9Fd6/WVce0/o8BvtFaK9MiZNmmS9CvRX+/R+yT4c7dmgvzrrr/86TOb9999P3p728tCCnueee671WPDofetrqL01lPZ20OveqXjx4tZ+JDpMR2c80V+wtVdH8EDeftF+8sknbYYa/YVbh4VkVCtEe6NceeWVNuTn//7v/6zOiD5u/ZX9SLS+x6233mq9ObRXh/ZG0V/p33jjDduebjcndJiQ/oqvPQb0vnT7un8rva7DktLSYrPa+0Jrr2itCH1vtKeB1uIoV66cvdfaoyExMdHdIme0p4DS7WqvmHB6v0p7UmjvofBZaYLfMZOXe/uAR98znR1I9xddpr2r9Hno89GeEdorQvdr7T2TWbot7U21ceNG6+GgPVz0MWsdHe2VoT1ovM9MRrSnjvYw0ueh7432aHr77bet14/uR9dee60Na/NoLw1vqJnq169fqn3cm8pV/27pbbVAqW5f9+Fp06bJlClTrJfRzTfffNQKlwLAf0YozwAAIPfTXzj1vy79hd5ztHtkBA8A7Rdhvb5ixQq3ViAQPAC2tuCBll3PqEeG0l4S3jb1l1y9zRNPPGG/pgcPRN1a6QvvkaG/eGvvCj298MIL9st28KDdluXJkyfwv//9z90qxe23327Lb7rpJtdyqPR+6T+c4IGhbbNFixaB4AGdaw0JHqQl/4IdPDh1rSm8X61vu+0215J5wYPGQFRUlN1ee8OkNX/+fHt9dXn4PqG8Hhl60t4TW7dudUtSy6hHhvYEqVixoi0LHrDa9XC6r3m9YvSUnR4Zeho9erRrTXHffffZsnr16rmWFPo8Dhw44K6lpo+pZMmSdtuffvrJtabw7jMr9Hl7vRzGjRvnWgO2H2tbbGxs4Pzzz7fLM2fOdEsD9npom75/e/bsca2hfc97jPfcc88hr6te79q1qy0PHvS71pDD9ci4/PLLrb1Ro0ap7k/pfbZq1Sr5thn1yNBT06ZNA7t373ZLQvS5Fi1a1JZ/8MEHrjVEH69327T7gGf48OG2XN/3tM/Xk9XPJAD819EjAwDgCxMnTpQhQ4bY9J3BAyDXevRpfQz9pVW9++67dq68X151xo0j0R4Effv2tZkV9Jdc/WX38ccft1/KdaYSLeKpY/CP9Kv566+/br0r9KQ1CrQXgo7n1+1qvYKHH37YrZlCf/VVXt2P9GSlUKJORau1ANRLL71kvWHC6bj+Z5991i5rLQztOXG06C/X+hppgVTvPsJprwrtMaE+/fRTO0+P9lbQGglZoc/Z602jNUjS9v7RGh19+vRx17JH60HoL/Rpeb/k62w3WqslnD6PjHrU6GPy9k/teXI06PP2CpaG17nwZvbRHhtejwuvB4byLuv0wNpjw6OfY60Fos/jf//73yGvq17XnjPqu+++S96fD0frWOi6Sj8j4fendH/X3lGZocWDdX8Lp72HtAeJ0s9yVnmfiVKlSh3yfD0ULwWArCHIAADketqlXbtf68wf2tU7q0Mjsso7kNQgIykpybqkf/vtt3bQ3rFjR1t2OPo49YBKu8i/+OKL1k0+fKpV7fKuXd3bt29/2OlTdZiBHlh5J92mDmfQgx4NN3S4hhYQDKdFIpU3bOGvv/6y69mlhRiVHnhqAJMePSDXAEiHW2iYcbR89dVXdq7PM6PCoBoOKR3yocMK0tIDR68YbFZ4B8Y6lCajUCg72w3nHRynFV7AVIeSpEcP3jVM0Glj+/fvb8U29aTDfJR3fjSkF1R4oYYWOfWWhwcd3mVvaIpHC4Qq/RylDRw8WiRTh4Po/qRDVo5Ehznp8B/dB9MOY/GcdtpphwQUaek+lvbxeurVq2fnGsJklYY5Sj8bGnLqbEUAgJwhyAAA5Hra80BngdCeGDrTw7Gms5LogY/+Iq8HUloTQgMNHeeuvSEyS2es0MesPQv0l3Wd4UB7dtSsWdOW66/T2nMjI1qL48EHH0w+6bp6ILhkyRKrTaEHi1qLIpzeRnutaECiM0bor8l6MK7r6YGUPo+s8A66tO6AN4VsWjq+v1q1anZZ62gcLd62wmd+SEufq0dnaklLp+jVU1Z59RR0X8jI4ZZlRka9RDR88X6hT9trR2u16D6lz0kPuu+44w7rraOz1+jpyy+/tPUOF5BllXdwr3UdtI6E8kIN7a2hn0kNCTRY0f0rcJj6GLrvKq0NoT0UMjqtWLHC1tP6Ekfi9VrRWUfSzjTk0Vl6dErcw9GaKxmFpBm9H5mhAaA3u4v2pNKgRmcd0ll3tJaHhlIAgKwhyAAA5Gp6IP3KK6/Yr7c6XaZ27Q4/ae8Gjx7Ya9uiRYtcS/Z5RT81eNDCfcpryw49ONWDF93GzJkzbQpIpb0+9JfnrNBiot7wGh1SodODejRU0MKJb775pv0SrL9S6/SeWqBSe4DUqVPHpjDNLO+xHanru7dcD7SPFu++DzdVbPjjSu++s9t7xwt8MhoKoDIKdjLrcNvOyG233Wa9bfR5aYgxfPhw+fHHH61Xgr7vaadAPRo0eNMeRXoQrwUqdX/ToTfac0Tb9bHoZ1PbdV/TEEKntdXXRwPBcDrUSmnApmFcRifdd1u0aGFh4JFk5r1SR3q/svN+ZIZuVwMLDZm0F4/+LdOQVIsHX3fddVYg+IsvvnBrAwAygyADAJCreTMl6C/Ml156qc0eEX4KrxOhv3pqmwYfOXXVVVdZ7ws92Fi4cKHUqlUruYt4TmkXdq8nxdatW7PV1dzr6q4Hl2lnd9ADJR2WMnXqVKsxoD0/tEu7hhz6i7jO7hA+w8TheN3xw2drSEt/gfeGsGT0i3h2ePd9uOEx4cuO5n3rr/MqveEqHh06dDzpY9HgQmmtFJ3RRWc80V4Pp59+uoUG2pvhaNMD8fA6Gd5wj/BhGOHDT7zeGHFxcYfMxuG9Rzq0avLkyUc8afh2JN57pcNwMgrSNOw43Ht5rGmIosNptFeU9jLRz6bWfdEQQx+3DhlLr0cRACB9BBkAgFxND3y0lkBGp/BwQafh1DYdBpFTenB02WWXJR/wa0+Ko/mLrXfwlV0agHgO1+tAQxOtMaEHTTo0QOmQDf1lPTP0AFlpL5KMCi8uX77cfoFX3vpHg/drvldYMj1eLQatX6K9TY4Wfc2UvmZppx31aEB0PGnvIw2utMeC9lZIj/d6HG3hQYV3H1ofw+Mt12Xe8vTqTbRq1crOteaMBmBHQ8uWLa3nkYad3j6elhZODf/MHAuZHbalvYj075aGi9qzRYfE6N8ZnX4WAJA5BBkAgFwtJiZGxowZk+FJZz7waC0LbevZs6dryZmHHnrIZqzQk/7ynRnadd6b7eJwvFk2tNaBHshkhR4AatFTpb0WvN4ZR6JDBLxfyDM7u8i5555rYYgepI0aNcq1pub1EtCx/+E1K3JKgyQ1a9YsmT9/vl0Op6+Dd986+8fhhqBklQ6V0LBJDzC150NaWtdAC20eT96BvwZK6fWo0f1Oe2ocC14ooQGYDt9SXi8N1aRJE+sJFN4jI219DOXNCKTvpw6JORr0M+QFJFr4NL2AZMCAAe7S0aXhplc3RwuOZpU+dq9mztGc8QcATnQEGQAAZECLZHpFFDPbZV8PZnTGhe7du9uBWtqu7joUQgOSTz75xK5r6JLR7A1acFIPTr2T9nzQsfSXXHKJjB071tbR+wnv3aFDbXQsftpij3pwN3ToUDtY0mBCu/1nhj42bxYXrcuhB7HegaKGGzr0xpsaVes3HM1eK1ok0aslol3vw2fi0Oen74t30Hy0wiuP/mqu75N69NFH7aRDAPS5a88InS3laBY2zQztoaI9D7RnQdrhU7pvaJhzNGuUhNOpbosWLWrb1zoYWug0fDYXfb20N44+Nu910TAoLb2d7r9KgyrdV9MW0NTr+tnxptbNDH1/lM50o0U0ly5dau+VFgnWz8h7772X415QGfF6DmmwpZ//tEGK1qfRqaPDa9l4NBjyhuqkF/wAADIQ/GMLAIBvBQ+s9ajBTvHx8a418/7888/k20+dOtW1HtnQoUPtNsWKFXMtIcEDueTt6enkk08ONGjQINCiRYtA7dq1Uy0LHvgFtm3b5m4ZsmzZslTrHO50zTXXBIIH9O6WIeeee64ty5cvXyB4IBm44oorAsEDx0DwQDT5di+88IJbO3P27NkTaNWqVfLtGzZsGOjYsWOgZs2ayW1XX3114ODBg+4WKXr27GnLb7vtNteSNStXrgyULVs2+X6CB3uBiy++OFCyZMnktkGDBrm1UwQPhG1ZiRIlXEv6Pv/8c1sveIDtWlLo8wkeFCffT/gpf/78ga+//jr5evDA2d0qJHjwau0tW7Z0LSn09dNl77//vms5VN68eW2dWbNmuZaQHj16JN+n7k9XXXWVvSZ6XR9T79697XJ69+vdLrv0dfe20b17d9ea4qmnnkpers8xI7t27UreT/Wk79GFF15o+5Q+7lNOOcXaq1Sp4m4Rsm7duuTb7Ny507WmGDBgQPLytCfd573X/YMPPnC3CPH+huh+lpGBAwfaOm3btnUtKT788MPk+9FTnjx5AlFRUbbvq/vvvz+5vVGjRoHLLrsscPnllwdOO+205Nvo5wcAkHkEGQAAX/v9998DsbGxdtIQIav0Nt7t586d61qP7LPPPrPb6AF+OD34nThxoh3E6IFTdHR08sGKnvQgTQ/a9ED3wIED7lYp1qxZk/x40p40EDnzzDMDffv2DUyePDmQlJTkbpXio48+CrRv394ODsPv96STTgq0adMm8OWXX7o1s+aff/4JDB482B5H+Hb1YOy9995L97koPbjV2/Tr18+1ZN3GjRsDjz76aKB06dLJ96sHhZdeemnghx9+cGulNm3aNLtffb0OZ8KECbZehw4dXMuhfvvtNwuE9CBUn6+GMhqw/P3338mPRx9juI8//ti227lzZ9eS4sorr7RlGoRkRO9L11m0aJFrCdHX+f/+7/8C5cqVS77vyMhIOzjWMOVw9+utn13hQUHaMED9+uuvycvvuusu15q+hISEwMiRIwMXXHCBvZfe7fRUvnx5C2i+++47t3aIho763PS0e/du15qavga33HJLoGnTpoEmTZpY2OcFlFWrVrXtf/XVV3bd4/0NOeecc1zLoXQf13U0SErPuHHjLNyJi4tLfoxPPPGELZs0aZK95zExMamepz7v5s2bB1555ZVAYmKirQsAyJwI/Sf4xxQAABwDWstg8+bNVlMhX758Nu1k+JShx5LOjrB9+3YbjqDTZOr955R+bdDhA3v27LF6G5mZHvNo0SEHet86vEHv92jOUpIdn332mVxxxRVWx0WHMBzNYTVH4s3Cofepr0VGw5P8QIdj6H6qn5Vj9b7q0Cyd/ljpkK1jMbtLZuiQKN2H9f0rVqzYv74PA4BfEWQAAABkkYYqbdq0sRodWsvhtddec0uQG2l9l4EDB1rdlYxmNgEA+AfFPgEAADKgs3W8++67VsBSf0XXWWm++eYbadeunYUY2rumR48ebm38m7TI56BBg2TRokUWNOlJi2nq1MkaYqg777zTzgEA/kaPDAAAgAwcbriIDtX58MMPk6eJxb9Le1vojDIZeeyxx+SJJ55w1wAAfkaQAQAAkIGJEyfK999/LwsXLrTaBvq1SWsbXHrppXL55ZdLkSJF3Jr4t82dO1dGjx4tc+bMkU2bNlmPDK1Bcd5558m1114rFSpUcGsCAPyOIAMAAAAAAPgGNTIAAAAAAIBvEGQAAAAAAADfIMgAAAAAAAC+QZABAAAAAAB8gyADAAAAAAD4BkEGAAAAAADwDYIMAAAAAADgEyL/D5m+pbyvPmdqAAAAAElFTkSuQmCC;" vertex="1" parent="1">
          <mxGeometry x="20" y="220" width="300" height="177.65" as="geometry" />
        </mxCell>
        <mxCell id="GyAlcbeer8-HQcUifqdN-6" value="&lt;b&gt;Data pre-processing&lt;/b&gt;" style="text;html=1;align=center;verticalAlign=middle;whiteSpace=wrap;rounded=0;" vertex="1" parent="1">
          <mxGeometry x="321" y="285" width="120" height="30" as="geometry" />
        </mxCell>
        <mxCell id="GyAlcbeer8-HQcUifqdN-7" value="" style="shape=image;verticalLabelPosition=bottom;labelBackgroundColor=default;verticalAlign=top;aspect=fixed;imageAspect=0;image=data:image/png,iVBORw0KGgoAAAANSUhEUgAAA7oAAAI4CAYAAABEC5UKAAAAAXNSR0IArs4c6QAAAARnQU1BAACxjwv8YQUAAAAJcEhZcwAAFiUAABYlAUlSJPAAAI8FSURBVHhe7d0HfFRV2sfxhxR67y303jsoiKAoNlx7d1exl117X1d3X9dde+9lXXtbuyiIgKAivfdO6L23tPf+T85NJiEBEiCJw+/7+Uwyc+6dO7ece2eee1qxtIABAAAAABAlYvx/AAAAAACiAoEuAAAAACCqEOgCAAAAAKIKgS4AAAAAIKoQ6AIAAAAAogqBLgAAAAAgqhDoAgAAAACiCoEuAAAAACCqEOgCAFDA5s2bZ48//rgNGTLEpwAAgEOJQBcAgDz67bffrEuXLnbOOef4lJy98MILbr5HHnnEp6SbPn263XHHHfbJJ5/4lLzbuHGjjRkzxhYsWOBTAABAiEAXAIA82rJli02YMMEFrPuybNkyN9/ixYt9SrpixYpZbGyse+TXr7/+aj169LC///3vPgUAAIQIdAEAKGBnnHGGJScn28svv+xTAADAoUSgCwBAEZOSkmJz5861qVOn2sKFC11QfLBWrFhh06ZNc8tLS0vzqbnTOsyZM8dmzZpl27Zt86kHRstXKbY+T6XfkVJTU23JkiVu21Tt+kDWJZSUlOTaN8+ePdu2b9/uUzNt2LDBZsyY4UrSAQBHNgJdAAAK2KBBg6x69ep26623+pR0Ciivvvpqq1KlijVv3tzat29vjRs3tjJlytixxx5rO3fudPNdcskldtFFF7nnH330kVtW+Ljnnntceujbb791761Tp461a9fOLa9169auNDm3IPPdd9+1Fi1auEerVq3ccu+++26bMmWKe37mmWf6OdOF6/C3v/3NdbCl9zRs2NB93iuvvOLmmTx5sp1++ulWsWJFa9Cggdu2Jk2auPn+8Y9/5BjMP/zww265Wp/333/f6tevb82aNbOWLVta3bp17b333nPzbdq0yS699FKrWrWqtWnTxhISEuyUU06xVatWuekAgCMPgS4AAAVs9+7dtnbtWtu6datPSXf55Zfba6+95oJSBX/PPPOMPfTQQ3baaafZ+PHjbc+ePW6+nj172tFHH+2eK/g7++yzMx4dOnRw6fLOO++4944cOdIFp4899phde+21rlT3uuuus5tvvtnPmUmfr6Bx0aJF9qc//cmefvppGzhwoD377LNufq23OsKKtGvXLpf+008/2cknn+zSbrnlFrv++uvdtsjo0aNt+PDh1q9fP/u///s/e+KJJ9w67Nixwx544AG78sor3XyRtH+0XAW0Cu67du3q2iSfe+65tnnzZpc2dOhQ69u3r/3www9200032X333ecC6O+++87Nl5cSYwBAFAm+AAAAQB4MHjxY0VNa9erV01544YVcHyeccIKbLwgu/TvTffbZZy49CO58SlramjVrXFrDhg3TgkDYp2batGlTWlJSkn+VlvbNN9+4+YOg1KdktWHDhrSSJUu6eT7++GOfmm7mzJlpZcuWddNGjRrlU9PSggDWvadYsWJpI0aM8Knp9J7SpUu79xx77LE+Nd1bb73l0vW444470lJTU/2UTEHgnLZt2zb/KtO6devSgsDUvXfJkiU+Nd3dd9/t0rU+33//vU9N9/DDD7tp5cqVS+vevXuWZQcBclq9evXc9NmzZ/tUAMCRhBJdAADyKQhO7YYbbsj1oVLGAxW2Za1Ro4bFx8e755EqVKhgcXFx/tX+qXq0SlqPO+44V7IZSVV/w9JcVTsOBQG8e4+qGKu6cyS954orrvCvcqaqw//6179cr9LZqbqyqmBnp2raN954o3v+xRdfuP/ZqRpy//79/at0YdVtlfr++9//zrLsIIi3P/zhD+75sGHD3H8AwJGFQBcAgHyqWbOmaz+a20PVhg+UAsFatWq5MXovvvhiF6CpWm9+qW2unHrqqe5/dmF6OJ+EgfkJJ5zg/md34okn+mc5U7XkfQ2ZpKrXqt6satmqQn3VVVe5x1dffeWmz58/3/3P7vjjj/fPMqnKdkxMjPu8Xr16+dRMaossqvoMADjyEOgCAJBPKmVVUJrbQx0jHSgFbGpTq1LRDz74wAV35cuXd2PlvvDCC3nu+TgM8NReNSdhukqlQ+q1WMJ2tdmpA6h9UWl0btQbsjrB6tOnj2uTqxsBX375pQu0J06c6OZR2+Wc5FQSLNpnJUqUyLGkOwy41Xs0AODIQ6ALAEARoeA2MTHR9TCszpmaNm1qY8aMcVV71YPx6tWr/Zz7l1P14UhpvpMmlYqGwoBRw/jkJLf0UOSyIumz1MGVSmzVWZSCawXu+q9hj/Y3nvC+tmV/2wkAODIR6AIAUISULFnSLrzwQtf7scaw1bix3bp1c70gv/jii36u/QtLZbWMnMycOdP9jyy9VWAtYQlrdhMmTPDP8kbj6U6aNMm6dOnielyuVq2an5JOY+4CAHAoEegCAFCEqYrxnXfe6Z6HwamEpa+5VfdVh1LyzTff5DjETtguNuy0SQYMGOD+f/7553uV3moZH3/8sX+VN2GV6Nq1a+9VAqvlfvrpp/4VAACHBoEuAABFgEpu1V41pzalo0aNcv+bNWvm/kurVq3cf42vm308XlEvxerR+Oeff7aXXnopS7Cr5T333HMu6Ax7LxaNU9u+fXubM2eOGzs3bOerHqEVbGtZ+RGWFKuDrWXLlrnnonV6+OGH3TYAAHAoEegCAFAErFq1yvXSrA6dzjrrLLvpppvs+uuvd51RPfPMMy49HBJIEhIS7JhjjrGFCxe6klKV/LZo0cIeeughN7106dJu6KDixYu7oY5U/VnLO/nkk613796uxPapp55ybX9D6sBJpav6LHUWpc6n1HuxeoN+/vnn3TA+kltb3NyoevR5553n2uXq89T++C9/+YsL1v/617/aH//4Rz8nAACHBoEuAAB5VLFiRevZs6d17tzZp+RMQwZpvuw9H6ukVelhSaeotFbBn94zZMgQe/bZZ11J7Pr1612Aqjau2du2fv311/bkk0+6sXIVjKrHZo0hG1LnVuPGjXOBpdrqankaQkjVmvVfwXR2Wld1GqUgWGPpan0uv/xymz59unXv3t3NE/kZUr16dbc9jRo18il7e+utt+yOO+5wbZDfeOMN15O0tufHH390y8++PyTcfxrGKSeadtRRR/lXWWl/aLqGIQIAHHmKpUXWZQIAAIVOX80ac1YlrDkNnZNfWmZ8fHy+eyrWsEAaA/fRRx91QWt+hNumkmZ6TAYAHC4EugAAIMPGjRutVKlSruQ10oIFC1w16nXr1rnSYVWTBgCgqCLQBQAAGQYPHmyXXHKJay+sjqlUqqyxfNUT844dO+zaa691VaABACjKCHQBAECGGTNm2MUXX2xTp07N0lOzOpFST8x//vOf89wZFQAABY1AFwAA7GXnzp1uKCD1zlyhQgXXczIAAL8XBLoAAAAAgKhC3SMAAAAAQFShRLcQMJwCAAAAAByY/ISsBLqFQIEuux0AAAAA9i2/sRNVlwEAAAAAUYVAFwAAAAAQVQh0AQAAAABRhUAXAAAAABBVCHQBAAAAAFGFQBcAAAAAEFUIdAEAAAAAUYVAFwAAAAAQVQh0AQAAAABRhUAXAAAAABBVCHQBAAAAAFGFQBcAAAAAEFUIdAEAAAAAUYVAFwAAAAAQVQh0AQAAAABRhUAXAAAAABBVCHQBAAAAAFGFQBcAAAAAEFUIdAEAAAAAUYVAFwAAAAAQVQh0AQAAAABRpVhawD9HASlWrJgV2d0+tI9/UkT1G+GfAAAAAIh2+Y2dKNEFAAAAAEQVAl0AAAAAQFQh0AUAAAAARBUCXQAAAABAVCHQBQAAAABEFQJdAAAAAEBUIdAFAAAAAEQVAl0AAAAAQFQplpaf0XcPk40bN9r06dNtw4YNVrt2bevcubPFxGTG4krXI1LZsmWtZs2a/lU6zfPrr79alSpVrEePHm6Q4Uja5LFjx9ratWvtqKOOcvNlt27dOvvtt9+sevXq1rVr1xyXMXr0aLfORx99tFWqVMlP2b/8DnpcIIb28U+KqH4j/BMAAAAA0S6/sVORCXSXL19uCQkJ7qGgcdGiRS7I/P77761x48ZungceeMD+8Y9/WIkSJdxrOfvss+29997zr8w+/fRTu+KKK6xly5a2dOlSa9KkiX3zzTdWvnx5N33btm02YMAAmzVrljVq1MgF1q+99pqdf/75brq8++67dt1111nbtm1twYIF1q5dO/vyyy+tdOnSbvqmTZvs1FNPdetYr149mz17tr311lt2xhlnuOn7Q6B7EAh0AQAAgCNGfmOnIlN1WaWqK1assCVLltjkyZMtMTHRBacPPvignyOdAsxdu3ZlPCKDXJWuDhw40B566CFXGjt37lxXuhu5DE1btmyZzZkzx5X6Pvnkk+49Kt2V1atX21VXXWXPPPOMm65lLF682P71r3+56fK3v/3NtmzZ4qbpcxR8X3bZZbZ582Y/BwAAAACgsBSZQLdkyZJZqiAryO3evbutXLnSp+zfyJEjXVVnBaqias3XX3+9K40Nff311660tkKFCu71n/70JytVqpQNGzbMvdb/cuXK2R//+Ef3WvNdc801WZbx1Vdf2Y033uiWL/q81NRUGzVqlHsNAAAAACg8Ra4zKlU3njFjhn3yySfuccMNN/gp6dS2VlWJ1X43LFkNjRkzxpo2beqC5lCbNm1s4cKFtn79eldteebMma5Kcig+Pt5atGjh3iv6r2rPcXFx7rVoGdOmTbPt27e7trsqdVZaSIGyqkirdBcAAAAAULiKVGdUctZZZ9nQoUNt69atdt5557m2rwok5bPPPrM1a9a4trWq5qxAV51WqVMo1d1WKasC0p9++snNLxMmTLAuXbq4YFfLqVWrlv3888/Ws2dPP4dZ//79rW7duvbGG2+4aswqRf7uu+/8VHMltb1797ZVq1a5YFdthidOnGgdO3b0c5gdc8wx1qFDB3vuued8SiatW3a/jckMimNjYt06rlu/zrUJDlWrVs0aNWxkc+bOce2CQwrMy5Ypa+MnjPcpQcAeF2+dOnVy+2fR4kU+1axmjZpWv3591yZ5y9bMmwKtW7V2bZ0nTproU8y97rD2ZluV0siWJGfeDKgdN88SYmfajKTeti01s9OttsWHW6wl2+Q9J/iUIOgvttXaFR9mK1KaWmJyK59qVjduttWJnWPTkvrajtT09tLSvvhQS7MYm7rnOJ9iViZmk7WJ/8kSU1raiuRmPtWsXtwMq9X/dZsyZYrt2r3Lp5p17NDRkpKSbPqM6T7FXKl8q5atbMnSJe64hRo2aOjafmu79Z5Q506dbcfOHW4/hSpWqGjNmzd3+1P7NdS4UWOrWrWq2/8pKSk+1axb126u+rqOV6hypcru5suChQvcTZJQ0yZNrXLlyjZ23NiMNgfKJ1qGqtvPmz/PpYk+S585b94827AxszO25s2auxoHWkYoNjbIS52DvBR8lj4zpG3WtqvK/qbNmXlJN3VKlyptEyZO8CnpN386dcwhL9UM8lK9+jZz1kx3fobatG7j3jNp8iSfYlayRElr3769O5eWJi71qUFeCs7XhLoJ7ljpXAq1a9vObf+UqVN8irn10k0ptd9ftnyZTzX3fi1n6rSptnPnTp9q1qF9B3c8pk2f5lPMnSetW7d2TSFWrFzhU81th7Zn8pTJtnv3bp9qbrv1esbMGT7FrHy58m4/6QbXqtU55KXgWpCUnJmXtP+3bd/m2u6HKlYM8lJwvBYuWpjRTEJ0LalaJchL44O8lJqZl7p3624bN210zSNCVSpXcTfU5i+Y727chZS/lM/GjE2/WScxxWJcJ3qaT/OHqlUNrinB9XPuvLmuqUeoRfMW7pwZN36cTzF3s0/nhdZX6x2qUb2GNWjQwG3f5i2ZzTV0vukaG5mXihcv7s5PNQlZvGSxTzWrVbOW699A+1k3IEM55qWSQV5qt3deqlOnjtWtU9cd7x07dvjU9Lwkyh8h9a/Qtk1bl4+Un0L1Euq57wTlOzWFCeV0TVENHl03dTN25arMmkYN6jewGjVquHXes2ePT02/pih/6nwJVShfwV2/1Rxm9ZrVPtXcdV7Xe+275ORkn2rWtUtXd67NnpOZl9SHRbOmzdx32tp1mXmpSeMmrgnQuHHjLDUt1aem5yVdN3T9CGk+zT9/fpCXNmTmpWbNmlmlipWy5KUi9f0UnOO6nuu6HqpdK7imJCS4G+Q670I63roe6hwPKX8qf+j3Q+KyRJ8afD8F+Uj5Sb8f9D0QUr7T9TkyL5UpU8blU71fywll5CW+nxy+n/h+Er6f+H6SQ/H91KN7j3y10S1ygW5IJ746d9JJ8uGHH/rUrJSRdYKryrICzZtvvtmV+KptbUhBsHpF1sFXJtfBGj58uPXpk9npUt++fd0X/CuvvGJXX321O0AKtkM//vij9evXz12cdfHTF7NKfrt16+bnCA5W9+7uc5566imfkjtdMIvobqczKgAAAABFRn5jpyI7jq7u0N56661Z2sZmpzsPusur3o9FwWrkXUnRa90t0V0R3aHUnauc5tGdUcltGXqvHlqOAuac5tH6AAAAAAAKV5ENdEXVpFSEnRuVqqoaRxik9urVyxV/a8ig0P/+9z9X0qpqDuqoSlWWNQRRKJxfJcKiZajqUWQVLS1D03U3QdUWVHobuYypU6e6UuBwGQAAAACAwlNkqi5r7Fq1hVUQqaB00qRJ9vzzz7uqwGp7K6effroLJtX+QfXh//3vf7t2P4MHD3ZBqKi6s9oNaMgfdTyl4YRUDVltbEVVmY899li76667XBvbv//97659rsbaDYvF1WZX7T/UBljtGx577DHXrldtCkQ9M2ue+++/31q1auXmUzsLdZ51IKi6fBCougwAAAAcMfIbOxWZQFclqy+//LILTtXoWo3azz33XDvxxBP9HOaC3l9++cVVE1YV5JNPPtmNX6vqyyE1rlaA/P3337vS4Ntuu80Fz5HUGPrxxx93yznppJNcz86q3hxS43N1KqUAWY3577jjDhdQRwrH4FUnHKeddppde+21WXp73hcC3YNAoAsAAAAcMX73ge6RhED3IBDoAgAAAEeM/MZORbqNLgAAAAAAeUWgCwAAAACIKgS6AAAAAICoQqALAAAAAIgqBLoAAAAAgKhCoAsAAAAAiCoEugAAAACAqEKgCwAAAACIKgS6AAAAAICoQqALAAAAAIgqBLoAAAAAgKhCoAsAAAAAiCoEugAAAACAqEKgCwAAAACIKgS6AAAAAICoQqALAAAAAIgqBLoAAAAAgKhCoAsAAAAAiCoEugAAAACAqEKgCwAAAACIKgS6AAAAAICoQqALAAAAAIgqBLoAAAAAgKhCoAsAAAAAiCoEugAAAACAqEKgCwAAAACIKgS6AAAAAICoQqALAAAAAIgqBLoAAAAAgKhCoAsAAAAAiCoEugAAAACAqEKgCwAAAACIKgS6AAAAAICoQqALAAAAAIgqxdIC/jkKSLFixazI7vahffyTIqrfCP8kF7/39QcAAACQIb+xEyW6AAAAAICoQqALAAAAAIgqBLoAAAAAgKhCoAsAAAAAiCoEugAAAACAqEKgCwAAAACIKgS6AAAAAICoQqALAAAAAIgqBLoAAAAAgKhCoAsAAAAAiCoEugAAAACAqEKgCwAAAACIKgS6AAAAAICoQqALAAAAAIgqBLoAAAAAgKhCoAsAAAAAiCrF0gL+eaFKSUmx3377zaZOnWobNmywWrVq2amnnmo1atTwc6TbtWuXffDBB7Zq1So77rjjrHv37n5KpsmTJ9v3339vlStXtosvvtjKlCnjp6TbsWOHvf/++7Zu3To74YQTrHPnzn5KpnHjxtmPP/5o1apVs4suushKlSrlp6Tbtm2bvffee7Zx40Y75ZRTrF27dn7K/hUrVsyKyG7f29A+/kkR1W+Ef5KL3/v6AwAAAMiQ39ipyJTorlixws444wz79ttvbfbs2fbss89a48aNXfAbWrt2rbVq1cqef/55W7JkifXr18/uuecePzXdI488YkcddZTNnz/f/vvf/1qzZs0sMTHRT03/nObNm9vrr79uCxcutN69e9tDDz3kp6b729/+Zn369HHTX331VWvZsqWtXr3aTzX32U2bNrV33nnHfY6C7SeeeMJPBQAAAAAUpiJVoqtoPSYmPfZOTU21k046yUqXLm1ffPGFS7vpppts+PDhNnHiRIuLi7NffvnFevXq5QJjBa8KYuvVq2efffaZnX766W4ZKvWtX7++C3rlqquucqXGo0ePdp/1ww8/uM9ZsGCBNWjQwAW3TZo0sSFDhrhAWstQ4KxS3xdffNEtQyW8K1eutGHDhrl11vqdd955tnTpUqtZs6abZ18o0T0IlOgCAAAAR4zffYlubGxsRpAreq4ANSkpyacEMczQoXbFFVe4IFeOPvpoV2KrdPnpp5+satWqrsqzaBmaX0FruHM0r4Ld8LMUzNapU8cF0KL/+tzjjz/evdZ8AwcOdMsQLSdchna6DBgwwCpWrGgjR450rwEAAAAAhafIBLohBYsfffSR3X///a6k9IEHHnDpu3fvtpkzZ1rDhg3da1GgqdcTJkxwr1XSqyBVQXNI09Wed82aNbZ582ZbvHjxXstQSa7eK/qv12EQK5pfJb5btmxxy1IV6shl6PNUkhyuBwAAAACg8BSZqsuh2267zbXLVdvXTp062Ztvvuk6plKQqlJTlayqA6nQWWedZcWLF7cPP/zQbrjhBps+fbor2Q0p+OzSpYurklyyZEmrXbu2/fzzz9azZ08/h1n//v2tbt269sYbb9jll1/ugtnvvvvOTzUbNWqUa8urdHVCparNCog7duzo5zA75phjrEOHDvbcc8/5lEyRQXPotzGZbY9jY2LdOq5bv84F1CF1hNWoYSObM3eObdq0yaeatWjRwsqWKWvjJ4z3KWbxcfFufymgX7R4kU81q1mjpgv+Z82aZVu2bvGpZq1btbYSJUrYxEnpAb7odYe1N9uqlEa2JLmtTzWrHTfPEmJn2oyk3rYttZJPNWtbfLjFWrJN3pN5PEoV22rtig+zFSlNLTG5lU81qxs32+rEzrFpSX1tR2p5n2rWvvhQS7MYm7rnOJ9iViZmk7WJ/8kSU1raiuRmPtWsXtwMq9X/dZsyZYrt2r3Lp5p17NDRlfxPnzHdbO2vLq1czHprFf9zsB1tgu1p7NKkYdwUqx672Cbu6W9JaSV9qlnnEoPces1K6uVTzCrGrLHm8aNtUXJ7W5PSwKeaNY6faFVjEm38nlMtJS29doF0K/G1bU6tZnOSevgUs8qxK61p3FhbkNzJ1qUkBAf1aJfetElT11na2HFjM2obKJ9069rNdcY2b/48lyaqpdC4UWObN2+ebdi4waeaNW/W3CpUqOCWEdJNly6dg7y0LshLCzPzUvXq1a1hg4Y2Z06QlzZn5iW1Py9dqrRNmJh5kyY+PshLHXPISzWDvFSvvs2cNdO2bt3qU83atG7j3jNp8iSfYlayRElr3769q+K/NHGpTw3yUnD+JdRNcMdq+/btPtWsXdt2bvunTJ3iU8ytV9u2bW358uW2bPkyn2ru/VrO1GlTbefOnT7VrEP7Dq4JxLTp03yKufOkdevWrp3+ipUrfKq57dD2TJ4y2d1EC2m79XrGzBk+xax8ufJuP6lt/qrVq3xqkJeC/an9qmtBUnJmzRPt/23bt7kmFSFdu3S8Fi5a6G6UhdQPQdUqVW38+PGWkpriU826d+tuGzdttLlz5/oUsyqVq7hrz/wF8239+vU+NchLTYO8VKmyjRk7xqeYxRSLsa5du7r5NH+oWtXgmtKokc2dN9d1pBdq0byFlStXzsaNH+dTzNWc6dyps1tfrXeoRvUa7magtm/zls0+1axVy1au077IvKRrs85P9XGweMlin2pWq2Ytd3NQ+1nX1FCOeSm4brdvt3deUk2cunXquuOtDgZDykui/BFSE5i2bdq6fKT8FKqXUM99vyjfqaPDUJZrile2bJCXguummqisXLXSp5o1qN/AdZqodd6zZ49PDa4pwb5T/tT5EqpQvoK7fuuG6+o1mf0+6Dqv6732XXJysk8169qlqzvXZs/JzEuVKlWyZk2bue+0tesy81KTxk2sSpUqriPF1LRUn5qel3Td0PUjpPk0v75n12/IzEuqIVWpYqUsealIfT8F57i+h5csXeJTg2tKreCakpBgM2YEeSk470I63roe6hwPKX8qf6iZU+KyzL47lI+Un6ZNC/LSzsy8pHyn63NkXlLnlsqner+WE8rIS/v6fvJ0rul80XZoe0IZ15RguyNrsykvab20n0IVKwTXlObN3f7Ufg3pu0LfGdr/uh6G9N2i31E6XiFdN3T90HeFvjNCfD/x/SR8P/H9JEXl+6lH9x4Z16O8KHKBbkgHVe1edWFW4KrXyqRfffWVqyocOvnkk93JrDa4t956q/36669ZOrAK2/Eq8yhDageqN2W13Q0de+yx7mKjNrjXXnutO3nV/jakdrwnnniiO/GU6fWlqja+PXpkBjQ6abWcxx9/3KfkThfMIrrbaaN7uNFGFwAAADhg+Y2dilzV5ZCCUnX6FAateq27S5F3O0SvVZIqGuJHryN3hF7rzqTuiuhOg/5HLkPz6rXu7km4jEh6rRJf3fXSnTr9j5xHHVZFLgMAAAAAUHiKTKAbWaQeUkmugttQ3759XcltGMiq92RVNVK6qER12bJlNmJEZqnZ22+/7abrToAeev7WW2/5qWZjxoxx1bE0nJDov0p0x45Nr26jz9IywhJgdU6lzwl7cRZ9nqofKR0AAAAAULiKTNXll156yY1L261bN1f3fvLkya5jqk8//dQNFSSqe652PppHQ/6oqrGqLqsdb0jVlxXI3njjja7zKrXpVZ1wtWUR1flWeyMFtGpjqzF5L7jggixta6+55hr7/PPPXZtftW9QG1219Q07oFJbII2dq2GJwnF91QuzxvA9EFRdPghUXQYAAACOGPmNnYpMoKtG6d98843rTEqN7dWoXW1xI3s3FnWE8Oqrr7oSVA0BdNppp7mND2lzBg8ebN9//73rJOHqq692bXgjqfG6lqH/ClbVGVX2ZXz77bduGCE14tYy1LY3kj5fy1C7Xa2DSnwjl7EvBLoHgUAXAAAAOGL87gPdIwmB7kEg0AUAAACOGPmNnYpsZ1QAAAAAAOQHgS4AAAAAIKoQ6AIAAAAAogqBLgAAAAAgqhDoAgAAAACiCoEuAAAAACCqEOgCAAAAAKIKgS4AAAAAIKoQ6AIAAAAAogqBLgAAAAAgqhDoAgAAAACiCoEuAAAAACCqEOgCAAAAAKIKgS4AAAAAIKoQ6AIAAAAAogqBLgAAAAAgqhDoAgAAAACiCoEuAAAAACCqEOgCAAAAAKIKgS4AAAAAIKoQ6AIAAAAAogqBLgAAAAAgqhDoAgAAAACiCoEuAAAAACCqEOgCAAAAAKIKgS4AAAAAIKoQ6AIAAAAAogqBLgAAAAAgqhDoAgAAAACiCoEuAAAAACCqEOgCAAAAAKIKgS4AAAAAIKoQ6AIAAAAAogqBLgAAAAAgqhDoAgAAAACiCoEuAAAAACCqEOgCAAAAAKIKgS4AAAAAIKoQ6AIAAAAAogqBLgAAAAAgqhDoAgAAAACiCoEuAAAAACCqEOgCAAAAAKIKgS4AAAAAIKoQ6AIAAAAAogqBLgAAAAAgqhDoAgAAAACiCoEuAAAAACCqEOgCAAAAAKIKgS4AAAAAIKoQ6AIAAAAAokqxtIB/Xqh27NhhX3/9tf3000+2fv16a968uV122WXWqFEjP4e5aXpEatWqlZ1zzjn+lVlKSop98MEHNmjQIKtcubLdfPPN1qRJEz813cKFC+3pp5+2devWWf/+/e2SSy6x2NhYP9UsOTnZ3nnnHfvhhx+sWrVqdsstt1iDBg381HRz5861Z555xjZu3GgDBgyw888/32JiDuy+QbFixayI7Pa9De3jnxRR/Ub4J7n4va8/AAAAgAz5jZ2KTInuhx9+aHfddZcVL17cOnbsaD///LO1b9/eZs6c6ecwGzZsmL366qu2aNGijMfatWv91HRXXXWV3X333dajRw8XsLZp08YmT57sp5pNmzbNWrdubdu3b7ejjz7aHnjgARdQR1Lg+/e//91N37p1q5t/1qxZfqrZ+PHjrW3bti6o1ufccccddt111/mpAAAAAIDCVGRKdBWwqgQ2LFlVkNqlSxc76qij7KWXXnJpCkonTJhg33zzjXudnUpZVRI8evRoF4DKueeea7t377avvvoq4/XOnTszljFlyhTr0KGDC4AVFIevp06d6oJZOfXUU618+fKupFhOOeUUK1eunH300Ufu9a+//mo9e/a0+fPnW+PGjV3avlCiexAo0QUAAACOGL/7El1VEY6sPhwXF2d16tSxbdu2+ZR0CoBnzJjhgtrsGzxy5EhXxbh79+4+xezCCy906ampqW5+VX2++OKL/VRzpcYKjsMq0fqv6tBhkCtaxogRI9z7VYqr0uaLLrrITzUXjCckJLjPAQAAAAAUriLbGdW8efNcG9mzzz7bp6QbPHiwHXPMMdayZUtr1qxZluBSAXCNGjVc1B+qWbOmbd682VasWGEbNmxwJceaJ5LmUYmuhMuIpOmrVq1y7XG1HFVnjpxHnxe5DAAAAABA4SkyVZcjqZOoXr16uerH//nPfzICVwW/KvmtWLGia2N75ZVXuk6nli9fbmXLlrUbbrjBpk+fnqXDKlV1VhVodUBVsmRJq127tiuRVVXjkDqkqlu3rr3xxht2+eWXu6D2u+++81PNRo0aZb1793bpKmFW51YTJ050bYlDCr5V5fm5557zKZkiA+/Qb2N+88/MYmNi3TquW7/OFixY4FPTS7kbNWxkc+bOsU2bNvlUsxYtWljZMmVt/ITxPsUsPi7eOnXqZGvWrLFFixf51CBIr1HT6tev79oYb9m6xaeatW7V2kqUKGETJ030KeZed1h7s61KaWRLkjNLtGvHzbOE2Jk2I6m3bUut5FPN2hYfbrGWbJP3nOBTzEoV22rtig+zFSlNLTG5lU81qxs32+rEzrFpSX1tR2p5n2rWvvhQS7MYm7rnOJ9iViZmk7WJ/8kSU1raiuRmPtWsXtwMq9X/dVe9fNfuXT7VrGOHjpaUlGTTZ0w3W/urSysXs95axf8cbEebYHsyq5M3jJti1WMX28Q9/S0praRPNetcYpBbr1lJvXyKWcWYNdY8frQtSm5va1IyOyNrHD/RqsYk2vg9p1pKWpxPNetW4mvbnFrN5iSlV5uXyrErrWncWFuQ3MnWpSQEB/Vol960SVNXVX/suLEZNROUT7p17eZuyMybP8+lSdWqVa1xo8Yu/2/YuMGnmjVv1twqVKjglhFSrYgunYO8FJxDCxZm5qXq1atbwwYNbc6cIC9tzsxLumFUulRpmzBxgk8J8lJ8kJc65pCXagZ5qV59mzlrprvZE2rTuo17z6TJk3yKWckSJV1tiZUrV9rSxKU+NchLwfmXUDfBHSudw6F2bdu57Z8ydYpPMbdeqlmh83vZ8mU+1dz7tZyp06a6ZgihDu07uBoX06Zn3nDSeaI29omJibZi5Qqfam47tD2Tp0x2TRtC2m69njFzhk8xK1+uvNtPS5YssVWrV/nUIC8F+1P7VdeCpOQkn2pu/2/bvs1mz57tU4K8FFyzdLwWLlqYpV8BNXWoWqWqa/efkpriU826d+tuGzdtdDVXQlUqV3HXnvkL5rsO+0JNmwZ5qVJlGzN2jE8xiykWY127dnXzaf5QtarBNaVRI5s7b667cRdq0byFa44xbvw4n5Jeq6Zzp85ufbXeoRrVa7iaM9q+zVs2+1SzVi1bWalSpbLkJdfnQnB+rl692hYvWexTzWrVrGX16tVz+zmy1k6OeSm4brdvt3deUo2funXquuOtzgxDykui/BEqXTrIS23aunyk/BSql1DPatWq5fLdrl25XFM8fcfourl06VJbuWqlTzVrUL+Bu/Gpdd6zZ49PDa4pwb5T/tT5EqpQvoK7fi9evNhWr1ntU81d53W9175TraVQ1y5d3bk2e05mXqpUqZI1a9rMfaetXZeZl5o0bmJVqlSxcePGWWpaqk9Nz0u6buj6EdJ8ml/NbdZvyMxLunlcqWKlLHmpSH0/Bee4voeXLF3iU4NrSq3gmpKQ4G5S67wL6XjreqhzPKT8qfyhG9aJyxJ9avD9FOQj5SfdrN6xMzMvKd/p+hyZl8qUKePyqd6v5YQy8tK+vp88nWs6X7Qd2p5QxjUl2G69J6S8pPWK7CukYoXgmtK8uduf2q8hfVfoO0P7X9fDkL5bdNNfxyuk64auH/qu0HdGiO8nvp+E7ye+n6SofD/16N4j43qUF0Uu0NVFtG/fvu4EUxtYZarc6CApg3z66aeu5FedWQ0fPtzGjs28sIZBqjKyMqQuvCop7tevn58jPUhV0Prss8/an//8Z/dlp6rKIZUin3TSSbZlyxaXYXUB+uWXX1xnVaHOnTvbCSecYP/+9799Su50wSxiuz0TbXQPL9roAgAAAAcsv7FTkaq6rDs4CkB1J0W9MO8ryBXdHdQ84Z0OBZu6ixB5x0F3CVRaqztb6lBKAXTknQO13dVdat1dEi1DdxGUHtL8unOqO0paju6wRC5Dd1bUA3S3bt18CgAAAACgsBSZQFdValSFWIGkSmhVpSC7yGpCiuo1jq2qghx3XHq112OPPdZVM/j444/dawWgr7zyip188snutahk9uWXX84owv/yyy9dNZpwGfqvqkQa01c032uvvZaxDN1R0DLUE3QYUOvzFGyr5BgAAAAAULiKTNXlJ5980m677TYX6KotTkjVit977z33XPXM1fZBJaqqD68qxgp21TY3pCD2lltucYGp2g8oEFabXS1X1CZAAalKbNW7striPvroo3bjjTe66fLUU0/Zvffe64YVUptfBd1ahuqeiwJhrZeqQqtNwvfff2/PP/+8XXHFFW76/lB1+SBQdRkAAAA4YuQ3dioyga4aYKsBdHZqJK/G+qLG9mpYrxJYpR9//PGuw4TsVI1YbXXVoFnBqhqtR1JJrDqx0nL69OnjGr9np6rJat+rAFlBc+TQR6LSYo3Fq044tB6qbn2gCHQPAoEuAAAAcMT43Qe6RxIC3YNAoAsAAAAcMfIbOxXZcXQBAAAAAMgPAl0AAAAAQFSh6nIhoOryQTgSqi5T/RoAAABwqLoMAAAAAECAQBcAAAAAEFUIdAEAAAAAUYVAFwAAAAAQVQh0AQAAAABRhUAXAAAAABBVCHQBAAAAAFGFQBcAAAAAEFUIdAEAAAAAUYVAFwAAAAAQVQh0AQAAAABRJc+B7siRIy05Odm/AgAAAACgaMlzoHvZZZdZvXr17P7777elS5f6VAAAAAAAioY8B7o9evSwlStX2kMPPWQNGjSwU0891b7++mtLSUnxcwAAAAAAUHjyHOi+//77tnDhQrvnnnusevXqNmjQIDv99NOtfv369ve//92WLVvm5wQAAAAAoODlqzOqhg0b2sMPP2yJiYn22WefWf/+/W358uX24IMPumrNCnwVAFPKCwAAAAAoaPkKdEPx8fF25pln2vfff+9Kee+9915XyquqzKrSrIBYVZzXrFnj3wEAAAAAwOF1UIFuJAW1f/7zn+366693AbCoxFedViUkJNh1111nO3fudOkAAAAAABwuBx3opqam2pAhQ+yss86yunXr2gMPPODSL774Yvv222/t9ttvt9KlS9vLL7/sSn8BAAAAADic8h3orlq1yrXTbdy4sWuj+/nnn7v2uY8++qitWLHC3n33XTvllFPsscces8WLF1u3bt1s8ODB7jkAAAAAAIdLngPdH3/8MaP09r777rMlS5bYgAED7LvvvrP58+fbHXfcYVWrVvVzp6tQoYINHDjQPdfQRAAAAAAAHC55DnSvuuoqV3qrYFaBrkpov/rqKzvppJMsJib3xVWrVs2aNGliJUuW9CkAAAAAABx6eQ50e/fubR9//LHraEo9Kqu68oFQKfC8efOsY8eOPgUAAAAAgEMvz4HuW2+9Zeeee25Gz8oAAAAAABQleQ50r776aitWrJjNmjXLp+xtypQpbp5bbrnFpwAAAAAAUDDyHOh+//331qFDB2vZsqVP2Vv79u2tTZs2NmjQIJ8CAAAAAEDByFOgu3HjRtc2t2fPnj4ld0cddZRrk7tnzx6fAgAAAADA4ZfnQFfUg/L+VK5c2dLS0mzr1q0+BQAAAACAwy9PgW6JEiXc/zDg3ZdwnuLFi7v/AAAAAAAUhDwFutWrV7dKlSq5cXRTU1N96t5SUlLc2Lqav0yZMj4VAAAAAIDDL0+BroYU0tBCS5cutSeeeMKn7u3RRx+1VatW2YUXXmgxMXn6CAAAAAAADkqeo1ANL6Tg9c4777Q//OEP9r///c/mz5/vOp765JNPbMCAAXbvvfe6oPjKK6/07wIAAAAAoGAUS1OPUXn01ltv2cCBA11nUzmJi4uzDz74wM455xyfgkgaYzgfu71gDO3jnxRR/Ub4J7n4va+/RMM2AAAAAIdAfmOnfNUrvuyyy2zMmDEu2I1sg1u+fHm79tprbfz48QS5AAAAAIBCka8S3UjJycm2efNmF2kr0FVpLvaNEt2DQIlu4aNEFwAAAAWkQEt0IymwrVKlihs3lyAXAAAAAFDY6BIZAAAAABBV8hXozpw502699VZr27at1ahRw6pWrZrjo0+fIl4FEwAAAAAQdfIc6A4dOtQ6duxoTz31lE2fPt3WrFlj69evz/GxadMm/y4AAAAAAApGngJdNQK+6667bM+ePW483alTp7rnqampOT4mTZrk3wkAAAAAQMHIU6C7atUqmzhxoh199NH2yiuvuKrL8fHxries3B4AAAAAABSkPAW6GkpIFOgCAAAAAFAU5SnQVcdTFStWtMTERJ8CAAAAAEDRkqdAt3jx4nbnnXfa559/bosWLfKpAAAAAAAUHXkKdEWdUP3hD3+wnj172ssvv2yLFy+2DRs22MaNG/d6bNmyxb8LAAAAAICCUSxNXSnnQaNGjQ64NLd9+/Y2efJk/wohddKVx91ecIYW8bGP+43wT3Lxe19/iYZtAAAAAA6B/MZOeS7RbdCggTVp0uSAHvXq1fPvAgAAAACgYOS5RBcHjxLdg0CJbuGjRBcAAAAFpMBKdA+X5cuX23333WfHHHOMtWrVys4880z78ccf/dRMw4cPt379+lmbNm3sL3/5i61bt85PSbdp0ybXYZbG+D322GPtu+++81MyDRkyxPr27evmuf3221174kjr16+3W265xU0/7rjjclyPb775xi1f89xzzz22efNmPwUAAAAAUJgOOtDdvXu364xq586dPiV/FHxOmjTJLr/8cnv00Uetdu3aLqAdOXKkn8Ps119/tRNPPNH69+9vL774ok2fPt1OOeUUS0lJcdMV6Z9zzjk2YsQIe/bZZ+3888+3M844w77//ns3XRS0nnrqqS79+eeft9GjR7vn4V2C1NRUGzBggI0bN85NP/300+3kk0+2n376yU0XBblnn322W74+R8vUcwrHAQAAAKDw5avq8p49e1yPyx9++KELFOWZZ55xJayiwPKDDz6wG264wbp16+bS9icpKcni4+P9q3QqMVWb4P/+97/utUp54+Li7JNPPnGvV69e7QLiwYMHu6B4woQJ1qVLF5s7d641bdrUzXPttdfa7NmzXfArCpJr1aplb731lnu9dOlSq1+/vv3yyy929NFH26hRo6x3794uPSEhwc3zxz/+0ZXyfvvtt+51r169rF27di7Yljlz5liLFi1cx1vqgGt/qLp8EKi6XPiougwAAIACUmBVl7du3eqq/d50000uyFWgmV3Hjh3tnXfeseeee86n7F/2IFdiY2Pd2L2ijVMwqtLXUI0aNax79+4uOBVNV8AZBrmiEtkxY8a4QFolv1pnDY8UUodZCk5//vln91rL6NSpU0aQK1qG0lXaqyBfpb2Ry2jevLn7zHAZAAAAAIDCk+cSXbWjffjhh13p6mOPPWZVqlSxSpUqZSnRFZWOrly58oCHIspOwatKdBVgHnXUUbZ9+3YrW7asK1VVdeXQaaedZhUrVrR3333XBd8KQlXFOfTbb7+59y9ZssRKlSpl1atXd+18+/TJLDVTO1z1Ev3qq6/aVVdd5dZ56NChfqrZsGHD7Pjjj7e1a9e69VAps4LnyNLqHj16uMfTTz/tUzLpLkR2v435zT8LAvqYWFcSvW79OluwYIFPNatWrZo1atjI5syd49oehxTMly1T1sZPGO9TzOLj4l2AvmbNGlu0OHOf16xR05VYz5o1y7ZszRzXuHWr1laiRAmbOGmiTzH3usPam21VSiNbktzWp5rVjptnCbEzbUZSb9uWWsmnmrUtPtxiLdkm7znBp5iVKrbV2hUfZitSmlpiciufalY3brbViZ1j05L62o7U8j7VrH3xoZZmMTZ1z3E+xaxMzCZrE/+TJaa0tBXJzXyqWb24GVar/+s2ZcoU27V7l08169iho7uRMX3GdLO16ce+XMx6axX/c7AdbYLtaezSpGHcFKseu9gm7ulvSWklfapZ5xKD3HrNSurlU8wqxqyx5vGjbVFye1uT0sCnmjWOn2hVYxJt/J5TLSUtzqeadSvxtW1OrWZzknr4FLPKsSutadxYW5DcydalJAQH9WiX3rRJU6tcubKNHTc24w6V8km3rt1sw5CLbF5SV5cmVWMTrXHcRJuXHExLqeVTLVi336xCzFobu3uATwnyUrFk61L8W1uXmmALkjr5VHPbrG2fk3SUbUqt7lPNWgb7qHTMFpuwO/Ocii+2yzoVH+y2Wdseqhm7wOrHTbeZdV50N7xCbVq3cTeqJk2e5FPMSpYo6W4g6RqwNHGpTw3yUu3allA3wR0rnUuhdm3bue2fMnWKTzErXaq0awOv9vvLli/zqeber+VMnTY1S5OJDu07uJtZ06ZP8ynmzpPWrVtbYmKirVi5wqea1a9X32rWrGmTp0x2zS9CnTp2cq9nzJzhU8zKlytvLVu2dNeQVatX+dQgLzVo6K4nEydOtKTkJJ9q1qVzF9u2fZurSRLSNap5s+a2cNFCdx0JNW7c2KpWqWrjx4+3lNT0JhjSvVt327hpo6udEqpSuYq7Ts1fMN/VMAnpJlvlSpVtzNgxPsUspliMde3a1c2n+UPVqgbXlEaNbO68uVn6JmjRvIWVK1fOxo0f51PM1Z7p3KmzW1+td6hG9RruGqjt27wls2+CVi1buWvshIkTfIq5G5U6P1X7ZvGSxT7VrFbNWu4mo/bztm3bfGouealkkJfa7Z2X6tSpY3Xr1HXHe8eOHT41PS+J8keodOkgL7Vp6/KR8lOoXkI9V8NH+W7XrlyuKZ6+f3TdVG2flatW+lSzBvUbuJuuWmfdCA1p3yl/zpw106eYVShfwV2/Nf786jWrfaq567yu99p3ycnJPtWsa5eu7lybPSczL+n7tlnTZrZwYZCX1mXmpSaNm7jvY30Hpqal+tT0vLRh4wabN2+eTwnyUjCf5p8/P8hLGzLzUrNmzaxSxUpZ8lKR+n4KzvFVq1bZkqVLfGpwTakVXFMSEmzGjCAvBeddSMdbN8t1joeUP5U/VqxYYYnLEn1q8P0U5CPlp2nTgry0MzMvKd/p+hyZl8qUKePyqd6v5YQy8tK+vp88nWs6X7Qd2p5QxjUl2G69J6S8pPXSfgpVrBBcU5o3d/tT+zXUuFFwTakaXFOC/R826xJ9t6gvER2vkK4bun4sWLggS38n+/x+2hDkpfmZeUmfpc9U/lI+C+l6V6FCBbeMkI6Hro/6LH1mSNusbVftuE2bM/OSrrv6Hoi8puj6oOv0XnkpuJ7ruq7zje8nvp/4fkoXTd9PPbr3yFeJbp4CXe1YfaFohyoTKaPpCy6nQPf666+3l156yR0cfUHlhS7mqh6sjqLU0ZNs2bLFXTRVTVntdEMKuLV8VaO+8cYbberUqVna9eoE1Qmlna5MrkyjIFrLD2l52q433njDBg4c6L68Itv1ankKuvWFpIufTn5Vk9YXd0jLU0n2gZRi64KZn4NVIKi6fHhRdRkAAAA4YPmNnfJUdVmBnu58qCMmBbn7Ur58eqld5N2QA6E7eqoaffXVV9vdd9/tU9PveOgzI++yiZavO4+igDvyzomE82tauE45zbO/ZWgH6/268yX7WgYAAAAAoPDkKdANI+n9Bbmi6i2Sl9JcFVMryL344otd9WgFlyFXTaFzZ1eSGlIRukpwVTVZ1F5XJc2RQah6clZ1LAWornpA27auKkfIVQOZMcNVOxYtQ705RxbxaxkdOnRwJcIKZlWiG7kMBdsK0MP1AAAAAAAUnjwFuqrvr3ryke1Xc6J2CF9//bWrr6/2LAdC7WLVbla9Ij/wwAMueFTd78igVUMHvf766xl12F977TU3X1iVuXfv3i6wfvLJJ11Qrrr7L7zwgiuBDum5ektWybTm0RBCona6ora4CqCVrukqxVYP0/rs0FlnneWmq52J5tHnaTsjq0MDAAAAAApHngJdNbq+5JJLbOzYsRnD82SnwE/tahUgXnrppVlKZffls88+cwGslqu2uKomrEdk78bqbEqBqBpL66GA+L333nMNrUXza1gjBbcqxVUjeJXg3n///W663HXXXa7UVtO0jMcff9y9R1WWRY2g1bHVv//9bzddnT307NnTtRcO6XOVrkBen6NOrNRGWG2XAQAAAACFK0+dUYl6xlLnTuq9TyWp6gH55ptvtiuvvNLatGnjxrxVVV/Xy1fwX50/HQhVIY7sXS6kXvqylwqr9Felqa1atcqxxFg9ian6cVjNOCfqPVLVq9Xjnao0Z6c2tzNnznQ9CjZs2NCnZqV9oc64FEzrJsCBojOqg0BnVIWPzqgAAABQQPIbO+U50BW1T1Vvx+rGOicaLkDDACmIxN4IdA8CgW7hI9AFAABAASnQQFfUjnXEiBH2ySefuIBX7XI1dtgFF1xg/fr1O6AOq45UBLoHgUC38BHoAgAAoIAUeKCL/CPQPQgEuoWPQBcAAAAFJL+xU546owIAAAAAoKjLc4nu4sWLLSkpyb/aNw31U69ePf8KIUp0DwIluoWPEl0AAAAUkAKrutyoUSPX6/GBaN++vU2ePNm/QohA9yAQ6BY+Al0AAAAUkAKrutyxY0c3Dm32R7du3dy4syENudOuXTv/CgAAAACAgnHIO6NS1eZrrrnGVqxYYcOHD3fj0CIrSnQPAiW6hY8SXQAAABSQAivR3Z8GDRrYF1984QLdO+64w6cCAAAAAFAwDkuvy6VKlbLTTz/d3nvvPTfeLgAAAAAABeWwDS9UvHhx1zvzli1bfAoAAAAAAIffYQl0t23bZl999ZULdsuUKeNTAQAAAAA4/PLcGZU6mNqxY4d/lZWqKc+cOdPeeustmzt3rl166aX29ttv+6kI0RnVQaAzqsJHZ1QAAAAoIPmNnQ7bOLodOnSwQYMGWa1atXwKQgS6B4FAt/AR6AIAAKCAFFige/vtt9vatWv9q6xiY2OtevXqduKJJ9oxxxxj8fHxfgoiEegeBALdwkegCwAAgAJSYIEuDh6B7kEg0C18BLoAAAAoIPmNnQ5br8sAAAAAABQGAl0AAAAAQFTJc9XlO++8M9c2ugfivvvusyZNmvhXRyaqLh8Eqi4XPqouAwAAoIAUWBvdA+11OTe//vqrHXXUUf7VkYlA9yAQ6BY+Al0AAAAUkAILdIcOHWpPPPGEff/999a7d2875ZRTrGnTpm7anDlz7LvvvrNRo0bZqaeealdffbVbsUg9e/a0ypUr+1dHJgLdg0CgW/gIdAEAAFBACizQffXVV+2aa66x999/3y688EKfmtW7775rl156qb311lv2pz/9yaciRKB7EAh0Cx+BLgAAAApIgQS6ycnJlpCQYF26dLGvv/7ap+ZMY+nOnz/fFixYsFep7pGOQPcgEOgWPgJdAAAAFJD8xk556nV59erVtmrVKuvRo4dPyV23bt1cW97t27f7FAAAAAAADr88BbphJD137lz3f1/mzZvn/qemprr/AAAAAAAUhDwFurVq1bJmzZrZe++9Z2PGjPGpe1PPyp988ol17NjRypUr51MBAAAAADj88hToxsbG2oMPPmgpKSnWq1cvu/LKK+3TTz+1SZMmucfHH39sV1xxheuNWaW/DzzwAO1zAQAAAAAFKs+9Lstzzz1nt912myUlJfmUrIoXL+7m0fBC2BudUR0EOqMqfHRGBQAAgAKS39gpX4GuLF261PW8PGjQINdBlVZAVZs1ru6AAQOsbt26fk5kR6B7EAh0Cx+BLgAAAApIgQe6yD8C3YNAoFv4CHQBAABQQPIbO+WpjS4AAAAAAEVdvgPdUaNG2Q033GCtWrWyevXq2ZtvvumnmOuR+ZlnnnHj6AIAAAAAUJDyHOhqXNxrrrnG9az84osv2qxZsywxMdG2bdvm5zCrUKGC3Xzzzfbkk0/6FAAAAAAACkaeA90XXnjBXn31VWvTpo0bK3f+/Pl+SqYWLVq46cOGDfMpAAAAAAAUjDwFumoE/Pzzz1uVKlVc1eVzzjnHPc9J9+7dbc6cObkOQQQAAAAAwOGQp0B35cqVNnfuXLvwwgutYsWKPjVnCoBTUlJs69atPgUAAAAAgMMvT4Hunj173P/KlSu7//uyc+dO9z8uLs79BwAAAACgIOQp0K1ataoLXNWr8r6oivOQIUOsevXqVrZsWZ8KAAAAAMDhVywISvM0+u55551nn376qWuj27NnT9u0aZNVqlTJDSf0l7/8xc3zzjvv2B//+Ee76aab7Omnn3ZpyJTfQY8LxNA+/kkR1W+Ef5KL3/v6C9tw+B3INgAAAKDQ5Td2ynOvy7fccov7sBNPPNHuvvtumzRpkkvfvHmzjRw50gYOHGh/+tOfrESJEnb11Ve7aQAAAAAAFJQ8l+jKxx9/7Epsd+/e7VOyKlmypBt66LTTTvMpiESJ7kGgRLfwUaILAACAAlJgJbqi6svqffmRRx6xLl26uLa4ar/brl07e/jhh900glwAAAAAQGHIU4muel1W+9zy5csTyB4ESnQPAiW6hY8SXQAAABSQAinRXbFihV188cX2wQcf+BQAAAAAAIqWPAW6pUuXdv/LlSvn/gMAAAAAUNTkKdCtVq2atWjRwkaMGFF0q94CAAAAAI5oeQp0VT/68ccftzlz5ti//vUvgl0AAAAAQJGT5+GF3njjDfvss89s0KBB1rJlS+vfv7/Vrl3bYmNj/RyZVAJ86aWX+lcI0RnVQaAzqsJHZ1QAAAAoIPmNnfIc6DZq1MgWLVrkX+1b+/btbfLkyf4VQgS6B4FAt/AR6AIAAKCAFFig++KLL9qmTZv8q32rUaOGXXHFFf4VQgS6B4FAt/AR6AIAAKCAFFigi4NHoHsQCHQLH4EuAAAACkh+Y6f9dkZ17rnnWt26dW337t0+Jd3q1avt119/df+LogPZGfub51AsAwAAAABQsPYb6K5du9aWL1/uX2X65ptvrGfPnvbtt9/6lIP3xBNP2DnnnGOtW7e2G2+80admev75593wRpGPW265xU9NN3/+fDvllFNc51hVq1Z1vURHBqN6/tRTT7mOsmJiYlxnWnPnzvVT082aNctOOOEEN7169er23HPP7bWMf//731a5cmX3OaeddtoBt1sGAAAAABxeeRpe6HAbPny46+yqfPnytmzZMp+aSUF3hQoVXMAbPgYOHOinmiUlJdkf/vAHK1OmjK1Zs8Y+//xz++c//+l6ig6988479re//c0++ugjW79+vQt4BwwYYHv27HHTVXKtwLVmzZpu+gcffGD33HOPffjhh266vPLKK/bII4/Yl19+6T6nZMmS7nOTk5P9HAAAAACAwlKkAl2VEj/66KPWvHlzn7I3Bab9+vXLeLRt29ZPMRs9erTNnj3bBcAqzT3mmGPsuuuuc4Fp6NVXX7Urr7zSjjvuOFciq9Jalcb+9NNPbrqCbQXZStf0448/3s0fuQw9v+GGG9zy9Tn6vOnTp9vYsWP9HAAAAACAwlKkAt0DsWTJErvvvvvs73//u40fP96nplOb4TZt2rjenkMKaCdNmmQ7duxwpbbjxo1zAXKoUqVK1qFDB/v555/d619++cU6d+5sFStWdK9FyxgzZowrMd6+fbtNnTo1yzJU+tuqVauMZQAAAAAACs9+e13u06ePK+3ctWuXlShRwqeaqw6skk79j6w+fChcdtllbgijL774wqekU7vYkSNHuurNajes6XfccYcrBZY///nPLqiNDDhVytq9e3dbvHixq2KsoFTb07t3bz+HuaC1YcOG9tprr7nhkBITE23IkCF+qtmIESOsb9++rprytm3b3OcrYO7SpYufw+zoo4+2rl272jPPPONTMqmnsOx+G/Obf2YWGxPrlrVu/TpbsGCBT00vvW7UsJHNmTsny5BOaptctkxZGz8hM9CPj4u3Tp06uXVctDizvXDNGjWtfv36rt3xlq1bfKpZ61at3fGcOGmiTzH3usPam21VSiNbkpxZUl47bp4lxM60GUm9bVtqJZ9q1rb4cIu1ZJu85wSfYlaq2FZrV3yYrUhpaonJrXyqWd242VYndo5NS+prO1LL+1Sz9sWHWprF2NQ9x/kUszIxm6xN/E+WmNLSViQ386lm9eJmWK3+r9uUKVNs1+5dPtWsY4eO7ibE9BnTzdb+6tLKxay3VvE/B9vRJtiexi5NGsZNseqxi23inv6WlFbSp5p1LjHIrdespF4+xaxizBprHj/aFiW3tzUpDXyqWeP4iVY1JtHG7znVUtLifKpZtxJf2+bUajYnqYdPMascu9Kaxo21BcmdbF1KQnBQj3bpTZs0dTUGxo4bm9H+W/mkW9dutmHIRTYvqatLk6qxidY4bqLNSw6mpdTyqRas229WIWatjd09wKcEealYsnUp/q2tS02wBUmdfKq5bda2z0k6yjalVvepZi2DfVQ6ZotN2H2KTwnyUrFd1qn4YLfN2vZQzdgFVj9uus2s86Jt3brVp5q1ad3G4uPjbdLkST7FrOS6H9yxXZnSxJYmt/apyktzg7w0y6YnHWvbUzNvJinPFLNUm7In8waS1qtt/HBbntLcliW38KlmCXEzrXbsPJdndqaV86lmHYr/YCkWZ9P29PUpZmVjNlrr+JFBXmoV5KWmPtWsfucL3bVg8pTJWTra69Sxk3s9Y+YMn2JWvlx5a9mypbvJtmr1Kp8a5KUGDV0b/okTJ1pScpJPNevSuYtt277N1S4J6cZZ82bNbeGiha4JRqhx48ZWtUpVd9MuJTXFp5p179bdNm7amKX/gCqVq1iTJk1s/oL5rllFqGnTIC9Vqmxjxo7xKWYxxWLc9Ujzaf5QtarBNSW4fs2dN9c2btzoU4NrSvMWVq5cORs3fpxPMYuLi7POnTq79dV6h2pUr2ENGjRw27d5y2afataqZSsrVaqUTZg4waeYFS9e3J2f6rRw8ZLFPtWsVs1aVq9ePbefdU0N5ZiXgut2+3btbeXKlbY0calPNatTp47VrVPXpk2f5m5khtq1bef+T5021f2X0qVLW9s2bW3Z8mVZ+pyol1DPatWqZVOmBteU4DsulOWa4pUtW9ZdN5cuXWorV630qWYN6jdwN1e1zmETGNG+27lzp82cNdOnmFUoX8Fdv/V9tHpNZkeOus7req99F9kEpmuXru5cmz0nMy/p5myzps1s4cIgL63LzEtNGjexKlWquO+m1LRUn5qelzZs3GDz5s3zKUFeCubT/OrTYv2GzLzUrFkzq1SxUpa8VKS+n9p3sFWrVtmSpUt8anBNqVXbEhISbMaMIC8F511Ix1t9aOgcDyl/Kn+sWLHCEpcl+tTg+ynIR8pP06YFeWlnZl5SvtP1OTIvqWmU8qner+WEMvLSvr6fPJ1rOl+0HdqeUMY1JdhuvSekvKT10n4KVawQXFOaN3f7U/s11LhRcE2pGlxTgv2fkpJ5TdF3y+bNm93xCum6oevHgoULbN26dT51P99PG4K8ND8zL+mz9JnKX8pnIV3v1NRMywjpeOj6qM/SZ4a0zdr2OXOCvLQ5My/pulu6VOks1xRdH3Sd3isvBdfz+vXqu/Ntv99PJYJrSvu9rym1awd5qW6CO1Yq1Agpz2j7dZ0Iab1Uo1DXE11XQnq/lqM8o/M/pLyr46HrVUjnifqk0W/OFSsz85K2g+8nvp/4fsr6/dSje48s/SUdqAMOdHUxjgx01db1L3/5i6vie8kll/jUrHRRU+bMq9wCXa1qZNCodrYXXHCB2xk6IRXoTp482UaNGuXnMLdTu3Xr5qonK5Pr4qFgWdWOQ+p4Sl+2r7/+ugt0VXV58ODBfqq57dd+0Mmgi59ORJ34KvkNqWMuvX722Wd9Su60Dfk5WAWC4YUOL4YXKhoYXggAAOB3Ib+x0wFXXVaAqEg9fCjIFQWXkemRj8hg8lCIDHJFQx/pro6qLIvufETefRHdbdD7dNdRd610NyanebR9ov85TdedH71fy5Gc5tHnAwAAAAAK1++ujW4klbCqGF1BtRx11FGuU6jIKjgqjVUbXBXrq0Rapa6qihxSVR6VAvfqlV5lVVWQVdVDgWtIy1CpsIJdlVCruorSQqo6oWpT4TIAAAAAAIVnv4HuoEGDbMuWLfl6qGOnvFD7GJXOqu2F6u7rudrchl588UXXhkPL1v9LL73UlaKeeOKJbrqCVFVBvu2221zdc71X77n88svddNFz9ZqsKs1q66A2virFPfbYY910tcVVqe3tt9/upquNr9ruZl+Gqmxr+focfZ7aJvTokdk2EwAAAABQOPYb6KqRtEox8/NQpw15ofFt1eZWpbJqWK/nCjhDGrdWHQiog4N27dq5Etphw4a5klbRa82jRtBab1Wdvv76691QQKGrrrrKBaYKaNWIXJ07fP311679ruh9eq2elTVdHVXdddddWQJdVdu++uqrXbtcza82vfpcVYsGAAAAABSu/XZGVdSkpqa6HswUhKp9bm5U0qoAWB1i5US936kHsjDAzU67Rb2c7W8Z6vlM65IXdEZ1EOiMqvDRGRUAAAAKyGHvjKqoiImJce1t9xXkigLY3AJU0bTcglzRDj2QZeQ1yAUAAAAAHF6/686oAAAAAADIjkAXAAAAABBVCHQBAAAAAFGFQBcAAAAAEFUIdAEAAAAAUYVAFwAAAAAQVQh0AQAAAABRhUAXAAAAABBVCHQBAAAAAFGFQBcAAAAAEFUIdAEAAAAAUYVAFwAAAAAQVQh0AQAAAABRhUAXAAAAABBVCHQBAAAAAFGFQBcAAAAAEFUIdAEAAAAAUYVAFwAAAAAQVQh0AQAAAABRhUAXAAAAABBVCHQBAAAAAFGFQBcAAAAAEFUIdAEAAAAAUYVAFwAAAAAQVQh0AQAAAABRhUAXAAAAABBVCHQBAAAAAFGFQBcAAAAAEFUIdAEAAAAAUYVAFwAAAAAQVQh0AQAAAABRhUAXAAAAABBVCHQBAAAAAFGFQBcAAAAAEFUIdAEAAAAAUYVAFwAAAAAQVQh0AQAAAABRhUAXAAAAABBVCHQBAAAAAFGFQBcAAAAAEFUIdAEAAAAAUYVAFwAAAAAQVQh0AQAAAABRhUAXAAAAABBVCHQBAAAAAFGFQBcAAAAAEFUIdAEAAAAAUYVAFwAAAAAQVQh0AQAAAABRhUAXAAAAABBVimSgm5KS4h65WbVqlU2fPt127drlU7JKSkqyGTNm2PLly33K3lasWOHm2bNnj0/Javfu3W76ypUrfcretHzNo88DAAAAABQNRSrQvfzyy6158+YWFxdnZ599tk/NpOD32muvtcaNG1v//v2tSZMmNnjwYD813ciRI90yjj/+eGvWrJn98Y9/zBLMKijV5+i9J5xwgptnxIgRfmq6oUOHWtOmTd10zXfVVVdZcnKyn2ouwL7ooovce/U5LVu2tF9//dVPBQAAAAAUpiIV6FavXt3uv/9+O/nkk31KVi+++KJ9+umnNmXKFFu2bJn95S9/sfPOO8/Wr1/vpm/fvt29Pvfcc12J7Zw5c1zg+8gjj7jp8uSTT7rgeNasWa5EVkHvOeecY1u2bHHTN23a5JZx5ZVXZpTYfvPNN/bss8+66fLPf/7TBbZz5851n3PWWWe5ZezcudPPAQAAAAAoLEUq0FVAeskll7iANycfffSRC0BVylqsWDG75ZZbXOnvkCFD3PRRo0a5gPWvf/2rxcTEWN26de2GG26wDz/80E0XLeO6666z+vXru2Xceeedrpry8OHD3fRhw4a5kmOla3qDBg1cKXLkMj7++GMXZNepU8d9jj5vw4YN9ssvv/g5AAAAAACF5XfTGZWqDo8bN866devmU8zi4+OtY8eOGdWGR48e7aoRlytXzr2Wrl272syZM23z5s2uxFWlwZHLKFWqlLVt2zbLMtq1a2clS5Z0r0XLmDhxoquyrBJfleQqLVS+fHlr0aIF1ZcBAAAAoAgolhbwz4uMyy67zAWUX3zxhU8xV1JboUIFV+34xBNP9KlmZ555pgtKP/jgA7vxxhtt6tSprrpyaPz48S4oXbRokZuvVq1aruS3V69efg5zy6tXr569/vrrNnDgQFcd+fvvv/dT09v9HnvssbZ69Wrbtm2bayM8YcIE69Spk5/D3PL0OrKKc0glw9n9NuY3/8wsNibWunTpYuvWr7MFCxb4VLNq1apZo4aNbM7cOW5/hBRUly1T1sZPGO9TgqA/Lt59/po1a2zR4kU+1axmjZqu9FpVtbdsTa+eLa1btbYSJUrYxEkTfYq51x3W3myrUhrZkuS2PtWsdtw8S4idaTOSetu21Eo+1axt8eEWa8k2ec8JPsWsVLGt1q74MFuR0tQSk1v5VLO6cbOtTuwcm5bU13aklvepZu2LD7U0i7Gpe47zKWZlYjZZm/ifLDGlpa1IbuZTzerFzbBa/V93Nyt27c7siKxjh46u7fX0GdPN1qbfbCgXs95axf8cbEebYHsauzRpGDfFqscutol7+ltSWubNjM4lBrn1mpWUmS8qxqyx5vGjbVFye1uT0sCnmjWOn2hVYxJt/J5TLSUtzqeadSvxtW1OrWZzknr4FLPKsSutadxYW5DcydalJAQH9WiX3rRJU6tcubKNHTfWwlNQ+aRb1262YchFNi8p80ZK1dhEaxw30eYlB9NSavlUC9btN6sQs9bG7h7gU4K8VCzZuhT/1talJtiCpMz8qW3Wts9JOso2pWbWmGgZ7KPSMVtswu5TfEqQl4rtsk7FB7tt1raHasYusPpx021mnRdt69atPtWsTes27qbTpMmTfIpZyXU/uGO7MqWJLU1u7VOVl+YGeWmWTU861ranVvSp5vJMMUu1KXv6+RRz69U2frgtT2luy5Jb+FSzhLiZVjt2nsszO9Myb2p1KP6DpVicTdvT16eYlY3ZaK3jRwZ5qVWQl5r6VLP6nS+0mjVr2uQpk12NjlCnjp3SO6KbOSMjL5WPWRfsp1/cOaFzI9QwbnKwX5cEeemkIC+V8KlmXUp8E5wnlW12Uvqxlooxq93xWpjcwdam1PepyksTgry0bK+81L3El7YxtabNTeruU8yqxC63JnHjbX5yF1ufUiczLzUN8lKlyjZm7Bj3WmKKxbjrnpp1zF8w36cGb6kaXFMaNbK58+baxo0bfWpwTWnewt0gHDd+nE8xV1umc6fOtnbtWlu4aKFPNatRvYar6TJ79mzbvGWzTzVr1bKVu3E4YeIEn2JWvHhxd37q2rl4yWKfalarZi13zdV+1jU1lGNeCq7b7du1dx0DLk1c6lPN1aipW6euTZs+zXbs2OFTg7zUtp37P3XaVPdfSpcubW3btLVly5dl6aSwXkI9950wZWpwTYno3DDLNcUrW7asu24uXbrUVq7K7KSwQf0GVqNGDbfOkf1BaN/p5urMWTN9ilmF8hXc9Xvx4sW2es1qn2ruOq/rvfZdZH8QXbt0defa7DmzfYpZpUqVrFnTZrZw4UJbu26tTzVr0riJValSxd0QTk1L9alBXurW3TZs3GDz5s3zKUFeCubT/PPnz7f1G9Kb/oj6nahUsVKWvFSkvp/ad3CdUS5ZusSnBteUWrUtISHBNTPatj0zL+l4x8bGunM8pPyp/KHv+MRliT41+H4K8pHy07RpQV7amZmXlO90fY7MS2XKlHH5VO/XckIZeWlf30+ezjWdL9oObU+oYYOGrkabtjuyk0vlJa2X9lOoYoWKrj8S7U/t11DjRo2tatWqbv9Hduqp7xbd8NfxCum6oevHgoULbN26dT51P99PG4K8ND8zL+mz9JnKX8pnoebNmrvfbFpGSMejS+cgLwWfpc8MaZu17WputmlzZl5SwUXpUqWzXFN0fdB1eq+8FFzP69er7863/X4/lQiuKe33vqbUrh3kpboJ7lipKVxIeUbbr+tESOulQhJdT3RdCen9Wo7yTGRzNuVdHQ9dr0I6T1q3bm2JiUFeWpmZl7Qd+/1+8sqXK+/205IlQV5anUNemhjkpeTMvKT9r/NE1+9QxYpBXgqOl67zut6H9Fu3apUgLwW/o1NSM/OSrikbN210hT6hKpWDa0qT4JoSfN+EzQmF7ye+n+RQfD/16N4j43qUF7+bQFeZTRl90KBBWdrwDhgwwF1M3333XVedWAFoZBXiMWPGWI8ePdxFQBlSB1ydTylwDalDKZ3Qr776qqsarXl/+OEHP9VctebjjjvOnVBaj4YNG9rYsWOzlOoeddRR1r17d3v66ad9Su50wSyCuz3d0D7+SRHVL2vHYXv5va+/sA2H35GyDQAAAL9z+Y2dfjdVl3UXVXcYI+8ci17rjrDoLo7uWEbSdN21UYCr92s5Oc2j90puy9DdEt2p0F023UnKPo/uPoXLAAAAAAAUnt9NoKtI/uijj3Y9IIdU7eG3336zY445xr3u2bOnq76kYvfQt99+60peVe1JAapKXb/++ms/NX083UmTJmVUZdYyVCocWZ1Iy9Bnq9qNSoU7d+6cZT1URK8qN+F6AAAAAAAKT5EKdFVV+ZVXXnF169WmVs/Vw3Ho1ltvda9ffvllmzx5shsjV20T+vVLb9engFaBqtLVpuDtt9+21157zW6//XY3XbSM//73v/bmm2+6tguaV+8LA93evXtbhw4d7NJLL3XT33jjDXvnnXfstttuc9NFz7VuWr4+R1WtVRU6ss0uAAAAAKBwFKlAV51Effnll66KsRpy67mG+wn17dvXPv/8cxdgnn322a6RtjqNUkmtaKgfTW/Tpo2df/759vzzz7sg9YwzznDT5dRTT3VDDClQ1Xi76nxDJbx6r6jUVqW1aoer6eqgSmP3RnaApfT//Oc/ruOpCy64wPX8/L///c+VOgMAAAAACleR7Iwq2tEZ1UGgM6rCxzYUDXRGBQAAjgBR3xkVAAAAAAAHgkAXAAAAABBVCHQBAAAAAFGFQBcAAAAAEFUIdAEAAAAAUYVAFwAAAAAQVQh0AQAAAABRhUAXAAAAABBVCHQBAAAAAFGFQBcAAAAAEFUIdAEAAAAAUYVAFwAAAAAQVQh0AQAAAABRhUAXAAAAABBVCHQBAAAAAFGFQBcAAAAAEFUIdAEAAAAAUYVAFwAAAAAQVQh0AQAAAABRhUAXAAAAABBVCHQBAAAAAFGFQBcAAAAAEFUIdAEAAAAAUYVAFwAAAAAQVQh0AQAAAABRhUAXAAAAABBVCHQBAAAAAFGFQBcAAAAAEFUIdAEAAAAAUYVAFwAAAAAQVQh0AQAAAABRhUAXAAAAABBVCHQBAAAAAFGFQBcAAAAAEFUIdAEAAAAAUYVAFwAAAAAQVQh0AQAAAABRhUAXAAAAABBVCHQBAAAAAFGFQBcAAAAAEFUIdAEAAAAAUYVAFwAAAAAQVQh0AQAAAABRhUAXAAAAABBVCHQBAAAAAFGFQBcAAAAAEFUIdAEAAAAAUYVAFwAAAAAQVQh0AQAAAABRhUAXAAAAABBVCHQBAAAAAFGlWFrAPy/yVq5caatWrfKv0lWsWNEaNmzoX6XTfD/99JNVqVLFjj/+eIuJyRrPp6am2rBhw2zdunXWu3dvq127tp+SadmyZfbzzz9b9erVrW/fvlasWDE/JZ2WMXToUNuwYYObXqNGDT9l/7SsIrvbh/bxT4qofiP8k1z83tdf2IbD70jYhmg4BgAA4IiX39jpd1Wi+9JLL1m3bt3shBNOyHj885//9FPTvf3229a4cWN7/fXX7ZprrrGuXbvaxo0b/VSzTZs2WY8ePeyKK66wN99805o2bWr/+c9//NR0r776qjVr1sxNv/zyy61nz562ZcsWP9VcgNypUye79tpr3efo8z744AM/FQAAAABQmH53VZf79+/vAs3woUAzpNcKPp999llX2jpz5kxX8vq3v/3Nz2H2j3/8w7Zv326zZs2yIUOGuKD2+uuvt9WrV7vpK1assBtvvNHeeOMNN13zKVCODKj/+te/ulJiLV+f89RTT9nVV1+dJaAGAAAAABSOqGqjO3LkSCtZsqT98Y9/dK/1/LrrrrNvvvnGvZZBgwa5YLh06dLu9fnnn2/ly5d3VZnlxx9/dFWezzvvPPda8ymIjVzGt99+azfccINbvujzYmNjbdSoUe41AAAAAKDw/O4C3V9//dUaNWrkqhbfeuuttn79ej/FbNy4ca4acfHixX2KWYsWLWzx4sWutHfbtm02Z84clxaKi4tz1ZfHjh3rXo8fP94tW4FrqGXLlq70ViXBa9asce13lRYqUaKEW6cxY8b4FAAAAABAYflddUalUtXNmze7zqdUxfjuu++2cuXK2YQJE1xVYlU5njZtmuuIKqRpXbp0sYULF1qpUqWsVq1arpMptbsNqTp03bp1XXXlgQMHus6svvvuOz/VXEmtOq1SR1gKlps0aWKTJk2yDh06+DnMjjnmGPf6ueee8ymZsndkJb+N+c0/M4uNiXXruG79OluwYIFPNatWrZo1atjI5syd49oWhxSoly1T1sZPGO9TzOLj4l27YQXiixYv8qlmNWvUtPr167sq2Fu2ZrYzbt2qtQvQJ06a6FPSA/YOa2+2VSmNbElyW59qVjtuniXEzrQZSb1tW2oln2rWtvhwi7Vkm7znBJ9iVqrYVmtXfJitSGlqicmtfKpZ3bjZVid2jk1L6ms7Usv7VLP2xYdamsXY1D3H+RSzMjGbrE38T5aY0tJWJDfzqWb14mZYrf6v25QpU2zX7l0+1axjh46WlJRk02dMN1v7q0srF7PeWsX/HGxHm2B7Grs0aRg3xarHLraJe/pbUlp6ibx0LjHIrdespF4+xaxizBprHj/aFiW3tzUpDXyqWeP4iVY1JtHG7znVUtLifKpZtxJf2+bUajYnqYdPMascu9Kaxo21BcmdbF1KQnBQj3bpTZs0tcqVK9vYcWMzGtcrn3Tr2s02DLnI5iV1dWlSNTbRGsdNtHnJwbSUWj7VgnX7zSrErLWxuwf4lCAvFUu2LsW/tXWpCbYgqZNPNbfN2vY5SUfZptTqPtWsZbCPSsdssQm7T/EpQV4qtss6FR/stlnbHqoZu8Dqx023mXVetK1bt/pUszat21h8fLxNmjzJp5iVXPeDO7YrU5rY0uTWPlV5aW6Ql2bZ9KRjbXtqRZ9qLs8Us1SbsqefTzG3Xm3jh9vylOa2LDnz5lRC3EyrHTvP5ZmdaeV8qlmH4j9YisXZtD19fYpZ2ZiN1jp+ZJCXWgV5qalPNavf+UKrWbOmTZ4y2Xbv3u1TzTp17ORez5g5IyMvlY9ZF+ynX9w5oXMj1DBucrBflwR56aQgL5XwqWZdSnwTnCeVbXZS+rGWijGr3fFamNzB1qbU96nKSxOCvLRsr7zUvcSXtjG1ps1N6u5TzKrELrcmceNtfnIXW59SJzMvNQ3yUqXKNmZs5o22mGIx1nXzHbY+tY7NT+riU4O3xC61RnGT3HK1/FCL+F/dOTMuIi/FFUuyzsUHBetbL1jvjj7VrEbsImsQN9Vtn/J7qFX8KCsVsy3ISyf7FLPiQV7qGOSl1SkNbXFyO59qVit2vtU76QW3n3VNDeWYl0qWtPbt2rvr8tLEpT7VrE6dOla3Tl2bNn2a7dixw6cGealt+udMnTbV/RfVzGnbpq0tW77Mli9f7lODa0pCPfedMGVqcE3Zlcs1xStbtqy7bi5dutRWrlrpU80a1G/gOiPUOu/Zs8enBteUTp1t586dNnPWTJ9iVqF8hYybr6vXpDeXEV3ndb2fMHGCJScn+1Szrl26unNt9pzZPsWsUqVK1qxpM/edtnbdWp9q1qRxE1cbSTd8U9NSfWqQl7p1tw0bN9i8efN8SpCXgvk0//z58239hsybxbrJW6lipSx5qUh9P7Xv4L6Hlyxd4lODa0qt2paQkGAzZgR5aXtmXtLx1g1rneMh/QZQ/tDvh8RliT41+H4K8pHyk34/7NiZmZeU73R9jsxLZcqUcflU79dyQhl5aV/fT55+t7Rq2cptR2QHmw0bNHQdYGq79Z6Q8pLWS/spVLFCRWvevLnbn9qvocaNGlvVqlXd/k9JSfGpwfdT8N2i3086XiFdN3T9WLBwgSsMCO3z+2lDkJfmZ+YlfZY+U/lL+SzUvFlzq1ChgltGSMejS+cgLwWfpc8MaZu17SqI2LQ5My+pQKF0qdLuvAjp+qDr9F55Kbie169X351v+/1+KhFcU9rvfU1Rx6QJdRPcsVLBRkh5Rtuv60RI69W2bVt3PdF1JaT3aznKMzr/Q8q7Oh66XoV0nrRu3doSE4O8tDIzL2k79vv95JUvV97tpyVLgry0Ooe8NDHIS8mZeUn7X+fJ7NmZ1xR16qrjtXBRcE1Zm3lNUcFR1SpBXhof5KXUzLyka8rGTRtt7ty5PiW4plQOrinBb+P5C4JrSkQBVK7fT127uvk0f6ha1eCa0qiRzZ03N0tTwBbNW7hzZtz4cT4lvZBK54XWV+sdqlG9hjVo0MBt3+Ytm31q8P0UnG86/yPzkgrFdH6q6eLiJYt9avD9VLOW1atXj+8nr6h8P/Xo3iNfnVH9rgLd7LQjdSIOHz7c+vTpYzfffLMrVR09erSfw9zzo48+2l1IlCF1sFRNWT0lh/RcXxgvv/yyq6asL3NVYQ7peb9+/dxJqYOqk0ifo46xQt27d3fB85NPPulTcpffnsMKBD3NHl70WFw0HAnbEA3HAAAAHPHyGzv9rtvoqmRXd3kVxIruakXejRLd9dOdIN0V0V0C3aXMaZ5WrdJLH3U3I6fpCpB1p0J3aXT3JfIOqnZ85DIAAAAAAIXndxXoZo/kVaVY1TjCAFPVh1Uaq6oaoY8//th69erlqszoboDm+eijj/xUc21v9ejdu7d7remqvhRZrUPza7rer+oSKiGOXIaqR6uoX+8FAAAAABSu31XVZVUfVpCp9g9qG/PMM8+4Kstffvmln8PsggsucO0JNASQ2uxoqCH1xqyqxaKg9KijjnJDCnXs2NH+9a9/uTYS//vf/9x07Y7TTz/d1Re/9957XdCsKs2qqqw2HfLLL7+46s433XSTC7Ifeught17vvPOOm74/VF0+CEdCdU224fA7ErYhGo4BAAA44h0RVZc15I+qKWt4n0WLFtlLL72UEaCG3n77bbvtttvsiy++cG1qFfSGQa507tzZBa9qa/v555+7YPWDDz7wU9N35CeffOKGD/rss89chwTqeCoMckVtcdVLszpUUJB9zz332JtvvumnAgAAAAAK0++6M6rfK0p0D8KRUIrFNhx+R8I2RMMxAAAAR7wjokQXAAAAAID9IdAFAAAAAEQVAl0AAAAAQFQh0AUAAAAARBUCXQAAAABAVCHQBQAAAABEFQJdAAAAAEBUIdAFAAAAAEQVAl0AAAAAQFQh0AUAAAAARBUCXQAAAABAVCHQBQAAAABEFQJdAAAAAEBUIdAFAAAAAEQVAl0AAAAAQFQh0AUAAAAARBUCXQAAAABAVCHQBQAAAABEFQJdAAAAAEBUIdAFAAAAAEQVAl0AAAAAQFQh0AUAAAAARBUCXQAAAABAVCHQBQAAAABElWJpAf8cBaRYsWJWZHf70D7+SRHVb4R/kovf+/oL23D4HQnbwDE4/A5kGwAAwEHJb+xEiS4AAAAAIKoQ6AIAAAAAogqBLgAAAAAgqhDoAgAAAACiCoEuAAAAACCqEOgCAAAAAKIKgS4AAAAAIKoQ6AIAAAAAogqBLgAAAAAgqhDoAgAAAACiCoEuAAAAACCqEOgCAAAAAKIKgS4AAAAAIKoQ6AIAAAAAogqBLgAAAAAgqhDoAgAAAACiCoEuAAAAACCqEOgCAAAAAKJKsbSAf44CUqxYMSuyu31oH/+kiOo3wj/Jxe99/YVtOPyOhG3gGBx+R8o2AABQiPIbO1GiCwAAAACIKgS6AAAAAICoQqALAAAAAIgqBLoAAAAAgKhCoAsAAAAAiCoEugAAAACAqEKgCwAAAACIKgS6+bRhwwZ7/PHH7d5777XRo0f7VAAAAABAYSuWlp/Rd49w8+bNs+7du1u3bt2sRYsW9sYbb9hdd91lf/3rX/0c+5bfQY8LxNA+/kkR1W+Ef5KL3/v6C9tw+B0J28AxOPzIR4XvQI4BAOB3Lb+xEyW6+XDPPfe4IPe7776zp59+2j766CN78MEHbcWKFX4OAAAAAEBhIdDNI91NGDZsmA0cONDdXZCTTjrJqlSpYiNHjnSvAQAAAACFh6rLebRs2TJLSEhw7XJ79OjhU806d+5sxx9/vD366KM+JXdUXT4IVNcsfGxD0cC5UPjIR4WPfFQ0HMg2AEA+5Td2ItDNo/nz51vTpk1t0qRJ1qFDB59q1qtXL+vUqZM9++yzPiVTWPILAAAAAMgbAt0CkFuJbpcuXey44447oBLdI0WRLrk+gnAcCh/HoPBxDIoGjkPh4xgUDRyHwscxKHyH+xjQRjeP6tSpY5UqVbLExESfYpaamuped+zY0acAAAAAAAoLgW4e6c5D37597c0338y4AzF48GBbv3699e7d270GAAAAABQeqi7nw9y5c904uqq63LJlS3vttdfszjvvtPvvv9/PAaFKSNHAcSh8HIPCxzEoGjgOhY9jUDRwHAofx6DwHe5jQKCbTxs2bLC33nrLNm7caKeeemqW9roAAAAAgMJDoAsAAAAAiCq00QUAAAAARBUCXQAAAABAVCHQxWGRkpJiS5YssU2bNvkUFLQ9e/bYokWLXHty4Ei3e/duW7x4MedDIVKfFgsXLnTHAkXHypUr3QOFIxyicvny5XSMhCNeeD6sWLHikJwPBLo45H7++Wdr1aqVtWvXzmrXrm0333yzC3xRMHbt2mUnn3yylStXzpo0aWJVqlSx4447LsvYzyhYX375pZUoUcIuvfRSn4KCoi/Kxx57zI2BHp4PHIeCtXbtWuvfv7/VrFnTunTp4o7BXXfdxY/6w2jBggV2/vnnW+PGjd215+233/ZTMumH5IknnmiNGjVyD31vrFmzxk/FofC3v/3NdVZatmxZO+aYY3xqprvvvtudD/Xq1bO6detaixYtbMSIEX4qDgXtzwEDBrjfozoXpk6d6qfsTb+TwuOBQ0c3NwcOHOjigpIlS9qf//xnPyWrb7/91tq0aWP169d354P+HywCXRxSW7dutbPOOsv+8Ic/uJKTSZMm2fvvv28vvviinwOHW3Jyshv2Svtez3XhVsn6FVdc4edAQVIp1l/+8hd3TJKSknwqCsqTTz5pjz/+uH344Ydu/2/evNluvPFGPxUF4cEHH3Q1fJYuXeq+F77++mt74okn7IcffvBz4FDbsWOH+6H4z3/+04oXL57jzearrrrKnROrVq1yJbp6zzXXXOOn4lDQ/r344ovd6ByqZZWdjs0XX3zhpm3fvt2OPvpoO+OMM2zbtm1+Dhws7csOHTrYAw884PZzbjfYlH711Ve7m0PUOjm0dP3RTYabbrrJBbL6bZrdb7/95uIHBcE7d+50hTbvvPOOn5p/9LqMQ0olV7qo665w6dKlXdpf//pXGzp0qMvEKBy6WFx++eU5XlxweF122WXuruScOXPcawVcKBj6cq1WrZoLdnUcUDiOP/54V1L1wgsv+BRzJSa33Xab++GDw6ty5cruxoK+A0K6+VmpUiX76aefrHfv3i5t2LBhdsIJJ7ibQSqBxKFzzz33uP07ZswYn5KzZcuWWUJCgo0aNcp69erlU3Eo6GZbgwYNbPLkyda+fXufmkm1Ht5880274IILXFC8evVqPwWHkmr3qAbJSy+95FPSnXnmmVa+fHn773//61MODUp0cUiNHj3aXUDCIFd0h3LChAnu7gwKx+zZs61hw4b+FQrK999/b2PHjrV7773Xp6Ag6UelStQVZN1www2uKucrr7zCtaiA6YfNjz/+mFEtVlUJ169fb3379nWvUfDCgOuoo45y/0XP1T5O1ywUjvCG6KGosokDpxoNak7x2muvWbFixXwqCopK2ocMGWLHHnusu8lw7rnn2t///ndX2+RgEejikFJbrDJlyvhX6XRnWCWJukuMgjdlyhR7+umn3UUDBWfLli2uGuDrr7/uquyg4KmqrH606EtTbXTVRu7hhx+2c845x8+BgnDHHXe4dopqI6dSRLUF1Q9KtddC4dB3dXx8vHuE1HYuJiaGdrqFRN8ZauaiZkYq1UXBUMXW6667ztUuadq0qU9FQdINaTWdUJt1XX9Us2T48OHWtWvXg+5AkkAXh5S+JHVHOFL4WtNQsObNm+dKU/TledFFF/lUFIQ777zTTjvtNFejAYVHP2Luu+8+V6qutrmff/656/Bi+vTpfg4cbqo6PnjwYNe0RZ0V6maDbgJNnDjRz4GCltN3tc4VpfFdXfD0I18dJlWvXt2ee+45n4qC8Mknn7gRKtSUAoWrT58+rkqz2krre1pt3NXPz8HgaoZDSu2udFcykkpyVZVZd/JRcDSMh6oGXnjhhe6HJQqOOlJQFVl1BHbJJZe4h6r166HndHRRMMLqf506dXL/RZ2SyMyZM91/HH7qEEnV0dQhT+vWre2WW25x7Q+feeYZPwcKmkoM1YZdAVYo7ACJHmcLlr4vFOTqeKijtlKlSvkpKAi6EafaDGrDru/nN954w7Vh13O158Xhp34ElO87d+7sU8zVDlWzo4O9KU2gi0NKbXx0lz6y6pPaKaraWlxcnE/B4abxQnVnTL1f6yJOm5OCpbz+6KOPuqqyarOuR8WKFd1DzykxKRj60tQPmMh2PuG1SdVoUTDUdCV7ntdreiEvPBrmSdcpfT+HVOquZhaRN4ZweKm/AH1Pq8flQYMG0QlYIVD/DWrOEn5Xq7dyVenXcw3TiMNP+1vxQ+R43qphog7B1OzoYMQ+qH7/gUNEd4k/++wzGzlypPsiVQckupOvHh+bN2/u58LhpCGeunfv7i4cuiOpu2HTpk1zDw1xExsb6+fE4aJ93LNnzywP9W6qHoCfeuopjkEB0X5WjZJnn33W3WzTuaG2WBrS41//+hc3gAqIOthRT5odO3Z0P17U87j6Dfi///s/d8ceh55qjXz00Ufuuq/ha3STTflfVZM1nrG+H3QDSDVPunXr5tqzq2q/mrio5B2Hhn4Lqbq+elxWr79Vq1Z154NqNog6yNPvJLVj1zEIv6tVwqUeaHHwFDx99dVXrhBGN3b0O1X7ukKFChk3nyO/q1Wa+8svv7hmLjoOODTUdEUd03733XfuBo9utKmvAPXALPp9pA7B9DtV39EqpNG8ukYdTI1QhhfCIacLiBqU6+Kt9iZqG6fqsygY+vGiL8+c6KIR2SM2Cs4//vEP9/9vf/ub+4+CoVJDjaP76quvui9XdXKhqvy6a4+CoSqxyveqlqlOR5o0aeLaYA0cONDPgUNNN3hOP/10/yqThv/TvhdVmVW18rfeesuVsKsTJH1303neoaN8r5uckVRK+M0337jn+q7OqWdZXaMUdOHgjR8/Psf2t+qgUzXfslNQ/J///McFujh0NGxTZImtqNaVAtrQp59+6vK+htkKxz4+2POAQBcAAAAAEFVoKAYAAAAAiCoEugAAAACAqEKgCwAAAACIKgS6AAAAAICoQqALAAAAAIgqBLoAAAAAgKjC8EIAgKigcXKXL19uKSkpVqZMGatTp46fkrO5c+e68UM1risOH42jq7FCU1NT3cD/1apV81OOTIsXL7Y9e/ZYo0aNLC4uzqcWTTpuW7Zssdq1a1vZsmV9av7o/NQ4+xrLnXGsARQEAl0AOITeeustS0xMdM/vvvtui4+Pd88PhAZLnzVrlnvevXt3O/HEE93znBzIvNOnT7cvvvjCfv75Z9u+fbuVKFHC6tevb506dbITTjjBmjVr5udM9/7779uCBQv8q0wlS5Z079HA7Xpe1OzevdtuvPFGt/47duxwaaeeeqp988037nluFGQoIN68ebNPOTA7d+60l19+2b7//nv32Y0bN7a77rprr/15pFu3bp1deeWV9u2331pycrJLu+222+zxxx93z49UrVu3tpkzZ9rKlSutZs2aPrVo0vF744037PPPP7czzjjDp+bPxIkTrXPnztavXz/74YcffCoAHEYKdAEAB2/o0KG6cZjxCIJLP+XAnHXWWRnvbdmyZVpqaqqfktWuXbvSKlasmDHvTTfd5KekS0lJSbv99tszputRqlSptJiYmCxpGzdu9O9I179//yzTsz/KlSuX9u677/q5i45//vOfbv3atm2b9tBDD6UFgVTaZ5995qfmLjY2Nq18+fL+1YEZP358Wq1atdznlShRIuM4aN/ef//9fq4D89tvv6VVq1Yt7Y9//KNPiS6XXnqp2zd9+vRJe/jhh91xGTFihJ965GrVqpXbL0Gg61OKriuuuMKtaxDo+pT8mzBhgltWEOj6lANz4403uvNkyJAhPgUADgxtdAHgEFD1TJV+NGjQwKfkXxB8udLaIKjyKVl99dVXtmnTJjdfTt577z1Xaqbpr732mq1evdqVdCYlJbmSpKeeesqVKuVGpW4jR450j59++sk+/PBDV5qzdetWu+SSS1xJcVGi0qbw/3333efW/8wzz3Rph5JKcs855xxXEnf11Ve7EsuNGzfa119/7ark/t///Z87NgdKx2Pt2rV5LlH+PVA15S+//NKVmH/33Xd2zz33uONy7LHH+jnwe3DzzTe743fUUUf5lIKnqtM6T1TdGwDygkAXAA6Be++917W9e+WVV3xK/l1wwQXu/3/+8x/3P7sw/bzzznP/s3v22Wfd/0ceecQF39WrV3ev1R61ZcuW7sfrtGnTrEKFCi49O1XBPeaYY9yjd+/edv7559tnn31mJ510kpuuartFiQJPqVWrlvt/uLz55pvuGHfr1s3tg7DN4mmnnWZPP/20e658gPSbAgpQdAOgKFZ3x4Fp06aNO+9r1KjhUwDg94NAFwAOktrAPvfcc66d6KEo+ejRo4c1b97cPvjgA9eBS6QVK1a4tqFqY5uQkOBTs5o/f777v691KVasmHscKM17/PHHu+cqIc5u0qRJdsMNN1i7du1cO2AFy/qBfP/99+c4/75MmTLFrrnmGrcPGjZsaL169XJBpoKnSCqZViC/YcMG9/r66693r/VQpzf5lZaWZi+88IJbzqOPPupKJ2XYsGHu/7XXXrvXvtPNAAW+M2bMOKDtff311+3f//63e662i+F666E2kaFbbrnFpWmdVEKq9o3qPOvoo4/2c5j98ssvduedd1qfPn1cB0d6KH9on4VtliOpvbaWqdJvLfejjz5yNzT0vo4dO9oTTzzh5skunPfcc89166DjrOOtGy6RNz+0LjoWomMTuW0qxQ6pJPv55593bcxVE0I3YbS9Yf7NTqXCWobygc6B/v37u/Vo3769mz5o0CA3fciQIa4TJa2Dlql5/vCHP9js2bPdfKJSeO0vta/W+3VzKHLdImm7x44dawMHDszIk9pfao+fPU+G1Cb5nXfecdum+bt27erylDpKywvlJ+W1nErCTz75ZDdNy85ONQ80bfjw4T4lnbZlxIgR7maazlGtm/LKJ598kuP2v/32226f6vzOTsfvX//6lwuGlXe0jv/73//cZ+g9N910k59zb9oPyjPh/tE179VXX81oyy0qwdVylL/lmWeeca/DhzqTC/3666+uloVqqihftmjRwrXTVy0L1X4BcIQKLkgAgHwKAom0pk2bptWtWzdty5Yt7qFLqx75baP7n//8Jy0Igtzzjz/+2E9N98gjj7j0IAhO+/vf/+6eZ2+jG/zQc+kvvfSSTzkwYRvdV155xadk9ac//clN/+tf/+pT0qltclxcnJumtsV9+/ZNC4LTtCpVqri07777zs+5f08++aR7jx7arz179nTti/U6+PGaFgQwfs60tAsvvDCtTp06acEPeje9du3a7rUe06dP93PlLqc2usGP/bQgyHbLC36Ep61Zs8alq710jRo1XHoQmLq07DS/ph9I+2C1O6xataqbX219w/XW4y9/+YufKy1jHrX/1f9KlSqlBcFWWkJCgp8jLa106dJuWhC0pR1zzDFpXbp0yWiPHQQQe+XD9evXu2lBAJgWBAcZ7w0Cvox9eeKJJ7q23pGCINRN037Tth5//PFpnTt3duuvR6hbt24Z7Zi1vMhtCwJDN8+8efPc8dI8avut/BIEuxnvee+999x8kYKAyE0P90WFChXcvlA+E7UDVvqf//xnt9+0X4LAPSMf6lgHwW5aEOC71/o8bbOe6xEET245kbQPwn2kh9qBa13LlCnjXgdBpjvnIwUBmtt/mq7zQsdE+0mvg4DbnSN6fiBtdPX5ageu/bt7926fmpYWBIRue7QcHett27b5KZl5Vccp8tjr/WeeeaZ7jx7aNzq/ihcv7l7r/Ne6R8qtja7WPbzOlC1b1p3zQZDpXt9zzz3uv/JqpLCNruY96aST3HPti/B9ekQeA+UV5ZmSJUu6aZUrV86Sl9TGXT799NOM9+v4HHfccWlHH320yx9KGzdunJsPwJGHQBcADsIdd9zhfkx988037vWhCnSXLVvmfvCffPLJfmr6D1j9sNcPXAXYuQW6t912m0uPj49Pu/POO9NGjRrl5t+fMNBVsLlhwwb3WLt2rQtK9Fn6Qa3PXrhwoX9HOv3w1/uyB+X6kf7rr7+69x8IraeWo+Dgk08+yeiMa/Xq1W4/aJoCiOzCgCkMog5U9kBXwcKpp57qlnX66adnOX76Ya90PXLblwMHDnTT7733Xp+yb+H2KvjJTRjo6se+8kUYiESuw2OPPZaWmJjoX6XTcTvllFPce//1r3/51HRhoKvjWbNmzbRffvklY1/PnTvXpWm6bmCEtP3aX5q2ePFin5pO+yn7sd+6datbRr169XxKJuWLdu3auennn3++y2dh+htvvOHSlXdnzpzp0kNhoKtpL774ouuUTcJ9EQa6Om8UoIWdrWm+Sy65xE1TYKpj/v3332ds87Rp0zKCxkWLFrm0kPat0hVAzZo1y6emn+cXX3yxm3bttdf61HTqEE3p2sbI5Wk/R3YidyCBroR5cvTo0T4lLW3KlCkuLbz58uOPP/opaWnz5893abrhEOnmm2926TpflyxZ4lPT0tatW5cReP7jH//wqelyC3TDdTrnnHMy9rP256BBgzJuvOQW6CrfKcCNvBk1ZsyYjPdp/SOpszalh9fY7MIbB5H5VXQzYNiwYe5aCuDIRKALAPk0duxY96P6ggsu8CmHLtAVBZ5a/ooVK9xrlWBoukqYJLdAd/Pmza4UKVwPPfTjUj+8VVqoYCYnYaCb20M/kLMHuaKSFv1IPViXXXaZ+5zsJcaiYCgsoYn8kS6HItBVSbFKQrWc6667zv1IjqRgXdMiSy6zC28wRJbI7kteAt2c9sn+KN9oG1WaGCkMdPXIKXgIaxPceuutPiVzXRXcHYh9Bbo6bzRNtSByumkQlqjffffdPiVdGOhmz++hMNBV6bRK5iOFx0+P5557zqdmCj/z5Zdf9inpgbdKpnUO5pTvFUArmFMeCoNuBXthSaeC0exef/31jPU40EA3PB6PPvqoT0lLe+GFFzLS9P/BBx/0U9Lc9UNpkcdPN3F0s0TnaXhjIZKCXd1g0j4ObwBIToGuajkoTUG7jnN2kbUPIoWBrh66uZBdeAyyH599BbpaV03LKZ8BAG10ASAfNH5qEJhZ8GPPtR07HNQmMLhO27vvvuteBz9g3f/LL7/c/c9N8MPbtcNTm0X1lhwES66d6dSpU11bRLXNU/s5peVEbf4uuugi97jwwgvt9NNPtyCYdW2R1Q5ZvQ1HUhu7IGCxIPDOsU3ogQiCiowei/WZ2QU/mjPGCg57WT5U1NZPbQTVy7U68FJbyiBA9FPThW0HY2Jy/9oMp+XW1vNg5NbxWKQgALGhQ4e68YP1CAIL1+GY/mv/ZleuXDnXzjU7tZuUILhz/0XtHkVj4ipf5ZZ3DkR4/NRutlSpUu55pLAzNnWAlpP97QvlV42RHEltcdUDtJx11lnufySNEy2R26y2oUEw6tqmK49nV6JECddOdsuWLe7cEPWWvmTJEje/2i9nl5+xaHv16uX+jxo1yv0X9YgeBOB21VVXueMYOS18rs7kQsoPau9/9tlnu3MpuypVqrj5Fy1alDE+d27UPlq0X8IO2SLtbxvVflbterPTOSg5jeWdG+0Dte9Wm3y12dd1GQBCBLoAkA///Oc/3VA96m037NX4UNMPdgUqCnDV6Y06p1KQGgYi+6KgSz/CFVQoANKPbw07dNxxx7npCnhz6yFaHb1oXj3ef/991wmSOlhSuoIcBcCRHnjgARcYPvjgg259e/bsaXfffbfrwOdAqWObDRs2uB56W7Zs6VOzUm/HEtkJzcFSYK5Ou9Sbsm4oqCMl/XjOTkGNKIjVzYechMOfHI5ehhUc5OaHH35wQZV6xlXHQgMGDMh4aJ+KgpzsqlWrtldAKOG2htsj6vhMnf2oYx918qObJwpU1XGVOkjLi7CzqS5durj/2YWdK82bNy/Hfb2vfSE59b6tYxpuV82aNd3/SDltszpFE90AUSddOT0GDx7s5tHwNxLmzQ4dOrj/2SmgzOsQZNpPxYsXd4G3bjBonyiY1efrRps6Jhs9enTGzZgw6NZ5GJo8ebL7ryA1+zaED90QkXBbcqNzRXIboiynIDZS7dq1/bOscjoGB+If//iH+3/rrbe66486GfvrX//qbuwBOLIR6AJAHmk82Ycfftj9YFZAGQaFeqhX2pDGn1WaeoDNDwVMKt1UCYt6yFXJkUpzcwrE9kXz16tXzwWoKvG7+OKLXXpehglSQKQeVrW9CqwiS74UUGlsXfVyqx/x6gFVJaMKyNUT6/5+OEv4Iz0+Pj7X7dOPfTmUJaYK0BUgigKE3EoqFRRqvbSeufWqHPb0fDiGOcopIBUFYerdWqVgt99+uxvzVNsxbtw4Ny3ctpwCxtxKp3Pb/8ovKtFViZ3mUQm8PlN5SzcIcrsBkF14rMPjmV2YruXldDxy2xeh/W1XTtNz2uawdFAloNrGnB4KJnVDKjzmYd5UPs5NbtudGwWACv5100I9Ryuf6eZCWNKrkljdsFEwq5taCrZ1Q0x5NhQGj7pBkdN26KEAUduSU4lvpPA4Z6/1EMpt/4fymu/259JLL3XbrhtxOg4a+1s3ItWbtm7K6LoJ4Mi076sRAGAv+jGrqqAKYPUj65JLLsl4qCph6IorrnBpKvnNr7Casqrl6YegPu9gaBnhOio4zQv9SA5/BGvYk0gqZVOVX5XCqbqnSkdVXVRVLDUszP6EVSC3bdvmHjlZvny5+69Sm0NFQYR+GOtHsQI5VRfPqZqv1q9t27buefZtD4XpkSVph5vyhYLBl156yR577DEX9OrzVQqoUjrVBDhUlHdOOeUUV0tA1de1vQ899JAL6vTZCrIPRHj8crsBFJYQq6pxbsFUQQjXUzUJVKthX49w+B+VsEpu26ZjldfhtiQManUTIyyx1RBHElZRVno4FE84fyhcL+WPnNY/8pFTletIYQ2WyJtdkXJLP5x0/r722muu6nViYqIboqtOnTquBopuSgI4MhHoAkAelS5d2o35mNNDVYJDGltXaRp7M79UkhNW5VUbVf14O1hhNdawquCBUmnRxo0b3fOc2uaFVNKtUmONVSoqAd4f7VNVwVRpkQLPnKg0WsK2uoeKSr403qgCmv/+979u3XMqNQ7HrlX75+wUnCnIV2ld586dfeq+hSVbYQlnfsyZM8f9j2yPGRozZsxhK81S0NuqVStX00BjJUtYjXd/NBaw/Pjjj+5/duFxVjXswqSgUBQsHWjbc1WDV+D/22+/5VhdXCWPqqafV+HxVZXlsA1uGMzqGqFS7shp2fODSjZF49zmVmvhQIXnn45TTnk3bMN7qOT1PKlbt667YaWmHqJxlQEcmQh0ASCPVKVYpaI5PdRBVUg/tpR2MMGpAgoFLKr+qx+pB0KdQi1btsy/ykrVMVWtWFRN8UCp6uNdd93lfiSrjV34I1uvwyq72YU/9NVZzoEIOwn6v//7v73a6amkaeLEia5EWVUsDzUtVz/cFSCo+rk6PMresU3YSdLzzz+fpcROwbn2uf6feeaZB3wDIazuqv0XVgfNq7CEXVWVIylQVzvFQ0WlkLmVDuf1OKtUWIGZSoDVtjSSmgWE+fOcc85x/wuLAiZ1uKR1uvfee3M9Rmr/HtINIL1H+ffJJ5/0qen0/rA9aV6FN1nCYLZJkyYZ1dLVoZeC3chAN3uJrkr3dWNCeU2l77mJ3JbcNGrUyC1PNSzUPj9yv6g0V6X8h1LkeZKd8l5upefh+Xug+RJAFAouUACAQ+RQDi+0P7kNL5SQkODSgx+7blzMt956K+3tt99OCwLVtKZNm7ppGmpk0qRJ/h3pwuGFgh+xbnxMPc4++2yXHo4zGhMTkxYEgv4daW5c1yBoSRswYIAbFmTIkCFpP/zwQ9orr7ySMRyMxjw9ENpfGgJJ7+nUqVPaO++8kxYEQ278zyB4dOkffPCBnzvToRpHV7QOJ5xwgluexhbdkW34m0svvdRNq1atWloQ8LrxY8MxRatUqZIW/Bj3cx6YZs2aufdqH99yyy1uXOYPP/zQT80cXig1YsiXSDq2ml6hQgW3PkGw7o61hhQKAgQ39JOmRw4DEw4vFARLPiUrjdeq6RqHN6Tt1DZfddVVae+9954bn1THRmMG69goD0SOr6vP0zLq5TLsi8Zq1vQgCEm777773Li2r732mhsnWul9+/bda4igMD9p+KychMMLPf744z4lKx0fTc/Jf//7XzdNeS2ShiWqXr26mxYEmy4vDx482A11o8/RuM7az5E0dE4QfLphiTS2ss6JL774Ii0IgF1+C5d3oMMLhVq3bu3ep8fll1/uU9OF43nroeXnlF/Gjx+fFgTibh7lcY1ZrG358ssv3b7r3bt3Wvv27f3c6XIbR3fy5MlpZcqUcdM0xrCuQRdddJEb41jXDaVXymV4oX79+vmUrHRua/r111/vU9IFwbtL1+cp/91+++1uexcsWOD2ofKfrlMaGkrXHu1vXYvC60L2MZ4BHDkIdAHgECoKga5+tIYBVPaHAhIFERMnTvRzZ9rXOLoKci655BI3lm8kBSMKSnN6j4IYjQGaW5CWk9WrV6ddeOGF7gdz5LK0PTkFuXIoA13ZtWuXC9y1zD59+mQJEnVMFdxpPNLI9dO+mzp1qp/rwClgUABUvHjxjGVpP4f2F+hqrFcFZ9qW8P166IaBjnE4puvBBro///yzC+jC5Uc+dGyGDx/u50y3v0BXNBZseFMmfChAVDATub6hwgh0ZdGiRW6sbN0c0jyRD+UDjf+anW4EtGrVKsu82tbI9LwGuuE4s3q8+eabPjXd119/nTFN15HcKAjXuM26DoTzhw/dLNFNh0i5BbqicYIV1Cqg1zwaV1dj6IbHvk6dOn7OdPkNdOXpp59Oa9GihZsePn766ae0jRs3prVp0yZLevjQTR7dmMjL9QdAdCmmP8EFAQBwCOiSGrbBU2c2qnp8oIIgylU5VXvVA+mZVdX29FBV2ZzGI1UvreowSNWetV6q5qqekMPxRLNTJ1A5tYPTumj5+9oWDTuj3qHVEVXww9INR6O2qqqimh9aZ7VzVBVQVf3Weuf2+drf2r687m+ts+YPOx2KpA6pgh/s7nlOx0Prp+GTtH4aMzW34WQOlPa72oFq36mNZ3iMDnTbguDVdUSk9Q73veZXG10tM/L9eq10tX3UmMvZaV2UF3TsIttiaz3U0Y969VVbbU1XJ0CqyppdeB7k9hkhra/WW/tTTQJU5Tan4yE5bUuk8HzQcvTILtyXYcdMkXQctf9zO5dE+UE9iuu/8oOOu9rP55bHta6qSqyOuzSskDoJ07ENt0P7JWx/eiDUg7s6txO1B1f15ZDOdX2GqIOyIGB3z3Oj+XV+aZu1r7Qs9dScfX00XftG+VHrnhPlF1UT1nmi46J9pG1VG+vI9rG55atQeAy0b7WsnKj6fFglWcsI973yv64/YUdf4TmZl/0LIPoQ6AIAAOCg6SeleoZXUK7O+G688UY/BQAKHoEuAAAADph6GdfwaRqbW72VqxRcY/y+8sor9tlnn7khiDR8WeRYvgBQ0Ah0AQAAcMBURVi9r6sKdnatW7d2Jbqq1g4AhYlAFwAAAHmitsdq57tgwQLXtlbtajX0V7t27fbZnhwACgqBLgAAAAAgqtAdHQAAAAAgqhDoAgAAAACiCoEuAAAAACCqEOgCAAAAAKIKgS4AAAAAIKoQ6AIAAAAAogqBLgAAAAAgqhDoAgAAAACiiNn/A+EeEZ3jFDn8AAAAAElFTkSuQmCC;" vertex="1" parent="1">
          <mxGeometry x="455" y="219.28" width="300" height="178.62" as="geometry" />
        </mxCell>
        <mxCell id="GyAlcbeer8-HQcUifqdN-8" value="&lt;b&gt;High randomness&lt;/b&gt;&lt;div&gt;&lt;b&gt;Lower compression&lt;/b&gt;&lt;/div&gt;" style="text;html=1;align=center;verticalAlign=middle;whiteSpace=wrap;rounded=0;" vertex="1" parent="1">
          <mxGeometry x="119" y="183" width="120" height="30" as="geometry" />
        </mxCell>
        <mxCell id="GyAlcbeer8-HQcUifqdN-9" value="&lt;b&gt;Low randomness&lt;/b&gt;&lt;div&gt;&lt;b&gt;Higher compression&lt;/b&gt;&lt;/div&gt;" style="text;html=1;align=center;verticalAlign=middle;whiteSpace=wrap;rounded=0;" vertex="1" parent="1">
          <mxGeometry x="559" y="185" width="120" height="30" as="geometry" />
        </mxCell>
      </root>
    </mxGraphModel>
  </diagram>
</mxfile>
